<?xml version="1.0" encoding="UTF-8"?>
<!-- <svg width="80" height="40" viewBox="200 120 100 230" fill="none" xmlns="http://www.w3.org/2000/svg"> -->
<svg width="110" height="60" viewBox="220 120 100 230" fill="none" xmlns="http://www.w3.org/2000/svg">
  <defs>
    <style>
      .cls-1 {
        fill: #595757;
      }

      .cls-2 {
        fill: #5cb539;
      }
    </style>
  </defs>
  <circle class="cls-2" cx="422.06" cy="252.37" r="30"/>
  <path class="cls-1" d="M430,212.73v14.36c0,17.82-16.09,53.11-58.3,53.11-32.53,0-58.3-24.74-58.3-56.57s25.78-56.57,58.3-56.57c17.3,0,34.26,7.09,46.37,22.32l-16.61,12.46c-6.92-10.03-17.47-15.74-29.76-15.74-19.55,0-37.2,16.44-37.2,37.54s17.65,37.54,37.2,37.54c17.99,0,32.52-10.9,36.85-29.41h-36.97v-19.03h58.43Zm-123.41,20.11c-.44-3.01-.68-6.08-.68-9.21,0-3.5,.29-6.93,.84-10.28-17.15-2.44-33.96-2.69-33.96-14.64,0-6.57,6.23-14.71,22.84-14.71,7.2,0,13.67,1.53,20.19,5.58,3.5-5.52,7.83-10.46,12.81-14.68-8.96-5.18-19.65-7.85-31.96-7.85-24.74,0-44.98,13.32-44.98,32.7,0,30.99,34.3,28.86,54.91,33.09Zm8.49,23.65c-4.61,2.99-11.33,4.59-19.28,4.68-12.63,0-24.05-6.06-32.18-14.71l-15.22,13.67c13.67,14.36,31.31,20.07,46.54,20.07,12.01,0,23.57-3.19,32.33-9.02-4.76-4.26-8.88-9.21-12.19-14.69Zm-74.57-84.88h-66.48v19.64h66.48v-19.64Zm0,44.48h-66.48v19.64h66.48v-19.64Zm-125.98,47.15c-13.8-1.76-24.45-13.32-24.45-31.59v-60.03h-20.07s0,64.36,0,64.36c0,23.99,17.57,44.64,44.52,46.4v-19.14Zm31.94-91.62v60.03c0,18.29-10.53,29.84-24.46,31.59v19.13c26.95-1.76,44.52-22.41,44.52-46.4v-64.36h-20.07Zm21.8,88.95c-2.14,4.31-7.42,13.13-17.33,19.64h89.56v-19.64h-72.23Z"/>
  <g>
    <path class="cls-1" d="M70,313.19h2.46v11.67c0,3.17,1.76,5.78,5.17,5.78s5.17-2.61,5.17-5.78v-11.67h2.46v12.39c0,4.19-3.18,7.36-7.68,7.36s-7.57-3.17-7.57-7.36v-12.39Z"/>
    <path class="cls-1" d="M102.97,313.19h2.46v19.44h-2.3l-10.44-15.04h-.05v15.04h-2.46v-19.44h2.3l10.44,15.04h.05v-15.04Z"/>
    <path class="cls-1" d="M110.36,313.19h2.46v19.44h-2.46v-19.44Z"/>
    <path class="cls-1" d="M130.28,313.19h2.61l-7.19,19.44h-2.05l-7.19-19.44h2.61l5.58,15.53h.05l5.58-15.53Z"/>
    <path class="cls-1" d="M136.63,313.19h10.05v2.3h-7.59v6.17h7.59v2.3h-7.59v6.37h7.59v2.3h-10.05v-19.44Z"/>
    <path class="cls-1" d="M153.62,324.34v8.29h-2.46v-19.44h5.6c3.74,0,6.52,2.15,6.52,5.88,0,3.48-2.74,5.63-5.91,5.81l7.57,7.75h-3.45l-7.88-8.29Zm0-1.51c.33,.03,.69,.03,2.15,.03,3.76,0,5.07-1.64,5.07-3.76,0-2.28-1.56-3.76-4.12-3.76h-3.09v7.49Z"/>
    <path class="cls-1" d="M177.64,318.74c-.33-2.3-1.66-3.71-3.73-3.71-2.77,0-3.51,1.81-3.51,3.14,0,1.46,.93,2.38,2.84,3.1l2.45,.92c3.1,1.15,4.53,2.97,4.53,5.32,0,3.14-2.51,5.42-6.24,5.42-3.53,0-6.03-1.87-6.34-5.75h2.45c.21,2.12,1.28,3.61,4.02,3.61,2.13,0,3.66-1.36,3.66-3.07,0-1.51-1.25-2.48-3.02-3.17l-2.48-.97c-2.9-1.13-4.32-2.82-4.32-5.32,0-3.35,2.79-5.37,5.99-5.37s5.73,1.92,6.01,5.86h-2.3Z"/>
    <path class="cls-1" d="M196.52,328.11h-9.05l-1.77,4.53h-2.68l7.9-19.44h2.15l7.91,19.44h-2.69l-1.77-4.53Zm-4.53-11.69l-3.69,9.54h7.37l-3.69-9.54Z"/>
    <path class="cls-1" d="M204.66,313.19h2.46v17.14h6.83v2.3h-9.29v-19.44Z"/>
    <path class="cls-1" d="M225.68,313.19h10.05v2.3h-7.59v6.17h7.59v2.3h-7.59v6.37h7.59v2.3h-10.05v-19.44Z"/>
    <path class="cls-1" d="M249.32,318.74c-.33-2.3-1.66-3.71-3.73-3.71-2.77,0-3.51,1.81-3.51,3.14,0,1.46,.93,2.38,2.84,3.1l2.45,.92c3.1,1.15,4.53,2.97,4.53,5.32,0,3.14-2.51,5.42-6.24,5.42-3.53,0-6.03-1.87-6.34-5.75h2.45c.21,2.12,1.28,3.61,4.02,3.61,2.13,0,3.66-1.36,3.66-3.07,0-1.51-1.25-2.48-3.02-3.17l-2.48-.97c-2.9-1.13-4.32-2.82-4.32-5.32,0-3.35,2.79-5.37,5.99-5.37s5.73,1.92,6.01,5.86h-2.3Z"/>
    <path class="cls-1" d="M266.42,321.92h9.8c0,6.98-4.81,11.02-10.26,11.02-6.6,0-10.31-5.22-10.31-10.03s3.71-10.03,10.31-10.03c2.28,0,4.55,.67,6.86,2.64l-1.56,1.85c-1.56-1.46-3.58-2.18-5.3-2.18-4.06,0-7.7,3.25-7.7,7.73s3.73,7.72,7.7,7.72c3.5,0,6.76-2.35,7.57-6.42h-7.11v-2.3Z"/>
    <path class="cls-1" d="M297.6,318.74c-.33-2.3-1.66-3.71-3.73-3.71-2.77,0-3.51,1.81-3.51,3.14,0,1.46,.93,2.38,2.84,3.1l2.45,.92c3.1,1.15,4.53,2.97,4.53,5.32,0,3.14-2.51,5.42-6.24,5.42-3.53,0-6.03-1.87-6.34-5.75h2.45c.21,2.12,1.28,3.61,4.02,3.61,2.13,0,3.66-1.36,3.66-3.07,0-1.51-1.25-2.48-3.02-3.17l-2.48-.97c-2.9-1.13-4.32-2.82-4.32-5.32,0-3.35,2.79-5.37,5.99-5.37s5.73,1.92,6.01,5.86h-2.3Z"/>
    <path class="cls-1" d="M307.9,315.49h-4.86v-2.3h12.18v2.3h-4.86v17.14h-2.45v-17.14Z"/>
    <path class="cls-1" d="M328.65,328.11h-9.05l-1.77,4.53h-2.68l7.9-19.44h2.15l7.91,19.44h-2.69l-1.77-4.53Zm-4.53-11.69l-3.69,9.54h7.37l-3.69-9.54Z"/>
    <path class="cls-1" d="M349.47,313.19h2.46v19.44h-2.3l-10.44-15.04h-.05v15.04h-2.46v-19.44h2.3l10.44,15.04h.05v-15.04Z"/>
    <path class="cls-1" d="M356.96,313.19h6.4c4.76,0,9.33,4.07,9.33,9.65s-4.42,9.8-9.95,9.8h-5.78v-19.44Zm5.75,17.14c4.35,0,7.37-3.33,7.37-7.62s-3.33-7.21-7.57-7.21h-3.09v14.84h3.3Z"/>
    <path class="cls-1" d="M388.76,328.11h-9.05l-1.77,4.53h-2.68l7.9-19.44h2.15l7.91,19.44h-2.69l-1.77-4.53Zm-4.53-11.69l-3.69,9.54h7.37l-3.69-9.54Z"/>
    <path class="cls-1" d="M399.35,324.34v8.29h-2.46v-19.44h5.6c3.74,0,6.52,2.15,6.52,5.88,0,3.48-2.74,5.63-5.91,5.81l7.57,7.75h-3.45l-7.88-8.29Zm0-1.51c.33,.03,.69,.03,2.15,.03,3.76,0,5.07-1.64,5.07-3.76,0-2.28-1.56-3.76-4.12-3.76h-3.09v7.49Z"/>
    <path class="cls-1" d="M414.27,313.19h6.4c4.76,0,9.33,4.07,9.33,9.65s-4.42,9.8-9.95,9.8h-5.78v-19.44Zm5.75,17.14c4.35,0,7.37-3.33,7.37-7.62s-3.33-7.21-7.57-7.21h-3.09v14.84h3.3Z"/>
  </g>
</svg>