<?xml version="1.0" encoding="UTF-8"?>
<svg width="110" height="40" viewBox="0 0 110 40" fill="none" xmlns="http://www.w3.org/2000/svg">
  <defs>
    <style>
      .cls-1, .cls-2 {
        fill: #231815;
      }

      .cls-2 {
        fill-rule: evenodd;
      }
    </style>
  </defs>
  <g>
    <path class="cls-1" d="M10.9,21.72c-.11-.26-.21-.53-.29-.81-.03-.26,.14-.61,.14-.85l.03-.12c.24,.33,.29,.1,.44-.03-.01,.16,.08,.52,.03,.71l-.05-.12c.02,.19-.26,1.04-.29,1.24ZM20.68,7.05s.16,.11,.58,.17c.28,.21-.07,.18-.19,.26v.12s-.15,.09-.17,.08-.16,.14,.04,.14c.2,0,1.41,.99,2.18,.81,.04,0,.07-.02,.11-.03,.06-.02,.3,.14,.36,.11,.04-.02,.36-.02,.41,0,1.64,.46,.33-.48-.33-.35-.15-.22-.49-.23-.7-.36-.1-.13-.31-.3-.47-.31-.05-.25-.3-.46-.62-.57-.37-.04-.75-.06-1.13-.06-.02,0-.04,0-.06,0ZM12.23,15.78c.28-.97,.68-1.95,1.12-2.86-.16-.03,.15-.45,.14-.48-.81,1.12-1.45,2.39-1.46,3.81,1.57,.99-.72,1.04-1.28,1.61,.05,.25-.13,.6-.02,.86l-.05,.29c.07,.31-.21,.44-.39,.67-.12-.65-.19-1.32-.19-2.01,0-4.43,2.71-8.23,6.57-9.83,.05,0,.05,.02-.05,.07-.48,.24-.31,.45,.13,.36,.36-.07,.82-.22,1.05-.23,.04-.14-.43-.1-.45-.12,.07-.25,1-.21,.56,.07,1.03-.11,.14,.24-.34,.2-.14,.18-1.22,.32-.44,.39-.17,.43,.56-.11,.67,.18-.59,.05,.05,.22,.26-.02,.04-.14-.2-.05-.15-.18,.68-.28,1.69,.23,2.22,.71-.34,.12-.24,.83-.76,.65,.29-.6-.34-.26-.44,.04,.4,.18,.89-.02,1.28,.22-.37,.15,.35,.73,.35,.3-.1-.19,.1-.46,.31-.36,.36-.1,.69-.02,1.02,.13-.61-.02-1.5-.18-1.15,.79,.08-.02,.26-.09,.13-.18,.11-.16,.52-.24,.69-.23-.33,.22-.52,.86-1,.62,.21,.43,.64-.09,.8-.25,.03-.34,.37,.02,.52,.06,.09-.48,1.01,.05,1.3-.24-.16-.16-.62-.65-.07-.47,.04,.5,.82,.85,0,1.13,.4-.13,.88,.07,1.24,.25-.17,.5,1.21-.24,1.76,.22,.03-.32,1.43-.7,1.14-.25l.2,.14c-.04,.06-.17,.04-.23,.03,.03,.1,.02,.24-.05,.32,.49,.04,.21,.49,.27,.85-.16-.05-.3,.1-.25,.26-.17-.06,0,.39-.01,.39,.43,.1,.29,.96,.19,1.28-.72-.54-.02-2.35-.81-1.68,.14,.62-.39,.39-.81,.63-.84,1.43,.21,.26,.7,1.75-.42-.09-.04,.38-.02,.55-.03-.03-.12-.21-.18-.11-.02-.27-.08-.81-.17-1.04-.02,.01-.16-.09-.18-.1,.09,.29,.15,.64,.15,.73,.01,.2-.29,.58-.42,1.02-.02,.08-.17,.12-.21,.13-.12,.04-.11-.15-.2-.07-.16,.15-.27,.23-.26,.43-.71,.21,.46,1.04-.55,1.13-.06-.06,.03-.25,.07-.31-.05,.04-.07-.12-.08-.12,.22-.18-.08-.22-.19-.26,.39-.55-.35-.17-.42-.28,.28-.36,0-.34-.18-.05-.06,.1-.38,.12-.38,.17,.14,0,.23,.1,.19,.25,.06-.1,.65-.12,.45,.1-.18-.11-.45,.2-.53,.34,.19,.02,.21,.28,.21,.41,.05,.1,.24,.26-.03,.12,.21,.21,.04,.2-.12,.27,.07,0,.37,.06,.19,.17h.05c-.56,.78-.85,1.02-1.72,1.09-.16,.06-.5-.09-.51,.17-.13,0-.08-.19,0-.22-.17-.18-.51,0-.75,.09-.12,.34,.24,.67,.35,.96,.08,.2-.13,.63-.13,.63-.16,.09-.46,.2-.83,.25-.05,0-.16-.09-.18-.1,.02-.07,.17-.09,.1-.2-.15-.25-.64-.63-.49-.75-.19-.14-.46,.38-.54,.55,.27-.02-.05,.5,.28,.54,.29,.26,.07,.6,.15,.9-.39-.04-.53-.62-.44-.96-.44-.72,.81-1.85-.41-1.88,.34-.41,.06-.8-.14-1.22-.54-.4-.91,.15-1.59,.12-.24,.22-.7-.08-.62,.43-.44,.25-.09,.72-.23,1.08-.32,.24-.26-.39-.07-.53-1.08,.11-.35-1.91-.13-2.46-.58-.12-.15-.76-.38-1.14,.07-.24-.8-.6-.86-1.05,.18-.38-.57-.48-.09-1.3-.05-.02-.14-.17-.17-.21-.29,.35-.28,.89-.38,1.25,.09,.1,.21,.21,.34,.11,.21,.16-.01,.42,.17,.63-.09,.93-1.87,.43-2.19-.19Zm12.08-2.11c.19,.19,.59-.43,.59-.43,0,0-.87-.44-.73-.95-.49,.67,1.17,.93,.14,1.38Zm-2.25,1.08c.18,.21,.69-.1,.73-.12,.04-.02-.03-.07-.03-.07,.14-.01,.1-.19,.12-.29-.19,.09-.47,.59-.82,.48Zm-3.71-.51c.34-.44,.6,.29,.7,.17s-.68-.7-.7-.17Zm-1.31-5.13c.1,.04,.26,.18,.1,.25,.06,.26,.53-.1,.68,.2,.16,.1,.33,.19,.49,.2l-.09,.12c.12,.08,.22-.07,.29-.15-.17,0-.34-.18-.41-.32,.13-.35,1.51,.09,.95-.27-.19-.09-2.26,.09-1.52-.2l-.06-.05-.43,.23Zm-.17,4.25l.13,.08c-.03-.13,.2-.1,.26-.11-.04-.18,.02-.25,.21-.23-.06,0-.1-.06-.12-.11l-.11,.06v-.06s-.06,.06-.06,.06c-.21-.19-.37,.18-.31,.32Zm-.82-1.03h.07c-.16,.04-.39,.43-.34,.57-1.04,.23-.09,1.32,.27,.18-.04,.29,.21,.11,.2-.07-.02,0-.1-.07-.09-.11,.24-.05-.08-.21,.19-.37-.06-.08,.06-.13,.08-.03,.07-.07,.14-.04,.17,.04,.46-.03,.18-.52-.14-.37-.12-.21-.35,0-.42,.14Zm-2.5-.33c.07,0,.23,.22,.1,.27,.12,.43,.7-.16,.95-.23-.08-.02-.12-.05-.08-.13-.28,.05-.06-.25-.11-.37l-.1,.04c0-.16,.18-.6,.3-.56l.15-.07c-.08-.08,.06-.11,.12-.09,0,.07,.03,.2,.1,.24-.02-.05,.01-.07,.06-.08,.33,.57,.29,1.87,.8,.25,.05,.06,.24,.08,.25-.02,.03,.05,.11,.05,.16,.04-.1-.13-.5-.47-.4-.07-.12-.05-.34-.15-.09-.22l.03-.07s.1,.05,.14,0c.18-.5-.47-.12-.74-.2,0,.05-.13,.16-.16,.19-.19-.11-.05-.27-.17-.42v.11c-1.05,.6-.24-.33,.21-.45,.21-.27,.45-.64,.72-.7-.36-.34-.69,.76-1.15,.64,.18-.06,.86-.79,1-.93-.17-.07-.02-.18,.03-.28-.18-.08-.23,.01-.41-.02l-.11-.11c-.1,.06-.25,.19-.34,.26,.16,.13-.23,.31-.19,.44-.02,.02-.13,.2-.06,.24-.47,.23-.69,.56-.96,.99-.52,1.1,.47-.6-.05,1.3Zm11.65-.67c.02-.36-.72-.22-.76-.21s-.02,.14-.02,.14c.05,.24,.32,.25,.46,.13-.28-.16,.31,0,.32-.06Zm-1.42,11.36c.05-.11,.03-.36-.14-.28,.03-.1-.18-.23-.03-.27-.86-.31-.15-.28-.11-.78,0-.05,.07-.1,.06-.14-.03-.13-.13-.18-.21-.13-.03,.02-.09-.03-.11,0-.03,.05-.03,.16-.01,.23-.01,.02-.06,.03-.07,.02-.06-.04-.11-.02-.14,.04-.05,.08-.13,.35-.06,.34,.03,0,.02,.03,0,.04-.18,.07-.01,.42,.06,.5l.16-.16c.05,.05,.17,.14,.24,.16,.23,.12,.04,.37,.12,.56,0,.01-.02,.1-.03,.11-.16,.04-.28,.07-.33,.09-.08,.02-.36,0-.32,.05,.03,.03,.17,.26,.22,.29,.03,.02,.13,.09,.16,.1,.03,.02,.16-.08,.18-.1,.04-.04,.08-.2,.09-.21,.01-.02,.06-.14,.08-.15,.04-.02,.06-.08,.06-.13,0-.02-.04-.09-.03-.1,0-.03,0-.05,0-.07,0-.07,0-.1,.13,0Zm-.27-2.69l-.05-.05s-.14,.09-.27,.23c-.07,.08,.04,.22,.06,.29,.09-.14,.23-.37,.26-.48Zm-1.97,.51c-.05-.03-.38-.08-.42,.03-.08,.32,.43,.2,.42-.03Zm-.47-11.83c-.08,.02-.24,.06-.32,.09l.54,.14-.33,.1c.19,.19,.52-.05,.76-.05l-.13,.14c.11,.04,.31,.19,.38,.01l-.13-.04,.18-.07c-.2-.41-.55-.33-.94-.32Zm-3.77,12.79c.45,2.31,2.21,4.44,4.77,4.28-.06-.06-.41-.12-.49-.09-.65-.15-1.36-.59-1.95-.79-.6-.12-.86-.89,.08-.62,.16,.02-.53-.56-.74-.45,.15-.31-.5-.38-.03-.51,0-.06-.52-.52-.56-.48-.07-.24-.32-.59-.53-.72,.3-.2-.43-.52-.56-.61Zm12.26-8.89c.06,.09,.53,.41,.58,.52,.29,.31,.65,1.31,.68,1.11-1.25-3.6-4.38-6.33-8.22-6.99,.15,.08,.51,.2,.65,.24l-.28,.05c.64,.43,1.54,.72,2.19,1.12l-.23-.33c.48,.19,.6,.99,1.1,1.07-.31-.77,.78,.41,.71,.79-.24,.31,.18,1.21,.56,.93-.02,.25,.22,.75,.34,.28,.78,.24,1.47,.48,1.91,1.23Zm-7.12,10.51c.03-.2-.17-.19-.48-.02-.18,.1-.4,.31-.61,.39-.09,.04-.19,.06-.28,.07-.11,.02-.18,.28-.31,.16-.06-.06-.16-.15-.22-.16-.63-.29-.21,.49-.3,.78,.57,.2,.92,.65,1.42,.22-.02-.14,.07-.12,.15-.15,.42-.12-.13-.21,.55-.34-.07-.26-.31-.53,.16-.62l-.05-.09c.33-.1,.2-.17-.03-.25Zm-2.07-15.61c-.08-.16-.52,.05-.49-.11-.13,.1-.43,.06-.45,.28,.02,.18,.51,.06,.57,.06l-.07-.04c.05-.04,.31-.13,.15-.16,.05,.02,.25-.03,.3-.04Zm5.34,11.07c.15-.27,.31-.19,.58-.37,.04-.23,.3-1.05-.01-1.12l.04,.1-.09-.05c-.03,.06-.05,.17-.05,.24l.05-.03c.02,.2-.12,.46-.29,.57-.09-.24-.15,.22-.17,.27-.33-.06-.88,.23-.89,.57,.24-.08,.07,.11,.04,.21,.18,.22,.35-.28,.22-.4,.34-.17,.42-.35,.58,.02Zm-.43,.14s.14-.21,.21-.09c.28-.36-.44-.11-.21,.09Zm-2.33,3.73s.18,.12,.19,.19c0,.03,.02,.06,.02,.06-.13,.03-.2,.1-.05,.16,.08,.03,.14,.06,.22-.1,.01,.06,.06,.17,.11,.15,.07-.02,.12-.08,.03-.16,.06-.18-.43-.54-.52-.31Zm4.06-6.22c-.08-.01-.18,.18-.22,.23-.1,.3-.37,.01-.49-.11,.12,.23-.41,.77,.01,.69-.23-.18,.12-.19,.23-.08,.1-.25,.35-.47,.47-.73Z"/>
    <path class="cls-2" d="M10.73,5.04c-.03,.54-.22,.71-.63,1.21-.58,.7-1.64,1.99-1.64,1.99,0,0-.06-.38,0-.62,.04-.13,.41-.36,.63-.51,.16-.11,.35-.41,.49-.82,.44-1.19-.2-1.17,1.02-3.76-.85,1.01-2.54,2.75-2.67,4.11-.03,.26,.04,.42,.17,.73,.08,.2,.05,1.31-.03,1.43-.3,.46-.96,.98-.96,.98,0,0,.36-.95,.52-1.62,.42-1.69-.3-3.39-1.89-4.12,0,0,.38,.74,.56,1.19,.21,.54,.25,1.42,.17,1.93-.26,1.53-1.03,1.69-.26,3.16,.03,.06,.06,.12,.11,.17,.06,.07,.06,.1-.07,.28l-.98,1.43s.3-.96,.34-1.66c0-.28-.34-1.31-.47-1.81-.16-.63,.04-1.47,.15-2.12-1.06,1.14-1.62,3.07-.92,4.53,.35,.72,.73,.96,.77,1.74,.03,.45-.16,.86-.27,1.67-.15,1.14-.15,3.06-.15,3.06,0,0-.64-.98-.7-1.38-.04-.23,.14-.27,.28-.57,.49-1.03-.5-1.57-.6-4.91,0,0-.39,1.74-.67,2.73-.17,.61-.13,1.77,.27,2.39,.11,.16,.24,.28,.37,.43,.18,.22,.74,1.55,.8,1.89,.05,.28-.02,.81-.17,1.39-.07,.28-.16,.62-.16,.62,0,0-.16-.43-.34-.72-.27-.44-.57-.56-.77-.83-.23-.31-.38-.92-.36-1.29,.02-.67,.22-1.5,.22-1.5,0,0-.25,.25-.49,.77-.48,1.06-.77,2.12-.16,2.95,.09,.12,.19,.22,.3,.3,.5,.35,1.45,.67,1.57,.9,.18,.34,.23,1.79,.23,1.79-.88-1.75-2.1-3.2-4.05-3.49-.1-.02-.1,.02-.09,.04,2.54,.98,1.64,4.45,3.8,5.71,.6,.35,1.65,.6,1.9,.86,.37,.38,1.01,1.81,1.01,1.81,0,0-.37-.08-.57-.19-.48-1.3-1.87-1.11-2.4-1.73-.28-.22-.78-1.04-1.03-1.61-.01-.03-.03-.07-.03-.1,0-.05-.01-.05-.07-.05h-.13s-.01,.36,0,.64c.05,.99,.72,2.46,1.33,2.98,.47,.4,1.02,.66,1.65,.43,.59-.21,.85-.36,1.42-.03,.2,.11,.41,.39,.7,.83,.32,.48,.8,1.19,.8,1.19-1.46-1.55-3.46-.9-4.63-1.86,.18,.97,2.63,2.75,2.97,2.92,.63,.31,1.08,.47,1.75,.49,.54,.03,1.19-.02,1.49,.08,.48,.16,.87,.58,1.4,.85,.35,.18,.78,.3,1.2,.46,.2,.08,.41,.17,.59,.29,.19,.11,.21,.13,.22,.2,0,.05,.02,.1,0,.15-.04,.09-.58,.11-.77,.05-.29-.1-.44-.32-.7-.41-.64-.23-1.51,0-2.25-.17-1.44-.21-2.82-1.92-3.83-1.92,0,0,.4,.6,.7,.99,.51,.67,2.16,2.04,2.65,2.31,.58,.32,1.49,.49,2.18,.18,.28-.13,.5-.34,.8-.47,.35-.15,1.58-.38,1.9-.37,.68,.03,1.91,.37,1.91,.37-2.46,.02-3.33,1.51-6.24,1.02,1.06,.52,2.19,1.6,3.48,1.4,1.06-.16,1.94-.53,2.55-1.43,.36-.55,.31-.97,.86-.96,.74,0,3.32,.28,3.32,.28-2.23-.15-1.77,1.95-6.43,2.44,.37,.05,1.54,.22,2.31,.3,1.32,.13,3.1-.26,3.84-1.49,.49-.83,.53-1.43,1.29-1.33,.54,.07,.21,.64,.28,1.46,.09,1.03,.95,1.34,2.07,1.56,.39,.08,.79,.16,1.19,.16,.59,.02,1.02-.09,1.48,.17,.25,.13,.5,.37,.6,.36-.81-1.83-3.04-1.96-3.67-2.29-.41-.22-.78-.51-1.04-.89-.08-.12-.13-.22-.09-.27,.18-.22,1.58,.48,1.93,.7,1.1,.69,1.14,1,2.42,1.16,1.68,.22,2.28-.09,3.78-.79,.32-.15,.84-.55,.94-.73,.03-.06,.07-.13,.07-.13,0,0-.67,.23-1.11,.33-.36,.08-.66,.06-.96,0-.88-.16-2.95-.64-3.54-.4-.92,.37-.99,.72-1.9,.04,0,0,.28-.22,.48-.3,.18-.08,.39-.01,.56,0,.29,.03,1.7-.85,2.05-.85,.24,0,.42,.36,.79,.53,.21,.09,.49,.12,.82,.13,1.48,.04,2.41-.17,3.15,.36,.17,.12,.33,.28,.4,.28,.07,0,.07-.11,0-.26-.35-.8-1.82-1.75-2.64-1.85-.39-.04-1.15,.01-1.47,.2-.29,.16-.54,.47-.62,.46-.04,0-.04-.08,0-.16,.3-.57,2.45-1.22,3.16-1.23,.56-.01,.71,.18,1.62,.4,1.77,.42,4.21-1.19,4.72-3.12,.1-.36,.18-.82,.18-.82-1.07,1.58-2.06,1.47-3.75,2.18-.3,.13-1.16,.77-1.33,.99-.11,.15-.37,.54-.54,.37-.03-.03-.05-.1-.06-.16,0-.08,0-.1,.18-.22,.61-.45,1.26-.87,1.81-1.38,.53-.49,.97-1.08,1.43-1.64,.14-.16,.17-.18,.32-.16,.3,.03,.86-.16,1.03-.22,1.88-.73,1.68-1.59,2.8-3.65,.2-.37,.41-.87,1.5-1.53-.16-.2-1.42,.47-1.64,.6-.84,.5-2.57,2.12-2.8,3.26-.15,.69-.08,1.1-.85,1.21,0,0,.59-.95,.78-1.61,.09-.32,.05-.85,.04-1.28,0-.22,.02-.25,.19-.38,.45-.35,.91-.72,1.4-.98,.98-.52,1.12-.42,1.58-1.21,.14-.24,.23-.44,.3-.68,.31-1.08-.03-1.99-.13-3.01-.03-.36,0-.85,.17-1.16,.16-.29,.47-.68,.47-.68-1,.47-1.32,.84-1.8,1.87-.15,.31-.31,1.16-.37,1.79-.1,1.16-.19,2.39-.63,2.85-.31,.32-.88,.75-.88,.75l1.44-5.02c.06-.21,.06-.25,.04-.41,0-.12,.01-.26,.02-.37,.02-.29,.02-.45,.11-.52,.12-.09,.38-.19,.6-.27,.35-.18,.82-.5,1.22-1.02,.1-.14,.19-.28,.26-.41,.19-.33,.37-.98,.4-1.43,.02-.4,0-.99,0-.99,0,0-.22,.47-.44,.79-.33,.49-1.12,.86-1.56,1.46-.35,.46-.69,1.23-.69,1.23,0,0,.07-.83,.19-1.23,.09-.31,.6-1.03,.83-1.17,.2-.11,.44-.12,.6-.2,.56-.27,.68-2.1,.37-2.82-.09-.2-.22-.44-.22-.44,0,0-.07,.4-.18,.71-.18,.5-.65,.9-.87,1.26-.12,.19-.18,.4-.17,.62,.01,.25,.13,.51,.07,.75-.04,.15-.14,.29-.23,.42-.13,.18-.15,.2-.22,.17l-.15-.04s.53-2.55,.53-3.41c0-.28-.28-1.22-.43-1.44-.76-1.13-1.38-2.42-1.01-3.78-.66,.25-.93,1.93-.96,2.45-.06,.91-.04,1.82,.43,2.53,.49,.74,1.43,1.23,1.42,2.17-.02,.47-.31,1.05-.31,1.05,0,0-2.54-5.24-2.48-5.43,.05-.19,.23-.24,.37-.44,.41-.6,.31-2.07,.07-2.79-.21-.61-.58-1.34-1.03-1.62-.24-.15-.62-.35-.62-.35,0,0,.37,.75,.49,1.28,.1,.5-.21,1.41-.11,2.12,.06,.44,.24,1.01,.24,1.01,0,0-.72-1.05-1.06-1.61-.21-.35-.29-.55-.27-.73,.03-.23,.19-.52,.27-.87,.23-1.01-.12-2.49-.53-3.31,0-.02-.19-.57-.73-.83-.03,.08,.08,.27,.13,.53,.1,.46-.27,2.42-.27,3.06,0,.17,.03,.27,.17,.53,.21,.4,.66,1.16,.66,1.16,0,0-.27-.15-.43-.27-.3-.22-.48-.7-.66-1.16-.24-.59-.38-1.13-.57-1.53-.52-1.15-2.83-1.91-3.87-2.31,.6,1.28,1.95,2.94,3.17,3.58,.2,.1,.38,.15,.63,.33,.22,.16,.49,.43,.49,.43,0,0-1.83-.85-2.72-1.42-.39-.26-1.12-.84-1.33-1.22-.16-.3-.19-.65-.38-.91-.65-.93-3.68-1.34-4.53-1.27-.29,.03-.84,.15-.78,.21,2.37,.65,2.67,1.55,3.14,1.82,.26,.15,.82,.27,1.24,.3,.9,.07,1.04,.02,1.87,.93,.14,.15,.3,.33,.3,.33,0,0-.52-.26-1-.43-.32-.11-2.32-.24-3.1-.3-.33-.03-1.08-.69-1.1-.66-.02,.02-.01,.06,0,.1,.18,.68,1.71,1.68,2.07,1.86,.6,.28,1.62,.58,2.25,.43,.29-.07,.53-.22,.83-.3,.88-.22,2.12,.13,2.8,.67,.35,.28,.8,.7,.8,.7,0,0-.71-.28-1.43-.49-1.31-.42-.96,.25-3.17-.24-.21,.35,2.06,1.21,2.6,1.36,.94,.26,1.07,.09,2.12-.19,.22-.06,.69,0,.83,.09,.02,.01,1.16,1.53,1.41,2.12,.04,.1,.06,.19,.03,.2-.03,.02-.12-.03-.2-.1-.13-.09-.25-.22-.4-.33-.45-.34-2.5-1.2-2.93-1.23-.35-.03-.78,0-.78,0,0,0,.67,.24,1.14,.53,.51,.32,.93,.98,1.41,1.4,.31,.27,.68,.47,1.03,.5,.9,.05,1.07-.27,1.44,.36,.33,.57,.66,1.69,1.03,2.36,.13,.23,.27,.41,.47,.76,.2,.36,.45,.89,.45,.89,0,0-.57-.26-.8-.52-.18-.2-.11-.62-.21-.98-.09-.35-.79-1.22-1.1-1.49-.59-.54-1.87-1.37-1.87-1.37,0,0,.82,2.13,1.3,2.87,.16,.24,.59,.73,.83,.9,.26,.17,.57,.22,.87,.33,.24,.09,1.15,.8,1.3,1.03,.16,.23,.33,.75,.3,.92-.03,.14-.1,.26-.13,.43-.11,.48,.13,1.72,.13,2.34,0,.25-.04,.42-.2,.79-.11,.26-.28,.61-.28,.61l.07-2.07c0-.22,0-.26-.02-.47-.13-1.23-1.22-1.68-1.31-3.08-.47,.51,0,1.43,0,1.53,.4,1.61-.61,2.5,.63,3.59,.26,.26,.33,.26,.43,.68,.06,.24,.06,.43,0,.75-.14,.69-.6,1.96-.6,1.96v-1.35c0-.58-.09-1.25-.54-1.64,.37,2.09-1.58,2.56-.19,4.38,.22,.28,.29,1.06,.13,1.57-.12,.38-.35,.82-.35,.82,0,0-.11-1.17-.35-1.73-.32-.77-.62-.73-.41-1.64-.78,.99-1.04,2.48-.56,3.66,.28,.68,.48,.71,.29,1.23-.09,.25-.48,.76-.8,1.05-.55,.49-1.66,1.33-1.66,1.33,.86-1.11,.56-2.17,1.77-3.04,.2-.14,.35-.25,.35-.25,0,0-.64,.08-1.08,.22-.7,.22-1.65,1.24-1.87,1.92-.19,.6-.42,1.8-.42,1.8-.57,.12-1.14,.23-1.71,.35,1.05-.54,.81-1.82,2.25-2.63,0,0-.47,.12-.79,.22-.93,.29-2.54,1.46-2.77,2.29-.21,.77-.04,.86-.37,1.1-.47,.34-2.25,1.32-2.6,1.1-.07-.05-.08-.15,0-.22,.16-.14,.63-.21,.98-.38,.7-.33,1.56-1.36,1.65-1.99,.04-.28,.05-.63,.05-.63,0,0-.48,.5-.88,.82-.46,.38-1.54,.79-1.77,1.2-.32,.55-.03,.75-.54,1.2-.26,.23-.68,.27-.97,.1-.24-.15-.46-.47-.73-.73-1.13-1.04-3.37-1.16-4.75-.54,0,0,.78,.09,1.49,.33,.56,.19,1.56,.59,1.56,.59,0,0-2.72-.05-3.68-.17-.42-.05-.6-.14-1.14-.24-.52-.1-1.36-.2-1.36-.2,0,0,.74-.04,1.21-.16,.35-.09,.71-.37,1-.53,.07-.04,.23-.1,.43-.15,.45-.15,.97-.17,1.37-.15-.08-.08-.16-.16-.27-.23-.5-.31-1.96-.5-2.51-.41-.32,.06-.81,.23-1.03,.44-.65,.6-.53,1.14-1.33,.56-.2-.14-.5-.55-.54-.8-.02-.17,.06-.31,.07-.48,.03-.81-1.36-2.2-1.93-2.67-.52-.42-1.12-.81-1.7-1.19,.06,.78,.31,1.42,.67,2.12,.38,.73,1.42,1.68,2.36,2.24,.19,.11,.21,.13,.21,.18,.02,.13-.02,.16-.16,.1-1.22-.42-3.09-2.49-3.45-3.2-.07-.14-.02-.94,.07-1.07,.02-.19,.04-.41,.05-.65,0-.03,0-.08,0-.14,.03-.84-.2-1.45-.47-2.12-.14-.35-.8-1.19-1.23-1.2,.53,1.19,.39,1.6,.47,2.79,.03,.5,.16,1.25,.16,1.25l-1.93-3.19s.32-.22,.53-.39c.39-.31,.47-.58,.57-.95,.08-.32,.08-1.55,0-1.91-.11-.48-.29-1.05-.29-1.05,0,0-.05,.8-.28,1.58-.28,.96-.83,1.89-.83,1.89,0,0-.3-.59-.39-1.07-.03-.15,.52-1.49,.66-1.62,.6-.56,.92-.91,1.07-1.89,.11-.77-.03-1.51,.11-2.78,.07-.62,.22-1.37,.22-1.37-.8,.08-1.95,3.48-1.93,4.28,.01,.6,.29,1.35,.2,1.74-.04,.19-.17,.31-.3,.69-.08,.23-.15,.55-.15,.55,0,0-.11-.15-.18-.29-.19-.35-.18-1.17-.16-1.52,.04-.98,.49-2.15,.6-3.27,.09-.92-.03-1.91,.13-2.41,.06-.19,.32-.49,.45-.51,.13-.02,.29,.03,.49,0,1.36-.18,1.69-2.26,3.02-3.24-1.43,.47-2.59,1.06-3.19,2.25-.19,.25-.44,.56-.44,.56,0,0,.03-.38,.05-.66,.05-.66,.05-.87,.27-1.17,.12-.16,2.42-1.46,2.76-1.56,.83-.25,1.04-.29,1.7-1.03,.85-.94,1.31-2.49,1.77-3.65-1.15,.68-2.76,1.89-3.3,3.12-.2,.45-.21,1.05-.43,1.28-.3,.32-1.81,1-1.81,1,0,0,2.13-2.76,3.27-4.13,.94-1.14,1.34-1.39,2.83-2.31,.18-.11,.22-.12,.44-.09,3.86,.67,4.14,.69,6.99-1.48-2.49,.98-3.14,.47-3.85,.49-.31,0-.99,.2-1.27,.36-.54,.32-.71,.56-1.07,.48-.25-.05-.76-.22-.76-.22,0,0,.44-.23,.83-.36,.71-.25,1.56-.24,2.1-.41,1.08-.35,2.54-1.67,3.04-2.74,0,0-.9,.46-1.6,.7-1.52,.5-2.15,.12-2.95,1.08-.01,.02-.49,.63-.56,.82-.05,.14-.08,.17-.26,.29l-2.7,1.67s0-.12,0-.21c.02-.17,.09-.25,.2-.32,.98-.64,1.41-.75,1.84-1.93,.19-.52,.45-1.55,.37-2.09-.05-.32-.19-.85-.19-.85-.36,1.21-.63,1.87-1.61,2.63-.88,.69-.83,1.49-.87,2.41h0ZM5.39,25.05s-.06,0-.1,0c-.08,0-.24-.09-.3-.16-.03-.03-.04-.06-.1-.27-.17-.99-.51-1.81-.54-1.95,.03-.03,.25,.44,.32,.6,.06,.13,.11,.25,.16,.38,.13,.32,.29,.69,.46,1.02,.1,.19,.11,.22,.11,.27v.1h0Zm30.13-.4s-.08,.02-.11,0c-.12-.07,.24-.86,.33-1,.03-.04,.05-.07,.07-.06,.04,0,.04,.19,0,.38-.06,.26-.2,.53-.29,.68h0Z"/>
  </g>
  <g>
    <path class="cls-1" d="M105.31,12.79v2.39c0,2.97-2.68,8.85-9.71,8.85-5.42,0-9.71-4.12-9.71-9.43s4.29-9.43,9.71-9.43c2.88,0,5.71,1.18,7.72,3.72l-2.77,2.08c-1.15-1.67-2.91-2.62-4.96-2.62-3.26,0-6.2,2.74-6.2,6.25s2.94,6.25,6.2,6.25c3,0,5.42-1.82,6.14-4.9h-6.16v-3.17h9.73Zm-20.56,3.35c-.07-.5-.11-1.01-.11-1.53,0-.58,.05-1.15,.14-1.71-2.86-.41-5.66-.45-5.66-2.44,0-1.1,1.04-2.45,3.8-2.45,1.2,0,2.28,.26,3.36,.93,.58-.92,1.3-1.74,2.13-2.45-1.49-.86-3.27-1.31-5.32-1.31-4.12,0-7.49,2.22-7.49,5.45,0,5.16,5.72,4.81,9.15,5.51Zm1.41,3.94c-.77,.5-1.89,.76-3.21,.78-2.1,0-4.01-1.01-5.36-2.45l-2.54,2.28c2.28,2.39,5.22,3.34,7.75,3.34,2,0,3.93-.53,5.39-1.5-.79-.71-1.48-1.53-2.03-2.45Zm-12.42-14.14h-11.08v3.27h11.08v-3.27Zm0,7.41h-11.08v3.27h11.08v-3.27Zm-20.99,7.85c-2.3-.29-4.07-2.22-4.07-5.26V5.94h-3.34s0,10.72,0,10.72c0,4,2.93,7.44,7.42,7.73v-3.19Zm5.32-15.26V15.94c0,3.05-1.75,4.97-4.07,5.26v3.19c4.49-.29,7.42-3.73,7.42-7.73V5.94h-3.34Zm3.63,14.82c-.36,.72-1.24,2.19-2.89,3.27h14.92v-3.27h-12.03Z"/>
    <g>
      <path class="cls-1" d="M45.34,29.53h.41v1.94c0,.53,.29,.96,.86,.96s.86-.43,.86-.96v-1.94h.41v2.06c0,.7-.53,1.23-1.28,1.23s-1.26-.53-1.26-1.23v-2.06Z"/>
      <path class="cls-1" d="M50.83,29.53h.41v3.24h-.38l-1.74-2.51h0v2.51h-.41v-3.24h.38l1.74,2.51h0v-2.51Z"/>
      <path class="cls-1" d="M52.06,29.53h.41v3.24h-.41v-3.24Z"/>
      <path class="cls-1" d="M55.38,29.53h.43l-1.2,3.24h-.34l-1.2-3.24h.43l.93,2.59h0l.93-2.59Z"/>
      <path class="cls-1" d="M56.44,29.53h1.67v.38h-1.27v1.03h1.27v.38h-1.27v1.06h1.27v.38h-1.67v-3.24Z"/>
      <path class="cls-1" d="M59.27,31.39v1.38h-.41v-3.24h.93c.62,0,1.09,.36,1.09,.98,0,.58-.46,.94-.98,.97l1.26,1.29h-.57l-1.31-1.38Zm0-.25c.06,0,.11,0,.36,0,.63,0,.84-.27,.84-.63,0-.38-.26-.63-.69-.63h-.52v1.25Z"/>
      <path class="cls-1" d="M63.27,30.45c-.06-.38-.28-.62-.62-.62-.46,0-.58,.3-.58,.52,0,.24,.15,.4,.47,.52l.41,.15c.52,.19,.75,.49,.75,.89,0,.52-.42,.9-1.04,.9-.59,0-1.01-.31-1.06-.96h.41c.03,.35,.21,.6,.67,.6,.35,0,.61-.23,.61-.51,0-.25-.21-.41-.5-.53l-.41-.16c-.48-.19-.72-.47-.72-.89,0-.56,.46-.9,1-.9s.95,.32,1,.98h-.38Z"/>
      <path class="cls-1" d="M66.42,32.01h-1.51l-.29,.75h-.45l1.32-3.24h.36l1.32,3.24h-.45l-.29-.75Zm-.75-1.95l-.61,1.59h1.23l-.61-1.59Z"/>
      <path class="cls-1" d="M67.77,29.53h.41v2.86h1.14v.38h-1.55v-3.24Z"/>
      <path class="cls-1" d="M71.27,29.53h1.67v.38h-1.27v1.03h1.27v.38h-1.27v1.06h1.27v.38h-1.67v-3.24Z"/>
      <path class="cls-1" d="M75.21,30.45c-.06-.38-.28-.62-.62-.62-.46,0-.58,.3-.58,.52,0,.24,.15,.4,.47,.52l.41,.15c.52,.19,.75,.49,.75,.89,0,.52-.42,.9-1.04,.9-.59,0-1.01-.31-1.06-.96h.41c.03,.35,.21,.6,.67,.6,.35,0,.61-.23,.61-.51,0-.25-.21-.41-.5-.53l-.41-.16c-.48-.19-.72-.47-.72-.89,0-.56,.46-.9,1-.9s.95,.32,1,.98h-.38Z"/>
      <path class="cls-1" d="M78.06,30.98h1.63c0,1.16-.8,1.84-1.71,1.84-1.1,0-1.72-.87-1.72-1.67s.62-1.67,1.72-1.67c.38,0,.76,.11,1.14,.44l-.26,.31c-.26-.24-.6-.36-.88-.36-.68,0-1.28,.54-1.28,1.29s.62,1.29,1.28,1.29c.58,0,1.13-.39,1.26-1.07h-1.18v-.38Z"/>
      <path class="cls-1" d="M83.26,30.45c-.06-.38-.28-.62-.62-.62-.46,0-.58,.3-.58,.52,0,.24,.15,.4,.47,.52l.41,.15c.52,.19,.75,.49,.75,.89,0,.52-.42,.9-1.04,.9-.59,0-1.01-.31-1.06-.96h.41c.03,.35,.21,.6,.67,.6,.35,0,.61-.23,.61-.51,0-.25-.21-.41-.5-.53l-.41-.16c-.48-.19-.72-.47-.72-.89,0-.56,.46-.9,1-.9s.95,.32,1,.98h-.38Z"/>
      <path class="cls-1" d="M84.97,29.91h-.81v-.38h2.03v.38h-.81v2.86h-.41v-2.86Z"/>
      <path class="cls-1" d="M88.43,32.01h-1.51l-.29,.75h-.45l1.32-3.24h.36l1.32,3.24h-.45l-.29-.75Zm-.75-1.95l-.61,1.59h1.23l-.61-1.59Z"/>
      <path class="cls-1" d="M91.9,29.53h.41v3.24h-.38l-1.74-2.51h0v2.51h-.41v-3.24h.38l1.74,2.51h0v-2.51Z"/>
      <path class="cls-1" d="M93.15,29.53h1.07c.79,0,1.56,.68,1.56,1.61s-.74,1.63-1.66,1.63h-.96v-3.24Zm.96,2.86c.72,0,1.23-.55,1.23-1.27s-.55-1.2-1.26-1.2h-.52v2.47h.55Z"/>
      <path class="cls-1" d="M98.44,32.01h-1.51l-.29,.75h-.45l1.32-3.24h.36l1.32,3.24h-.45l-.29-.75Zm-.75-1.95l-.61,1.59h1.23l-.61-1.59Z"/>
      <path class="cls-1" d="M100.21,31.39v1.38h-.41v-3.24h.93c.62,0,1.09,.36,1.09,.98,0,.58-.46,.94-.98,.97l1.26,1.29h-.57l-1.31-1.38Zm0-.25c.06,0,.11,0,.36,0,.63,0,.84-.27,.84-.63,0-.38-.26-.63-.69-.63h-.52v1.25Z"/>
      <path class="cls-1" d="M102.69,29.53h1.07c.79,0,1.56,.68,1.56,1.61s-.74,1.63-1.66,1.63h-.96v-3.24Zm.96,2.86c.72,0,1.23-.55,1.23-1.27s-.55-1.2-1.26-1.2h-.52v2.47h.55Z"/>
    </g>
  </g>
</svg>