<?xml version="1.0" encoding="UTF-8"?>
<svg width="80" height="40" viewBox="-5 0 80 30" fill="none" xmlns="http://www.w3.org/2000/svg">
    <defs>
        <polygon id="path-1" points="0 0 3.20183246 0 3.20183246 4.05439791 0 4.05439791"></polygon>
        <polygon id="path-3" points="0 30 68.4887435 30 68.4887435 0 0 0"></polygon>
    </defs>
    <g id="页面-1" stroke="none" stroke-width="1" fill="none" fill-rule="evenodd">
        <g id="最新消息" transform="translate(-231.0002, -17.0002)">
            <g id="编组" transform="translate(231, 17)">
                <path d="M18.7675916,17.7072251 C18.3631414,18.5239791 17.3626178,20.1928272 15.4856545,21.4265969 L32.4458639,21.4265969 L32.4458639,17.7072251 L18.7675916,17.7072251 Z M14.6382723,0.862460733 L14.6382723,12.2310471 C14.6382723,15.6943979 12.6450785,17.882356 10.0071204,18.2137696 L10.0071204,21.8373298 C15.1118325,21.5043455 18.438534,17.5933508 18.438534,13.0501571 L18.438534,0.862460733 L14.6382723,0.862460733 Z M8.58879581,18.2129843 C5.97518325,17.8792147 3.95764398,15.6912565 3.95764398,12.2310471 L3.95764398,0.862460733 L0.157382199,0.862460733 L0.157382199,13.0501571 C0.157382199,17.5933508 3.48408377,21.5043455 8.58879581,21.8373298 L8.58879581,18.2129843 Z M19.8568586,13.003822 L32.4458639,13.003822 L32.4458639,9.28445026 L19.8568586,9.28445026 L19.8568586,13.003822 Z M19.8568586,4.58183246 L32.4458639,4.58183246 L32.4458639,0.862460733 L19.8568586,0.862460733 L19.8568586,4.58183246 Z M46.5670681,16.9375916 C45.694555,17.5022513 44.4223037,17.806178 42.9168063,17.8234555 C40.525445,17.8234555 38.3626178,16.6760733 36.8233508,15.0378534 L33.9395812,17.6263351 C36.5280628,20.3459686 39.8696859,21.4265969 42.7534555,21.4265969 C45.027801,21.4265969 47.2173298,20.8234555 48.8767539,19.719267 C47.9743979,18.9127225 47.1953403,17.9750262 46.5670681,16.9375916 L46.5670681,16.9375916 Z M44.9602618,12.4580105 C44.877801,11.8878534 44.8322513,11.3059162 44.8322513,10.7137696 C44.8322513,10.0509424 44.8880105,9.40146597 44.9908901,8.76769634 C41.7427225,8.30434555 38.5597382,8.25801047 38.5597382,5.99544503 C38.5597382,4.75068063 39.738534,3.21062827 42.883822,3.21062827 C44.2471728,3.21062827 45.473089,3.50120419 46.7068586,4.26691099 C47.3704712,3.22240838 48.1895812,2.28549738 49.1327749,1.48759162 C47.4364398,0.506701571 45.4118325,0.000157068063 43.0809424,0.000157068063 C38.3956021,0.000157068063 34.562356,2.52267016 34.562356,6.1917801 C34.562356,12.0614136 41.0586911,11.6577487 44.9602618,12.4580105 L44.9602618,12.4580105 Z M68.3312042,8.64910995 L68.3312042,11.3687435 C68.3312042,14.7433508 65.2848691,21.4265969 57.2908901,21.4265969 C51.131466,21.4265969 46.2490052,16.7420419 46.2490052,10.7137696 C46.2490052,4.68549738 51.131466,0.000157068063 57.2908901,0.000157068063 C60.5665445,0.000157068063 63.777801,1.34308901 66.0709948,4.2260733 L62.9257068,6.5852356 C61.6149738,4.68549738 59.6162827,3.60408377 57.2908901,3.60408377 C53.5880105,3.60408377 50.2463874,6.71638743 50.2463874,10.7137696 C50.2463874,14.7103665 53.5880105,17.8234555 57.2908901,17.8234555 C60.6976963,17.8234555 63.4495288,15.7587958 64.2694241,12.2530366 L57.2673298,12.2530366 L57.2673298,8.64910995 L68.3312042,8.64910995 Z" id="Fill-1" fill-opacity="0.85" fill="#000000"></path>
                <path d="M1.59094241,29.9215445 C0.728638743,29.9215445 0.0783769634,29.2877749 0.0783769634,28.4482461 L0.0783769634,26.0239005 L0.700366492,26.0239005 L0.700366492,28.3123822 C0.700366492,28.7812304 0.936753927,29.3286126 1.60115183,29.3286126 C2.2647644,29.3286126 2.50115183,28.7812304 2.50115183,28.3123822 L2.50115183,26.0239005 L3.12314136,26.0239005 L3.12314136,28.4482461 C3.12314136,29.301911 2.4791623,29.9215445 1.59094241,29.9215445" id="Fill-3" fill-opacity="0.85" fill="#000000"></path>
                <g transform="translate(0.0002, 25.9456)">
                    <mask id="mask-2" fill="white">
                        <use xlink:href="#path-1"></use>
                    </mask>
                    <g id="Clip-6"></g>
                    <path d="M3.20183246,0 L3.0447644,0 L2.57905759,0 L2.42198953,0 L2.42198953,0.157068063 L2.42198953,2.36701571 C2.42198953,2.82015707 2.20602094,3.3039267 1.60052356,3.3039267 C0.995026178,3.3039267 0.779842932,2.82015707 0.779842932,2.36701571 L0.779842932,0.157068063 L0.779842932,0 L0.622774869,0 L0.157068063,0 L0,0 L0,0.157068063 L0,2.50287958 C0,3.38717277 0.684031414,4.05471204 1.59109948,4.05471204 C2.52408377,4.05471204 3.20183246,3.40209424 3.20183246,2.50287958 L3.20183246,0.157068063 L3.20183246,0 Z M3.0447644,0.157068063 L3.0447644,2.50287958 C3.0447644,3.29685864 2.44319372,3.89764398 1.59109948,3.89764398 C0.758638743,3.89764398 0.157068063,3.29685864 0.157068063,2.50287958 L0.157068063,0.157068063 L0.622774869,0.157068063 L0.622774869,2.36701571 C0.622774869,2.96701571 0.956544503,3.46099476 1.60052356,3.46099476 C2.24528796,3.46099476 2.57905759,2.96701571 2.57905759,2.36701571 L2.57905759,0.157068063 L3.0447644,0.157068063 Z" id="Fill-5" fill-opacity="0.85" fill="#000000" mask="url(#mask-2)"></path>
                </g>
                <polygon id="Fill-7" fill-opacity="0.85" fill="#000000" points="6.43099476 29.8635864 4.5226178 27.1690838 4.5226178 29.8635864 3.90062827 29.8635864 3.90062827 26.0240576 4.41502618 26.0240576 6.3226178 28.7185602 6.3226178 26.0240576 6.94460733 26.0240576 6.94460733 29.8635864"></polygon>
                <path d="M7.0239267,25.9456021 L6.86685864,25.9456021 L6.40115183,25.9456021 L6.24408377,25.9456021 L6.24408377,26.1026702 L6.24408377,28.4634031 L4.54382199,26.0131414 L4.49748691,25.9456021 L4.41502618,25.9456021 L3.9791623,25.9456021 L3.82209424,25.9456021 L3.82209424,26.1026702 L3.82209424,29.7851309 L3.82209424,29.942199 L3.9791623,29.942199 L4.44486911,29.942199 L4.60193717,29.942199 L4.60193717,29.7851309 L4.60193717,27.4243979 L6.30219895,29.8746597 L6.34853403,29.942199 L6.43099476,29.942199 L6.86685864,29.942199 L7.0239267,29.942199 L7.0239267,29.7851309 L7.0239267,26.1026702 L7.0239267,25.9456021 Z M6.86685864,26.1026702 L6.86685864,29.7851309 L6.43099476,29.7851309 L4.45429319,26.9367016 L4.44486911,26.9367016 L4.44486911,29.7851309 L3.9791623,29.7851309 L3.9791623,26.1026702 L4.41502618,26.1026702 L6.39172775,28.9510995 L6.40115183,28.9510995 L6.40115183,26.1026702 L6.86685864,26.1026702 Z" id="Fill-9" fill-opacity="0.85" fill="#000000"></path>
                <mask id="mask-4" fill="white">
                    <use xlink:href="#path-3"></use>
                </mask>
                <g id="Clip-12"></g>
                <polygon id="Fill-11" fill-opacity="0.85" fill="#000000" mask="url(#mask-4)" points="7.72225131 29.8633508 8.34424084 29.8633508 8.34424084 26.023822 7.72225131 26.023822"></polygon>
                <path d="M8.64371728,25.9456021 L8.44230741,25.9456021 L7.84512715,25.9456021 L7.64371728,25.9456021 L7.64371728,26.1026702 L7.64371728,29.7851309 L7.64371728,29.942199 L7.84512715,29.942199 L8.44230741,29.942199 L8.64371728,29.942199 L8.64371728,29.7851309 L8.64371728,26.1026702 L8.64371728,25.9456021 Z M7.84512715,29.7851309 L8.44230741,29.7851309 L8.44230741,26.1026702 L7.84512715,26.1026702 L7.84512715,29.7851309 Z" id="Fill-13" fill-opacity="0.85" fill="#000000" mask="url(#mask-4)"></path>
                <polygon id="Fill-14" fill-opacity="0.85" fill="#000000" mask="url(#mask-4)" points="10.263377 29.8635864 8.84348168 26.0240576 9.50552356 26.0240576 10.5107592 28.8253665 11.5175654 26.0240576 12.178822 26.0240576 10.759712 29.8635864"></polygon>
                <path d="M12.2923037,25.9456021 L12.066911,25.9456021 L11.5729319,25.9456021 L11.462199,25.9456021 L11.4245026,26.049267 L10.5119372,28.5929843 L9.59858639,26.049267 L9.56089005,25.9456021 L9.45094241,25.9456021 L8.95617801,25.9456021 L8.73078534,25.9456021 L8.80931937,26.1568586 L10.1703141,29.8393194 L10.2080105,29.942199 L10.3179581,29.942199 L10.7059162,29.942199 L10.8150785,29.942199 L10.8527749,29.8393194 L12.2137696,26.1568586 L12.2923037,25.9456021 Z M12.066911,26.1026702 L10.7059162,29.7851309 L10.3179581,29.7851309 L8.95617801,26.1026702 L9.45094241,26.1026702 L10.5064398,29.0437696 L10.5166492,29.0437696 L11.5729319,26.1026702 L12.066911,26.1026702 Z" id="Fill-15" fill-opacity="0.85" fill="#000000" mask="url(#mask-4)"></path>
                <polygon id="Fill-16" fill-opacity="0.85" fill="#000000" mask="url(#mask-4)" points="12.6961257 29.8635864 12.6961257 26.0240576 14.7560733 26.0240576 14.7560733 26.6169895 13.3181152 26.6169895 13.3181152 27.6285079 14.7560733 27.6285079 14.7560733 28.2206545 13.3181152 28.2206545 13.3181152 29.2706545 14.7560733 29.2706545 14.7560733 29.8635864"></polygon>
                <path d="M14.8350785,25.9456021 L14.6780105,25.9456021 L12.7743455,25.9456021 L12.6172775,25.9456021 L12.6172775,26.1026702 L12.6172775,29.7851309 L12.6172775,29.942199 L12.7743455,29.942199 L14.6780105,29.942199 L14.8350785,29.942199 L14.8350785,29.7851309 L14.8350785,29.3484817 L14.8350785,29.1914136 L14.6780105,29.1914136 L13.3971204,29.1914136 L13.3971204,28.299267 L14.6780105,28.299267 L14.8350785,28.299267 L14.8350785,28.142199 L14.8350785,27.7071204 L14.8350785,27.5500524 L14.6780105,27.5500524 L13.3971204,27.5500524 L13.3971204,26.6956021 L14.6780105,26.6956021 L14.8350785,26.6956021 L14.8350785,26.538534 L14.8350785,26.1026702 L14.8350785,25.9456021 Z M14.6780105,26.1026702 L14.6780105,26.538534 L13.2400524,26.538534 L13.2400524,27.7071204 L14.6780105,27.7071204 L14.6780105,28.142199 L13.2400524,28.142199 L13.2400524,29.3484817 L14.6780105,29.3484817 L14.6780105,29.7851309 L12.7743455,29.7851309 L12.7743455,26.1026702 L14.6780105,26.1026702 Z" id="Fill-17" fill-opacity="0.85" fill="#000000" mask="url(#mask-4)"></path>
                <path d="M16.3996335,27.8557853 C16.9839267,27.8557853 17.2807853,27.6429581 17.2807853,27.2220157 C17.2807853,26.8317016 17.0114136,26.5890314 16.5786911,26.5890314 L16.0713613,26.5890314 L16.0713613,27.855 C16.1239791,27.8557853 16.382356,27.8557853 16.3996335,27.8557853 L16.3996335,27.8557853 Z M17.4849738,29.8639005 L16.0713613,28.4086649 L16.0713613,29.8639005 L15.4493717,29.8639005 L15.4493717,26.0235864 L16.5881152,26.0235864 C17.3742408,26.0235864 17.9019895,26.5034293 17.9019895,27.2173037 C17.9019895,27.8188743 17.4873298,28.2767277 16.8739791,28.3780366 L18.325288,29.8639005 L17.4849738,29.8639005 Z" id="Fill-18" fill-opacity="0.85" fill="#000000" mask="url(#mask-4)"></path>
                <path d="M16.1501309,26.6672513 L16.5789267,26.6672513 C16.9692408,26.6672513 17.2024869,26.8745812 17.2024869,27.2217016 C17.2024869,27.3591361 17.2024869,27.7777225 16.3998691,27.7777225 L16.3103403,27.7777225 C16.2420157,27.7777225 16.1901832,27.7769372 16.1501309,27.7769372 L16.1501309,26.6672513 Z M16.5883508,25.9455236 L15.527356,25.9455236 L15.370288,25.9455236 L15.370288,26.1025916 L15.370288,29.7850524 L15.370288,29.9421204 L15.527356,29.9421204 L15.9930628,29.9421204 L16.1501309,29.9421204 L16.1501309,29.7850524 L16.1501309,28.6078272 L17.3713351,29.8934293 L17.4176702,29.9421204 L17.4852094,29.9421204 L18.1386126,29.9421204 L18.5116492,29.9421204 L18.2509162,29.6751047 L17.029712,28.4248429 C17.6030105,28.2740576 17.9807592,27.8107068 17.9807592,27.2169895 C17.9807592,26.4567801 17.4215969,25.9455236 16.5883508,25.9455236 L16.5883508,25.9455236 Z M16.3998691,27.9347906 C17.1121728,27.9347906 17.359555,27.6245812 17.359555,27.2217016 C17.359555,26.7905497 17.0626963,26.5101832 16.5789267,26.5101832 L15.9930628,26.5101832 L15.9930628,27.9292932 C16.0558901,27.9347906 16.122644,27.9347906 16.3998691,27.9347906 L16.3998691,27.9347906 Z M16.5883508,26.1025916 C17.2959424,26.1025916 17.8236911,26.5101832 17.8236911,27.2169895 C17.8236911,27.8766754 17.3053665,28.2826963 16.7045812,28.3172513 L18.1386126,29.7850524 L17.4852094,29.7850524 L15.9930628,28.2151571 L15.9930628,29.7850524 L15.527356,29.7850524 L15.527356,26.1025916 L16.5883508,26.1025916 Z" id="Fill-19" fill-opacity="0.85" fill="#000000" mask="url(#mask-4)"></path>
                <path d="M19.848534,29.9215445 C19.093822,29.9215445 18.6273298,29.4982461 18.5692147,28.7600262 L18.5621466,28.6752094 L19.1833508,28.6752094 L19.1904188,28.7458901 C19.2312565,29.1636911 19.4480105,29.3576702 19.8728796,29.3576702 C20.2231414,29.3576702 20.4870157,29.1417016 20.4870157,28.8550524 C20.4870157,28.6375131 20.3165969,28.4655236 19.9655497,28.3273037 L19.4967016,28.143534 C18.911623,27.9157853 18.6273298,27.5623822 18.6273298,27.0621204 C18.6273298,26.3427487 19.2375393,25.9657853 19.8391099,25.9657853 C20.5380628,25.9657853 21.004555,26.419712 21.0556021,27.1485079 L21.0618848,27.2325393 L20.4728796,27.2325393 L20.4634555,27.165 C20.404555,26.7558377 20.1815183,26.5312304 19.8343979,26.5312304 C19.2909424,26.5312304 19.248534,26.9262565 19.248534,27.047199 C19.248534,27.2796597 19.3946073,27.4335864 19.7362304,27.5608115 L20.2003665,27.7351571 C20.8035079,27.9581937 21.1082199,28.3218063 21.1082199,28.8165707 C21.1082199,29.4668325 20.5906806,29.9215445 19.848534,29.9215445" id="Fill-20" fill-opacity="0.85" fill="#000000" mask="url(#mask-4)"></path>
                <path d="M19.8395026,25.8875654 C19.0918586,25.8875654 18.5484031,26.3815445 18.5484031,27.0624346 C18.5484031,27.5980366 18.8491885,27.9757853 19.4672513,28.2168848 L19.9368848,28.4006545 C20.3601832,28.5663613 20.4088743,28.7391361 20.4088743,28.8545812 C20.4088743,29.096466 20.1787696,29.2794503 19.8732723,29.2794503 C19.4860995,29.2794503 19.3054712,29.1176702 19.2685602,28.7383508 L19.2544241,28.5962042 L19.1122775,28.5962042 L18.647356,28.5962042 L18.4777225,28.5962042 L18.4910733,28.7658377 C18.5523298,29.5386126 19.0596597,29.9996073 19.8481414,29.9996073 C20.636623,29.9996073 21.1879319,29.5134817 21.1879319,28.8160995 C21.1879319,28.2859948 20.8643717,27.8972513 20.2274607,27.6608639 L19.7641099,27.4873037 C19.3800785,27.3435864 19.3274607,27.1912304 19.3274607,27.0475131 C19.3274607,26.9155759 19.3769372,26.6092932 19.8347906,26.6092932 C20.2431675,26.6092932 20.3554712,26.964267 20.3860995,27.1763089 L20.4049476,27.3106021 L20.5415969,27.3106021 L20.9774607,27.3106021 L21.1463089,27.3106021 L21.1337435,27.1425393 C21.0787696,26.3681937 20.5824346,25.8875654 19.8395026,25.8875654 M19.8395026,26.0446335 C20.449712,26.0446335 20.9240576,26.4074607 20.9774607,27.153534 L20.5415969,27.153534 C20.4779843,26.7176702 20.2266754,26.4522251 19.8347906,26.4522251 C19.3109686,26.4522251 19.1703927,26.7954188 19.1703927,27.0475131 C19.1703927,27.3239529 19.3455236,27.4982984 19.7083508,27.6341623 L20.1732723,27.8085079 C20.7599215,28.0260471 21.0308639,28.3708115 21.0308639,28.8160995 C21.0308639,29.4121728 20.555733,29.8425393 19.8481414,29.8425393 C19.1798168,29.8425393 18.7054712,29.4899215 18.647356,28.7532723 L19.1122775,28.7532723 C19.1515445,29.1545812 19.3541623,29.4365183 19.8732723,29.4365183 C20.2753665,29.4365183 20.5659424,29.179712 20.5659424,28.8545812 C20.5659424,28.5695026 20.3287696,28.3849476 19.9942147,28.2545812 L19.5245812,28.0700262 C18.9764136,27.8564136 18.7054712,27.5367801 18.7054712,27.0624346 C18.7054712,26.4278796 19.2332199,26.0446335 19.8395026,26.0446335" id="Fill-21" fill-opacity="0.85" fill="#000000" mask="url(#mask-4)"></path>
                <path d="M23.8434817,28.4413351 L23.2599738,26.931911 L22.676466,28.4413351 L23.8434817,28.4413351 Z M24.3979319,29.8635864 L24.063377,29.0059948 L22.4557853,29.0059948 L22.1220157,29.8635864 L21.4434817,29.8635864 L23.0031675,26.0240576 L23.5167801,26.0240576 L25.0772513,29.8635864 L24.3979319,29.8635864 Z" id="Fill-22" fill-opacity="0.85" fill="#000000" mask="url(#mask-4)"></path>
                <path d="M22.7911257,28.3630366 L23.2599738,27.1496859 L23.728822,28.3630366 L22.7911257,28.3630366 Z M23.5693979,25.9457592 L23.463377,25.9457592 L23.0557853,25.9457592 L22.9505497,25.9457592 L22.9104974,26.0439267 L21.4144241,29.7256021 L21.326466,29.9415707 L21.559712,29.9415707 L22.0678272,29.9415707 L22.1754188,29.9415707 L22.2146859,29.8418325 L22.5099738,29.0847644 L24.0099738,29.0847644 L24.3052618,29.8418325 L24.3445288,29.9415707 L24.4521204,29.9415707 L24.9610209,29.9415707 L25.194267,29.9415707 L25.1063089,29.7256021 L23.6094503,26.0439267 L23.5693979,25.9457592 Z M22.5618063,28.5201047 L23.957356,28.5201047 L23.2599738,26.713822 L22.5618063,28.5201047 L22.5618063,28.5201047 Z M23.463377,26.1028272 L24.9610209,29.785288 L24.4521204,29.785288 L24.1175654,28.9276963 L22.4023822,28.9276963 L22.0678272,29.785288 L21.559712,29.785288 L23.0557853,26.1028272 L23.463377,26.1028272 Z" id="Fill-23" fill-opacity="0.85" fill="#000000" mask="url(#mask-4)"></path>
                <polygon id="Fill-24" fill-opacity="0.85" fill="#000000" mask="url(#mask-4)" points="25.5790838 29.8635864 25.5790838 26.0240576 26.2010733 26.0240576 26.2010733 29.2706545 27.4945288 29.2706545 27.4945288 29.8635864"></polygon>
                <path d="M26.2801571,25.9456021 L26.123089,25.9456021 L25.6573822,25.9456021 L25.5003141,25.9456021 L25.5003141,26.1026702 L25.5003141,29.7851309 L25.5003141,29.942199 L25.6573822,29.942199 L27.4165445,29.942199 L27.5736126,29.942199 L27.5736126,29.7851309 L27.5736126,29.3484817 L27.5736126,29.1914136 L27.4165445,29.1914136 L26.2801571,29.1914136 L26.2801571,26.1026702 L26.2801571,25.9456021 Z M26.123089,26.1026702 L26.123089,29.3484817 L27.4165445,29.3484817 L27.4165445,29.7851309 L25.6573822,29.7851309 L25.6573822,26.1026702 L26.123089,26.1026702 Z" id="Fill-25" fill-opacity="0.85" fill="#000000" mask="url(#mask-4)"></path>
                <polygon id="Fill-26" fill-opacity="0.85" fill="#000000" mask="url(#mask-4)" points="29.5609948 29.8635864 29.5609948 26.0240576 31.6209424 26.0240576 31.6209424 26.6169895 30.1829843 26.6169895 30.1829843 27.6285079 31.6209424 27.6285079 31.6209424 28.2206545 30.1829843 28.2206545 30.1829843 29.2706545 31.6209424 29.2706545 31.6209424 29.8635864"></polygon>
                <path d="M31.699555,25.9456021 L31.5424869,25.9456021 L29.638822,25.9456021 L29.4817539,25.9456021 L29.4817539,26.1026702 L29.4817539,29.7851309 L29.4817539,29.942199 L29.638822,29.942199 L31.5424869,29.942199 L31.699555,29.942199 L31.699555,29.7851309 L31.699555,29.3484817 L31.699555,29.1914136 L31.5424869,29.1914136 L30.2615969,29.1914136 L30.2615969,28.299267 L31.5424869,28.299267 L31.699555,28.299267 L31.699555,28.142199 L31.699555,27.7071204 L31.699555,27.5500524 L31.5424869,27.5500524 L30.2615969,27.5500524 L30.2615969,26.6956021 L31.5424869,26.6956021 L31.699555,26.6956021 L31.699555,26.538534 L31.699555,26.1026702 L31.699555,25.9456021 Z M31.5424869,26.1026702 L31.5424869,26.538534 L30.1045288,26.538534 L30.1045288,27.7071204 L31.5424869,27.7071204 L31.5424869,28.142199 L30.1045288,28.142199 L30.1045288,29.3484817 L31.5424869,29.3484817 L31.5424869,29.7851309 L29.638822,29.7851309 L29.638822,26.1026702 L31.5424869,26.1026702 Z" id="Fill-27" fill-opacity="0.85" fill="#000000" mask="url(#mask-4)"></path>
                <path d="M33.4232984,29.9215445 C32.6685864,29.9215445 32.2020942,29.4974607 32.1447644,28.7600262 L32.1376963,28.6752094 L32.7581152,28.6752094 L32.7651832,28.7458901 C32.8068063,29.1636911 33.0235602,29.3576702 33.447644,29.3576702 C33.7986911,29.3576702 34.0625654,29.1417016 34.0625654,28.8550524 C34.0625654,28.6375131 33.8921466,28.4647382 33.5403141,28.3273037 L33.071466,28.143534 C32.4863874,27.9157853 32.2020942,27.5623822 32.2020942,27.0621204 C32.2020942,26.4267801 32.7125654,25.9657853 33.4146597,25.9657853 C34.1128272,25.9657853 34.5793194,26.419712 34.6303665,27.1485079 L34.6366492,27.2325393 L34.0484293,27.2325393 L34.0390052,27.165 C33.9801047,26.7558377 33.7562827,26.5312304 33.4091623,26.5312304 C32.8657068,26.5312304 32.8232984,26.9262565 32.8232984,27.047199 C32.8232984,27.2796597 32.9693717,27.4335864 33.3109948,27.5608115 L33.7759162,27.7351571 C34.3790576,27.9581937 34.6837696,28.3218063 34.6837696,28.8165707 C34.6837696,29.4668325 34.165445,29.9215445 33.4232984,29.9215445" id="Fill-28" fill-opacity="0.85" fill="#000000" mask="url(#mask-4)"></path>
                <path d="M33.4145812,25.8875654 C32.6669372,25.8875654 32.1234817,26.3815445 32.1234817,27.0624346 C32.1234817,27.5980366 32.424267,27.9757853 33.0423298,28.2168848 L33.5119634,28.4006545 C33.9352618,28.5663613 33.9839529,28.7391361 33.9839529,28.8545812 C33.9839529,29.096466 33.7538482,29.2794503 33.4483508,29.2794503 C33.061178,29.2794503 32.8805497,29.1176702 32.8436387,28.7383508 L32.8295026,28.5962042 L32.687356,28.5962042 L32.2224346,28.5962042 L32.052801,28.5962042 L32.0661518,28.7658377 C32.1274084,29.5386126 32.6347382,29.9996073 33.4232199,29.9996073 C34.2117016,29.9996073 34.7630105,29.5134817 34.7630105,28.8160995 C34.7630105,28.2859948 34.4394503,27.8972513 33.8025393,27.6608639 L33.3391885,27.4873037 C32.9551571,27.3435864 32.9025393,27.1912304 32.9025393,27.0475131 C32.9025393,26.8841623 32.9685079,26.6092932 33.4098691,26.6092932 C33.8182461,26.6092932 33.9305497,26.964267 33.961178,27.1763089 L33.9800262,27.3106021 L34.1166754,27.3106021 L34.5525393,27.3106021 L34.7213874,27.3106021 L34.708822,27.1425393 C34.6538482,26.3681937 34.1575131,25.8875654 33.4145812,25.8875654 M33.4145812,26.0446335 C34.0247906,26.0446335 34.4991361,26.4074607 34.5525393,27.153534 L34.1166754,27.153534 C34.0530628,26.7176702 33.8017539,26.4522251 33.4098691,26.4522251 C32.8860471,26.4522251 32.7454712,26.7954188 32.7454712,27.0475131 C32.7454712,27.3239529 32.9206021,27.4982984 33.2834293,27.6341623 L33.7483508,27.8085079 C34.335,28.0260471 34.6059424,28.3708115 34.6059424,28.8160995 C34.6059424,29.4121728 34.1308115,29.8425393 33.4232199,29.8425393 C32.7548953,29.8425393 32.2805497,29.4899215 32.2224346,28.7532723 L32.687356,28.7532723 C32.726623,29.1545812 32.9292408,29.4365183 33.4483508,29.4365183 C33.850445,29.4365183 34.1410209,29.179712 34.1410209,28.8545812 C34.1410209,28.5695026 33.9038482,28.3849476 33.5692932,28.2545812 L33.0996597,28.0700262 C32.5514921,27.8564136 32.2805497,27.5367801 32.2805497,27.0624346 C32.2805497,26.4278796 32.8082984,26.0446335 33.4145812,26.0446335" id="Fill-29" fill-opacity="0.85" fill="#000000" mask="url(#mask-4)"></path>
                <path d="M37.2663613,29.9215445 C35.9956806,29.9215445 35.2362565,28.9163089 35.2362565,27.9440576 C35.2362565,26.9718063 35.9956806,25.9657853 37.2663613,25.9657853 C37.7674084,25.9657853 38.2079843,26.1354188 38.6155759,26.4841099 L38.6744764,26.5351571 L38.2755236,27.0071466 L38.2150524,26.9506021 C37.953534,26.7055759 37.5993455,26.5595026 37.2663613,26.5595026 C36.5053665,26.5595026 35.8865183,27.1807068 35.8865183,27.9440576 C35.8865183,28.7992932 36.6027487,29.3286126 37.2663613,29.3286126 C37.9079843,29.3286126 38.4341623,28.9068848 38.6006545,28.2699738 L37.2757853,28.2699738 L37.2757853,27.6770419 L39.2870419,27.6770419 L39.2870419,27.7555759 C39.2870419,29.1770419 38.2708115,29.9215445 37.2663613,29.9215445" id="Fill-30" fill-opacity="0.85" fill="#000000" mask="url(#mask-4)"></path>
                <path d="M37.2660471,25.8875654 C35.9458901,25.8875654 35.1574084,26.9336387 35.1574084,27.9443717 C35.1574084,28.9551047 35.9458901,29.9996073 37.2660471,29.9996073 C38.3097644,29.9996073 39.3660471,29.2291885 39.3660471,27.7551047 L39.3660471,27.5980366 L39.2089791,27.5980366 L37.3540052,27.5980366 L37.1969372,27.5980366 L37.1969372,27.7551047 L37.1969372,28.1909686 L37.1969372,28.3480366 L37.3540052,28.3480366 L38.4958901,28.3480366 C38.3121204,28.8946335 37.8377749,29.2496073 37.2660471,29.2496073 C36.6409162,29.2496073 35.9655236,28.7509162 35.9655236,27.9443717 C35.9655236,27.2242147 36.5490314,26.6375654 37.2660471,26.6375654 C37.5793979,26.6375654 37.9147382,26.7757853 38.1613351,27.0074607 L38.2822775,27.1205497 L38.3890838,26.9941099 L38.6843717,26.6454188 L38.7848953,26.5260471 L38.6663089,26.4239529 C38.2445812,26.0634817 37.7859424,25.8875654 37.2660471,25.8875654 M37.2660471,26.0446335 C37.697199,26.0446335 38.1283508,26.170288 38.5642147,26.5433246 L38.2689267,26.892801 C37.9736387,26.6163613 37.591178,26.4804974 37.2660471,26.4804974 C36.4964136,26.4804974 35.8084555,27.0962042 35.8084555,27.9443717 C35.8084555,28.8019634 36.5152618,29.4066754 37.2660471,29.4066754 C37.9296597,29.4066754 38.5453665,28.9613874 38.7000785,28.1909686 L37.3540052,28.1909686 L37.3540052,27.7551047 L39.2089791,27.7551047 C39.2089791,29.0768325 38.2987696,29.8425393 37.2660471,29.8425393 C36.0157853,29.8425393 35.3144764,28.8545812 35.3144764,27.9443717 C35.3144764,27.0325916 36.0157853,26.0446335 37.2660471,26.0446335" id="Fill-31" fill-opacity="0.85" fill="#000000" mask="url(#mask-4)"></path>
                <path d="M42.566623,29.9215445 C41.811911,29.9215445 41.3454188,29.4982461 41.2873037,28.7600262 L41.2802356,28.6752094 L41.9014398,28.6752094 L41.9085079,28.7458901 C41.9493455,29.1636911 42.1660995,29.3576702 42.5909686,29.3576702 C42.9412304,29.3576702 43.2051047,29.1417016 43.2051047,28.8550524 C43.2051047,28.6375131 43.0346859,28.4655236 42.6836387,28.3273037 L42.2140052,28.143534 C41.629712,27.915 41.3454188,27.5615969 41.3454188,27.0621204 C41.3454188,26.4267801 41.8551047,25.9657853 42.557199,25.9657853 C43.2663613,25.9657853 43.7210733,26.4079319 43.7736911,27.1485079 L43.7799738,27.2325393 L43.1909686,27.2325393 L43.1815445,27.165 C43.1234293,26.7621204 42.8941099,26.5312304 42.5524869,26.5312304 C42.0090314,26.5312304 41.9658377,26.9262565 41.9658377,27.047199 C41.9658377,27.2796597 42.111911,27.432801 42.453534,27.5608115 L42.9184555,27.7351571 C43.5215969,27.9581937 43.8263089,28.3218063 43.8263089,28.8165707 C43.8263089,29.4668325 43.3087696,29.9215445 42.566623,29.9215445" id="Fill-32" fill-opacity="0.85" fill="#000000" mask="url(#mask-4)"></path>
                <path d="M42.5575131,25.8875654 C41.8098691,25.8875654 41.2664136,26.3815445 41.2664136,27.0624346 C41.2664136,27.5980366 41.567199,27.9757853 42.1852618,28.2168848 L42.6548953,28.4006545 C43.0781937,28.5663613 43.1268848,28.7391361 43.1268848,28.8545812 C43.1268848,29.096466 42.8967801,29.2794503 42.5912827,29.2794503 C42.2041099,29.2794503 42.0234817,29.1176702 41.9865707,28.7383508 L41.9724346,28.5962042 L41.830288,28.5962042 L41.3653665,28.5962042 L41.195733,28.5962042 L41.2090838,28.7658377 C41.2703403,29.5386126 41.7776702,29.9996073 42.5661518,29.9996073 C43.3546335,29.9996073 43.9051571,29.5134817 43.9051571,28.8160995 C43.9051571,28.2859948 43.5823822,27.8972513 42.9454712,27.6608639 L42.4821204,27.4873037 C42.098089,27.3435864 42.0454712,27.1912304 42.0454712,27.0475131 C42.0454712,26.9155759 42.0949476,26.6092932 42.552801,26.6092932 C42.961178,26.6092932 43.0734817,26.964267 43.1041099,27.1763089 L43.1229581,27.3106021 L43.2596073,27.3106021 L43.6954712,27.3106021 L43.8643194,27.3106021 L43.8517539,27.1425393 C43.7967801,26.3681937 43.300445,25.8875654 42.5575131,25.8875654 M42.5575131,26.0446335 C43.1677225,26.0446335 43.6420681,26.4074607 43.6954712,27.153534 L43.2596073,27.153534 C43.1959948,26.7176702 42.9446859,26.4522251 42.552801,26.4522251 C42.0289791,26.4522251 41.8884031,26.7954188 41.8884031,27.0475131 C41.8884031,27.3239529 42.063534,27.4982984 42.4263613,27.6341623 L42.8912827,27.8085079 C43.4779319,28.0260471 43.748089,28.3708115 43.748089,28.8160995 C43.748089,29.4121728 43.2737435,29.8425393 42.5661518,29.8425393 C41.8978272,29.8425393 41.4234817,29.4899215 41.3653665,28.7532723 L41.830288,28.7532723 C41.869555,29.1545812 42.0721728,29.4365183 42.5912827,29.4365183 C42.993377,29.4365183 43.2839529,29.179712 43.2839529,28.8545812 C43.2839529,28.5695026 43.0467801,28.3849476 42.7122251,28.2545812 L42.2425916,28.0700262 C41.6944241,27.8564136 41.4234817,27.5367801 41.4234817,27.0624346 C41.4234817,26.4278796 41.9512304,26.0446335 42.5575131,26.0446335" id="Fill-33" fill-opacity="0.85" fill="#000000" mask="url(#mask-4)"></path>
                <polygon id="Fill-34" fill-opacity="0.85" fill="#000000" mask="url(#mask-4)" points="45.1297382 29.8635864 45.1297382 26.6169895 44.208534 26.6169895 44.208534 26.0240576 46.6713613 26.0240576 46.6713613 26.6169895 45.7509424 26.6169895 45.7509424 29.8635864"></polygon>
                <path d="M46.7500524,25.9456021 L46.5929843,25.9456021 L44.2864398,25.9456021 L44.1293717,25.9456021 L44.1293717,26.1026702 L44.1293717,26.538534 L44.1293717,26.6956021 L44.2864398,26.6956021 L45.0513613,26.6956021 L45.0513613,29.7851309 L45.0513613,29.942199 L45.2084293,29.942199 L45.6725654,29.942199 L45.8296335,29.942199 L45.8296335,29.7851309 L45.8296335,26.6956021 L46.5929843,26.6956021 L46.7500524,26.6956021 L46.7500524,26.538534 L46.7500524,26.1026702 L46.7500524,25.9456021 Z M46.5929843,26.1026702 L46.5929843,26.538534 L45.6725654,26.538534 L45.6725654,29.7851309 L45.2084293,29.7851309 L45.2084293,26.538534 L44.2864398,26.538534 L44.2864398,26.1026702 L46.5929843,26.1026702 Z" id="Fill-35" fill-opacity="0.85" fill="#000000" mask="url(#mask-4)"></path>
                <path d="M48.8647382,28.4413351 L48.2812304,26.931911 L47.6977225,28.4413351 L48.8647382,28.4413351 Z M49.4191885,29.8635864 L49.0846335,29.0059948 L47.4770419,29.0059948 L47.1432723,29.8635864 L46.4647382,29.8635864 L48.0244241,26.0240576 L48.5380366,26.0240576 L50.0985079,29.8635864 L49.4191885,29.8635864 Z" id="Fill-36" fill-opacity="0.85" fill="#000000" mask="url(#mask-4)"></path>
                <path d="M47.8122251,28.3630366 L48.2810733,27.1496859 L48.7499215,28.3630366 L47.8122251,28.3630366 Z M48.5904974,25.9457592 L48.4844764,25.9457592 L48.0768848,25.9457592 L47.9716492,25.9457592 L47.9315969,26.0439267 L46.4355236,29.7256021 L46.3475654,29.9415707 L46.5808115,29.9415707 L47.0889267,29.9415707 L47.1965183,29.9415707 L47.2357853,29.8418325 L47.5310733,29.0847644 L49.0310733,29.0847644 L49.3263613,29.8418325 L49.3656283,29.9415707 L49.4732199,29.9415707 L49.9821204,29.9415707 L50.2153665,29.9415707 L50.1274084,29.7256021 L48.6305497,26.0439267 L48.5904974,25.9457592 Z M47.5829058,28.5201047 L48.9792408,28.5201047 L48.2810733,26.713822 L47.5829058,28.5201047 L47.5829058,28.5201047 Z M48.4844764,26.1028272 L49.9821204,29.785288 L49.4732199,29.785288 L49.1386649,28.9276963 L47.4234817,28.9276963 L47.0889267,29.785288 L46.5808115,29.785288 L48.0768848,26.1028272 L48.4844764,26.1028272 Z" id="Fill-37" fill-opacity="0.85" fill="#000000" mask="url(#mask-4)"></path>
                <polygon id="Fill-38" fill-opacity="0.85" fill="#000000" mask="url(#mask-4)" points="53.110445 29.8635864 51.2028534 27.1698691 51.2028534 29.8635864 50.5808639 29.8635864 50.5808639 26.0240576 51.0952618 26.0240576 53.0028534 28.7185602 53.0028534 26.0240576 53.6248429 26.0240576 53.6248429 29.8635864"></polygon>
                <path d="M53.7040052,25.9456021 L53.5469372,25.9456021 L53.0812304,25.9456021 L52.9241623,25.9456021 L52.9241623,26.1026702 L52.9241623,28.4634031 L51.2239005,26.0131414 L51.1775654,25.9456021 L51.0951047,25.9456021 L50.6592408,25.9456021 L50.5021728,25.9456021 L50.5021728,26.1026702 L50.5021728,29.7851309 L50.5021728,29.942199 L50.6592408,29.942199 L51.1249476,29.942199 L51.2820157,29.942199 L51.2820157,29.7851309 L51.2820157,27.4243979 L52.9814921,29.8746597 L53.0286126,29.942199 L53.1110733,29.942199 L53.5469372,29.942199 L53.7040052,29.942199 L53.7040052,29.7851309 L53.7040052,26.1026702 L53.7040052,25.9456021 Z M53.5469372,26.1026702 L53.5469372,29.7851309 L53.1110733,29.7851309 L51.1343717,26.9367016 L51.1249476,26.9367016 L51.1249476,29.7851309 L50.6592408,29.7851309 L50.6592408,26.1026702 L51.0951047,26.1026702 L53.0718063,28.9510995 L53.0812304,28.9510995 L53.0812304,26.1026702 L53.5469372,26.1026702 Z" id="Fill-39" fill-opacity="0.85" fill="#000000" mask="url(#mask-4)"></path>
                <path d="M55.5899215,29.2704188 C56.3532723,29.2704188 56.9077225,28.6963351 56.9077225,27.904712 C56.9077225,27.1712042 56.325,26.6175393 55.5514398,26.6175393 L55.0448953,26.6175393 L55.0448953,29.2704188 L55.5899215,29.2704188 Z M54.4229058,29.8633508 L54.4229058,26.023822 L55.7116492,26.023822 C56.6037958,26.023822 57.5579843,26.7895288 57.5579843,27.9290576 C57.5579843,29.0136126 56.6956806,29.8633508 55.5954188,29.8633508 L54.4229058,29.8633508 Z" id="Fill-40" fill-opacity="0.85" fill="#000000" mask="url(#mask-4)"></path>
                <path d="M55.1232723,26.6958377 L55.5520681,26.6958377 C56.2800785,26.6958377 56.8290314,27.215733 56.8290314,27.9052618 C56.8290314,28.6505497 56.3075654,29.1916492 55.5905497,29.1916492 L55.1232723,29.1916492 L55.1232723,26.6958377 Z M55.7122775,25.9458377 L54.5004974,25.9458377 L54.3434293,25.9458377 L54.3434293,26.1029058 L54.3434293,29.7845812 L54.3434293,29.9416492 L54.5004974,29.9416492 L55.5952618,29.9416492 C56.740288,29.9416492 57.6371466,29.0581414 57.6371466,27.9296073 C57.6371466,26.7429581 56.6421204,25.9458377 55.7122775,25.9458377 L55.7122775,25.9458377 Z M54.9662042,29.3487173 L55.5905497,29.3487173 C56.4143717,29.3487173 56.9860995,28.7188743 56.9860995,27.9052618 C56.9860995,27.1207068 56.3562565,26.5387696 55.5520681,26.5387696 L54.9662042,26.5387696 L54.9662042,29.3487173 L54.9662042,29.3487173 Z M55.7122775,26.1029058 C56.6130628,26.1029058 57.4800785,26.8733246 57.4800785,27.9296073 C57.4800785,28.9803927 56.6421204,29.7845812 55.5952618,29.7845812 L54.5004974,29.7845812 L54.5004974,26.1029058 L55.7122775,26.1029058 Z" id="Fill-41" fill-opacity="0.85" fill="#000000" mask="url(#mask-4)"></path>
                <path d="M60.2475393,28.4413351 L59.6640314,26.931911 L59.0805236,28.4413351 L60.2475393,28.4413351 Z M60.8019895,29.8635864 L60.4674346,29.0059948 L58.8598429,29.0059948 L58.5260733,29.8635864 L57.8475393,29.8635864 L59.4080105,26.0240576 L59.9208377,26.0240576 L61.4813089,29.8635864 L60.8019895,29.8635864 Z" id="Fill-42" fill-opacity="0.85" fill="#000000" mask="url(#mask-4)"></path>
                <path d="M59.1953403,28.3630366 L59.6641885,27.1496859 L60.1330366,28.3630366 L59.1953403,28.3630366 Z M59.9736126,25.9457592 L59.8675916,25.9457592 L59.4607853,25.9457592 L59.3547644,25.9457592 L59.314712,26.0439267 L57.8186387,29.7256021 L57.7306806,29.9415707 L57.9639267,29.9415707 L58.4720419,29.9415707 L58.5796335,29.9415707 L58.6189005,29.8418325 L58.9141885,29.0847644 L60.4141885,29.0847644 L60.7094764,29.8418325 L60.7487435,29.9415707 L60.8563351,29.9415707 L61.3652356,29.9415707 L61.5984817,29.9415707 L61.5105236,29.7256021 L60.0136649,26.0439267 L59.9736126,25.9457592 Z M58.9660209,28.5201047 L60.362356,28.5201047 L59.6641885,26.713822 L58.9660209,28.5201047 L58.9660209,28.5201047 Z M59.8675916,26.1028272 L61.3652356,29.785288 L60.8563351,29.785288 L60.5217801,28.9276963 L58.8065969,28.9276963 L58.4720419,29.785288 L57.9639267,29.785288 L59.4607853,26.1028272 L59.8675916,26.1028272 Z" id="Fill-43" fill-opacity="0.85" fill="#000000" mask="url(#mask-4)"></path>
                <path d="M62.9341099,27.8557853 C63.5184031,27.8557853 63.8152618,27.6429581 63.8152618,27.2220157 C63.8152618,26.8317016 63.5458901,26.5890314 63.1131675,26.5890314 L62.6058377,26.5890314 L62.6058377,27.855 C62.6584555,27.8557853 62.9168325,27.8557853 62.9341099,27.8557853 L62.9341099,27.8557853 Z M64.0194503,29.8639005 L62.6058377,28.4086649 L62.6058377,29.8639005 L61.9838482,29.8639005 L61.9838482,26.0235864 L63.1225916,26.0235864 C63.9087173,26.0235864 64.436466,26.5034293 64.436466,27.2173037 C64.436466,27.8188743 64.0218063,28.2767277 63.4084555,28.3780366 L64.8589791,29.8639005 L64.0194503,29.8639005 Z" id="Fill-44" fill-opacity="0.85" fill="#000000" mask="url(#mask-4)"></path>
                <path d="M62.6844503,26.6672513 L63.1132461,26.6672513 C63.5035602,26.6672513 63.7368063,26.8745812 63.7368063,27.2217016 C63.7368063,27.3591361 63.7368063,27.7777225 62.9341885,27.7777225 L62.8446597,27.7777225 C62.7763351,27.7777225 62.7245026,27.7769372 62.6844503,27.7769372 L62.6844503,26.6672513 Z M63.1226702,25.9455236 L62.0616754,25.9455236 L61.9046073,25.9455236 L61.9046073,26.1025916 L61.9046073,29.7850524 L61.9046073,29.9421204 L62.0616754,29.9421204 L62.5273822,29.9421204 L62.6844503,29.9421204 L62.6844503,29.7850524 L62.6844503,28.6078272 L63.9056545,29.8934293 L63.9519895,29.9421204 L64.0195288,29.9421204 L64.6729319,29.9421204 L65.0459686,29.9421204 L64.7852356,29.6751047 L63.5640314,28.4248429 C64.1373298,28.2740576 64.5150785,27.8107068 64.5150785,27.2169895 C64.5150785,26.4567801 63.9559162,25.9455236 63.1226702,25.9455236 L63.1226702,25.9455236 Z M62.9341885,27.9347906 C63.6464921,27.9347906 63.8938743,27.6245812 63.8938743,27.2217016 C63.8938743,26.7905497 63.5970157,26.5101832 63.1132461,26.5101832 L62.5273822,26.5101832 L62.5273822,27.9292932 C62.5902094,27.9347906 62.6569634,27.9347906 62.9341885,27.9347906 L62.9341885,27.9347906 Z M63.1226702,26.1025916 C63.8302618,26.1025916 64.3580105,26.5101832 64.3580105,27.2169895 C64.3580105,27.8766754 63.8396859,28.2826963 63.2389005,28.3172513 L64.6729319,29.7850524 L64.0195288,29.7850524 L62.5273822,28.2151571 L62.5273822,29.7850524 L62.0616754,29.7850524 L62.0616754,26.1025916 L63.1226702,26.1025916 Z" id="Fill-45" fill-opacity="0.85" fill="#000000" mask="url(#mask-4)"></path>
                <path d="M66.4420681,29.2704188 C67.2054188,29.2704188 67.7590838,28.6963351 67.7590838,27.904712 C67.7590838,27.1712042 67.1763613,26.6175393 66.4035864,26.6175393 L65.8962565,26.6175393 L65.8962565,29.2704188 L66.4420681,29.2704188 Z M65.274267,29.8633508 L65.274267,26.023822 L66.5637958,26.023822 C67.4559424,26.023822 68.4101309,26.7895288 68.4101309,27.9290576 C68.4101309,29.0136126 67.5478272,29.8633508 66.4467801,29.8633508 L65.274267,29.8633508 Z" id="Fill-46" fill-opacity="0.85" fill="#000000" mask="url(#mask-4)"></path>
                <path d="M65.9748691,26.6958377 L66.4036649,26.6958377 C67.1316754,26.6958377 67.6806283,27.215733 67.6806283,27.9052618 C67.6806283,28.6505497 67.1591623,29.1916492 66.4421466,29.1916492 L65.9748691,29.1916492 L65.9748691,26.6958377 Z M66.5638743,25.9458377 L65.3520942,25.9458377 L65.1950262,25.9458377 L65.1950262,26.1029058 L65.1950262,29.7845812 L65.1950262,29.9416492 L65.3520942,29.9416492 L66.4468586,29.9416492 C67.5918848,29.9416492 68.4887435,29.0581414 68.4887435,27.9296073 C68.4887435,26.7429581 67.4937173,25.9458377 66.5638743,25.9458377 L66.5638743,25.9458377 Z M65.817801,29.3487173 L66.4421466,29.3487173 C67.2659686,29.3487173 67.8376963,28.7188743 67.8376963,27.9052618 C67.8376963,27.1207068 67.2078534,26.5387696 66.4036649,26.5387696 L65.817801,26.5387696 L65.817801,29.3487173 L65.817801,29.3487173 Z M66.5638743,26.1029058 C67.4646597,26.1029058 68.3316754,26.8733246 68.3316754,27.9296073 C68.3316754,28.9803927 67.4937173,29.7845812 66.4468586,29.7845812 L65.3520942,29.7845812 L65.3520942,26.1029058 L66.5638743,26.1029058 Z" id="Fill-47" fill-opacity="0.85" fill="#000000" mask="url(#mask-4)"></path>
            </g>
        </g>
    </g>
</svg>