<?xml version="1.0" encoding="UTF-8"?>
<!-- <svg width="80" height="40" viewBox="200 120 100 230" fill="none" xmlns="http://www.w3.org/2000/svg"> -->
<svg width="110" height="60" viewBox="220 120 100 230" fill="none" xmlns="http://www.w3.org/2000/svg">
  <defs>
    <style>
      .cls-1, .cls-2 {
        fill: #5c5d5f;
      }

      .cls-2 {
        fill-rule: evenodd;
      }
    </style>
  </defs>
  <path class="cls-1" d="M50,53.45v1.99c0,2.47-2.23,7.38-8.1,7.38-4.52,0-8.1-3.44-8.1-7.86s3.58-7.86,8.1-7.86c2.4,0,4.76,.99,6.44,3.1l-2.31,1.73c-.96-1.39-2.43-2.19-4.13-2.19-2.72,0-5.17,2.28-5.17,5.21s2.45,5.21,5.17,5.21c2.5,0,4.52-1.51,5.12-4.08h-5.14v-2.64h8.11Zm-17.14,2.79c-.06-.42-.09-.84-.09-1.28,0-.49,.04-.96,.12-1.43-2.38-.34-4.72-.37-4.72-2.03,0-.91,.87-2.04,3.17-2.04,1,0,1.9,.21,2.8,.77,.49-.77,1.09-1.45,1.78-2.04-1.24-.72-2.73-1.09-4.44-1.09-3.44,0-6.25,1.85-6.25,4.54,0,4.3,4.76,4.01,7.63,4.6Zm1.18,3.29c-.64,.41-1.57,.64-2.68,.65-1.75,0-3.34-.84-4.47-2.04l-2.11,1.9c1.9,1.99,4.35,2.79,6.46,2.79,1.67,0,3.27-.44,4.49-1.25-.66-.59-1.23-1.28-1.69-2.04Zm-10.36-11.79H14.45v2.73h9.23v-2.73Zm0,6.18H14.45v2.73h9.23v-2.73Zm-17.5,6.55c-1.92-.25-3.4-1.85-3.4-4.39v-8.34H0s0,8.94,0,8.94c0,3.33,2.44,6.2,6.18,6.44v-2.66Zm4.44-12.73v8.34c0,2.54-1.46,4.14-3.4,4.39v2.66c3.74-.24,6.18-3.11,6.18-6.44v-8.94h-2.79Zm3.03,12.35c-.3,.6-1.03,1.82-2.41,2.73h12.44v-2.73H13.65Z"/>
  <path class="cls-1" d="M0,72.14H.34v1.62c0,.44,.24,.8,.72,.8s.72-.36,.72-.8v-1.62h.34v1.72c0,.58-.44,1.02-1.07,1.02S0,74.44,0,73.86v-1.72Zm4.58,0h.34v2.7h-.32l-1.45-2.09h0v2.09h-.34v-2.7h.32l1.45,2.09h0v-2.09Zm1.03,0h.34v2.7h-.34v-2.7Zm2.77,0h.36l-1,2.7h-.28l-1-2.7h.36l.77,2.16h0l.77-2.16Zm.88,0h1.4v.32h-1.05v.86h1.05v.32h-1.05v.89h1.05v.32h-1.4v-2.7Zm2.36,1.55v1.15h-.34v-2.7h.78c.52,0,.91,.3,.91,.82,0,.48-.38,.78-.82,.81l1.05,1.08h-.48l-1.09-1.15Zm0-.21s.1,0,.3,0c.52,0,.7-.23,.7-.52,0-.32-.22-.52-.57-.52h-.43v1.04Zm3.34-.57c-.05-.32-.23-.51-.52-.51-.38,0-.49,.25-.49,.44,0,.2,.13,.33,.39,.43l.34,.13c.43,.16,.63,.41,.63,.74,0,.44-.35,.75-.87,.75-.49,0-.84-.26-.88-.8h.34c.03,.29,.18,.5,.56,.5,.3,0,.51-.19,.51-.43,0-.21-.17-.34-.42-.44l-.34-.13c-.4-.16-.6-.39-.6-.74,0-.47,.39-.75,.83-.75s.8,.27,.83,.81h-.32Zm2.62,1.3h-1.26l-.25,.63h-.37l1.1-2.7h.3l1.1,2.7h-.37l-.25-.63Zm-.63-1.62l-.51,1.32h1.02l-.51-1.32Zm1.76-.45h.34v2.38h.95v.32h-1.29v-2.7Zm2.92,0h1.4v.32h-1.05v.86h1.05v.32h-1.05v.89h1.05v.32h-1.4v-2.7Zm3.28,.77c-.05-.32-.23-.51-.52-.51-.38,0-.49,.25-.49,.44,0,.2,.13,.33,.39,.43l.34,.13c.43,.16,.63,.41,.63,.74,0,.44-.35,.75-.87,.75-.49,0-.84-.26-.88-.8h.34c.03,.29,.18,.5,.56,.5,.3,0,.51-.19,.51-.43,0-.21-.17-.34-.42-.44l-.34-.13c-.4-.16-.6-.39-.6-.74,0-.47,.39-.75,.83-.75s.8,.27,.83,.81h-.32Zm2.37,.44h1.36c0,.97-.67,1.53-1.42,1.53-.92,0-1.43-.72-1.43-1.39s.51-1.39,1.43-1.39c.32,0,.63,.09,.95,.37l-.22,.26c-.22-.2-.5-.3-.74-.3-.56,0-1.07,.45-1.07,1.07s.52,1.07,1.07,1.07c.49,0,.94-.33,1.05-.89h-.99v-.32Zm4.33-.44c-.05-.32-.23-.51-.52-.51-.38,0-.49,.25-.49,.44,0,.2,.13,.33,.39,.43l.34,.13c.43,.16,.63,.41,.63,.74,0,.44-.35,.75-.87,.75-.49,0-.84-.26-.88-.8h.34c.03,.29,.18,.5,.56,.5,.3,0,.51-.19,.51-.43,0-.21-.17-.34-.42-.44l-.34-.13c-.4-.16-.6-.39-.6-.74,0-.47,.39-.75,.83-.75s.8,.27,.83,.81h-.32Zm1.43-.45h-.68v-.32h1.69v.32h-.67v2.38h-.34v-2.38Zm2.88,1.75h-1.26l-.25,.63h-.37l1.1-2.7h.3l1.1,2.7h-.37l-.25-.63Zm-.63-1.62l-.51,1.32h1.02l-.51-1.32Zm3.52-.45h.34v2.7h-.32l-1.45-2.09h0v2.09h-.34v-2.7h.32l1.45,2.09h0v-2.09Zm1.04,0h.89c.66,0,1.3,.57,1.3,1.34s-.61,1.36-1.38,1.36h-.8v-2.7Zm.8,2.38c.6,0,1.02-.46,1.02-1.06s-.46-1-1.05-1h-.43v2.06h.46Zm3.62-.31h-1.26l-.25,.63h-.37l1.1-2.7h.3l1.1,2.7h-.37l-.25-.63Zm-.63-1.62l-.51,1.32h1.02l-.51-1.32Zm2.1,1.1v1.15h-.34v-2.7h.78c.52,0,.91,.3,.91,.82,0,.48-.38,.78-.82,.81l1.05,1.08h-.48l-1.09-1.15Zm0-.21s.1,0,.3,0c.52,0,.7-.23,.7-.52,0-.32-.22-.52-.57-.52h-.43v1.04Zm2.07-1.34h.89c.66,0,1.3,.57,1.3,1.34s-.61,1.36-1.38,1.36h-.8v-2.7Zm.8,2.38c.6,0,1.02-.46,1.02-1.06s-.46-1-1.05-1h-.43v2.06h.46Z"/>
  <g>
    <path class="cls-1" d="M15.34,22.89c-.11-.28-.22-.56-.31-.84-.03-.28,.14-.63,.14-.89l.03-.13c.25,.35,.3,.1,.46-.04-.01,.17,.08,.54,.03,.74l-.05-.13c.02,.19-.27,1.08-.3,1.29ZM25.53,7.6s.17,.11,.6,.17c.3,.22-.07,.19-.2,.27v.13s-.15,.09-.18,.08-.17,.14,.04,.15c.21,0,1.47,1.03,2.27,.84,.04,0,.08-.02,.12-.03,.06-.02,.31,.15,.37,.12,.04-.02,.38-.02,.43,0,1.71,.48,.34-.51-.34-.37-.16-.23-.51-.24-.73-.37-.1-.13-.32-.31-.49-.33-.05-.26-.31-.48-.65-.6-.39-.04-.78-.06-1.18-.06-.02,0-.04,0-.07,0Zm-8.81,9.1c.3-1.01,.7-2.03,1.17-2.98-.16-.03,.16-.47,.15-.5-.84,1.17-1.51,2.5-1.52,3.98,1.63,1.03-.75,1.09-1.34,1.68,.06,.26-.14,.62-.02,.9l-.05,.3c.08,.32-.22,.46-.4,.7-.13-.68-.2-1.38-.2-2.09,0-4.62,2.83-8.58,6.85-10.24,.05,0,.06,.02-.05,.08-.5,.25-.32,.47,.14,.38,.37-.07,.86-.23,1.1-.24,.04-.14-.45-.1-.47-.12,.07-.26,1.05-.22,.59,.07,1.07-.11,.14,.25-.36,.21-.15,.19-1.27,.34-.46,.41-.18,.45,.59-.11,.7,.18-.61,.05,.05,.23,.28-.02,.04-.14-.2-.05-.16-.19,.71-.29,1.76,.24,2.32,.74-.35,.12-.26,.86-.79,.68,.3-.62-.36-.27-.45,.04,.42,.19,.93-.02,1.33,.22-.38,.16,.36,.76,.37,.31-.11-.2,.11-.47,.33-.37,.37-.1,.72-.02,1.06,.14-.63-.02-1.57-.18-1.2,.82,.08-.03,.27-.09,.13-.19,.11-.17,.54-.25,.72-.24-.35,.23-.55,.89-1.04,.65,.22,.45,.66-.09,.84-.26,.03-.36,.39,.02,.54,.06,.09-.5,1.05,.05,1.36-.25-.17-.17-.64-.68-.07-.49,.04,.52,.86,.88,0,1.18,.41-.14,.91,.07,1.29,.26-.18,.52,1.26-.25,1.83,.23,.03-.34,1.49-.73,1.19-.26l.21,.14c-.04,.07-.17,.04-.24,.03,.03,.11,.02,.25-.05,.34,.51,.05,.22,.51,.29,.88-.16-.05-.32,.11-.26,.27-.18-.06,0,.41-.01,.41,.45,.1,.3,1,.2,1.33-.75-.56-.02-2.45-.84-1.75,.15,.64-.41,.41-.84,.65-.88,1.49,.22,.27,.73,1.82-.44-.1-.04,.4-.02,.58-.03-.04-.13-.21-.19-.11-.02-.28-.08-.85-.17-1.09-.02,.01-.16-.1-.19-.1,.1,.31,.16,.67,.16,.77,.01,.2-.3,.61-.44,1.07-.03,.08-.18,.13-.22,.14-.13,.04-.12-.15-.2-.07-.16,.15-.28,.24-.27,.45-.74,.22,.48,1.09-.57,1.18-.06-.06,.03-.26,.07-.33-.06,.04-.07-.12-.08-.13,.23-.19-.08-.23-.2-.27,.41-.57-.36-.18-.44-.29,.29-.38-.01-.35-.18-.05-.06,.11-.39,.12-.4,.18,.15,0,.24,.11,.2,.26,.06-.11,.68-.13,.47,.11-.18-.12-.47,.21-.56,.36,.2,.02,.22,.3,.22,.43,.06,.1,.25,.27-.03,.13,.22,.21,.05,.2-.13,.29,.08,0,.39,.07,.19,.17h.05c-.58,.81-.88,1.06-1.79,1.13-.16,.06-.52-.1-.53,.18-.13,0-.08-.2,0-.23-.18-.19-.53,0-.78,.09-.12,.36,.25,.7,.36,1,.08,.21-.13,.66-.13,.66-.17,.09-.48,.21-.87,.26-.05,0-.17-.09-.19-.1,.02-.08,.18-.09,.11-.21-.16-.26-.66-.66-.51-.78-.19-.14-.48,.4-.56,.58,.28-.02-.05,.52,.29,.56,.3,.27,.07,.62,.16,.94-.41-.04-.55-.65-.46-1-.45-.75,.84-1.93-.43-1.96,.35-.43,.07-.84-.14-1.27-.56-.42-.95,.16-1.66,.13-.25,.23-.73-.08-.65,.45-.46,.26-.09,.75-.24,1.12-.34,.25-.27-.4-.08-.55-1.12,.11-.37-1.99-.13-2.57-.61-.12-.16-.8-.4-1.18,.07-.25-.83-.63-.9-1.1,.19-.4-.6-.5-.09-1.36-.05-.02-.14-.17-.17-.22-.3,.36-.29,.93-.39,1.31,.09,.11,.22,.22,.35,.12,.22,.17-.01,.44,.18,.66-.09,.97-1.95,.45-2.28-.19Zm12.59-2.2c.2,.2,.62-.45,.62-.45,0,0-.9-.46-.76-.99-.52,.7,1.22,.97,.14,1.44Zm-2.35,1.13c.18,.22,.71-.1,.76-.12,.04-.02-.03-.08-.03-.08,.15-.01,.11-.19,.13-.3-.2,.09-.49,.62-.85,.5Zm-3.87-.53c.36-.46,.63,.3,.73,.17s-.71-.73-.73-.17Zm-1.37-5.35c.1,.04,.27,.19,.1,.26,.06,.27,.55-.1,.71,.2,.17,.1,.34,.2,.51,.21l-.09,.12c.12,.08,.23-.07,.3-.15-.18,0-.35-.18-.43-.33,.14-.37,1.58,.09,.99-.28-.2-.1-2.36,.09-1.58-.21l-.06-.06-.45,.24Zm-.18,4.43l.14,.08c-.03-.13,.21-.1,.27-.11-.05-.18,.02-.26,.22-.24-.06,0-.11-.06-.13-.12l-.11,.06v-.06s-.06,.06-.06,.06c-.22-.2-.39,.18-.33,.33Zm-.85-1.08h.08c-.17,.04-.41,.44-.36,.6-1.08,.24-.1,1.37,.28,.19-.04,.3,.22,.12,.21-.07-.03,0-.1-.08-.09-.11,.25-.05-.08-.22,.2-.39-.06-.09,.06-.13,.09-.03,.07-.07,.14-.04,.18,.04,.47-.03,.19-.54-.14-.39-.13-.22-.36,0-.44,.15Zm-2.61-.34c.07,0,.24,.23,.11,.28,.12,.45,.73-.16,.99-.24-.08-.02-.13-.05-.09-.14-.29,.05-.06-.26-.11-.39l-.1,.04c0-.16,.19-.62,.32-.58l.16-.08c-.08-.08,.06-.12,.12-.09,0,.07,.03,.21,.1,.25-.02-.06,.01-.08,.07-.08,.34,.59,.3,1.95,.83,.26,.05,.07,.25,.08,.26-.02,.03,.05,.12,.05,.17,.05-.1-.13-.52-.49-.42-.07-.12-.05-.36-.15-.1-.23l.03-.07s.1,.05,.15,0c.18-.52-.48-.12-.77-.21,0,.05-.14,.17-.17,.2-.19-.12-.05-.28-.18-.44v.11c-1.09,.63-.25-.34,.22-.46,.22-.28,.47-.66,.75-.73-.37-.36-.72,.79-1.2,.66,.19-.06,.9-.82,1.05-.97-.17-.07-.02-.19,.03-.29-.19-.09-.24,.01-.43-.02l-.12-.12c-.1,.06-.26,.2-.35,.27,.17,.13-.24,.32-.19,.45-.02,.02-.14,.2-.06,.25-.49,.24-.72,.58-1.01,1.03-.54,1.15,.49-.63-.05,1.35Zm12.14-.7c.02-.37-.75-.23-.8-.22s-.02,.15-.02,.15c.05,.25,.33,.26,.48,.14-.3-.17,.33,0,.34-.06Zm-1.48,11.84c.06-.12,.03-.38-.15-.29,.03-.11-.18-.24-.03-.29-.9-.32-.16-.3-.11-.82,0-.05,.07-.11,.06-.14-.03-.14-.14-.18-.22-.14-.03,.02-.09-.04-.11,0-.03,.05-.03,.17-.01,.24-.01,.02-.06,.03-.07,.02-.06-.05-.11-.02-.15,.04-.05,.08-.13,.37-.06,.35,.03,0,.02,.04,0,.04-.19,.07-.01,.44,.06,.52l.17-.16c.05,.06,.18,.14,.25,.16,.24,.12,.04,.39,.13,.59,0,.01-.02,.11-.03,.11-.16,.05-.29,.08-.35,.09-.08,.02-.37,0-.33,.06,.03,.03,.18,.27,.23,.31,.03,.02,.14,.09,.17,.1,.03,.02,.16-.08,.18-.1,.04-.04,.09-.21,.1-.22,.01-.02,.06-.14,.08-.15,.05-.02,.06-.09,.06-.14,0-.02-.04-.09-.03-.11,0-.03,0-.05,0-.08,0-.07,0-.11,.14,0Zm-.29-2.81l-.05-.06c-.05,.02-.14,.1-.28,.24-.07,.08,.04,.23,.06,.31,.1-.14,.24-.38,.27-.5Zm-2.06,.53c-.06-.03-.39-.09-.44,.04-.08,.33,.45,.21,.44-.04Zm-.49-12.33c-.08,.02-.25,.07-.33,.09l.56,.15-.35,.11c.2,.2,.54-.05,.79-.05l-.14,.14c.12,.04,.32,.19,.4,.01l-.13-.04,.18-.08c-.2-.43-.58-.34-.98-.34Zm-3.93,13.33c.47,2.4,2.3,4.63,4.97,4.46-.06-.06-.42-.12-.51-.09-.68-.16-1.42-.62-2.04-.83-.63-.13-.9-.93,.08-.65,.17,.02-.55-.58-.77-.47,.16-.33-.52-.39-.03-.53,0-.06-.54-.54-.58-.5-.07-.25-.33-.61-.55-.75,.31-.21-.45-.54-.58-.64Zm12.78-9.27c.06,.1,.55,.42,.6,.54,.3,.33,.67,1.37,.71,1.15-1.3-3.76-4.56-6.6-8.57-7.29,.15,.09,.54,.21,.67,.25l-.29,.05c.67,.45,1.61,.75,2.28,1.16l-.24-.34c.5,.2,.63,1.03,1.15,1.12-.32-.8,.81,.43,.74,.82-.25,.33,.19,1.26,.58,.97-.02,.26,.23,.78,.36,.29,.81,.25,1.53,.51,2,1.28Zm-7.42,10.96c.03-.21-.18-.2-.5-.02-.19,.1-.42,.32-.64,.41-.1,.04-.19,.06-.29,.08-.12,.02-.19,.3-.32,.16-.06-.06-.17-.16-.23-.17-.66-.3-.22,.51-.32,.82,.59,.21,.96,.68,1.48,.23-.02-.15,.07-.12,.16-.16,.44-.12-.14-.21,.58-.36-.07-.27-.33-.56,.17-.65l-.05-.09c.34-.1,.21-.17-.03-.26Zm-2.15-16.27c-.08-.16-.54,.05-.51-.11-.13,.11-.45,.06-.47,.3,.02,.19,.53,.06,.59,.07l-.08-.04c.06-.04,.33-.13,.15-.17,.05,.02,.26-.03,.31-.04Zm5.57,11.54c.16-.28,.32-.2,.61-.39,.04-.24,.31-1.1-.02-1.17l.04,.1-.1-.05c-.03,.06-.06,.18-.05,.25l.05-.03c.02,.21-.13,.48-.31,.6-.1-.25-.15,.23-.18,.28-.34-.06-.92,.23-.93,.59,.25-.08,.08,.12,.04,.22,.19,.22,.36-.29,.23-.41,.36-.18,.44-.37,.61,.02Zm-.45,.14s.15-.22,.22-.1c.29-.38-.46-.12-.22,.1Zm-2.43,3.89s.19,.13,.2,.2c0,.03,.02,.06,.02,.06-.13,.03-.21,.1-.05,.17,.09,.04,.14,.06,.23-.1,.02,.06,.06,.17,.12,.16,.07-.02,.13-.09,.03-.17,.06-.19-.45-.56-.54-.32Zm4.23-6.49c-.08-.01-.19,.19-.23,.24-.1,.31-.39,.01-.51-.11,.12,.24-.42,.8,.01,.72-.23-.18,.13-.2,.24-.08,.11-.26,.36-.49,.49-.76Z"/>
    <path class="cls-2" d="M15.16,5.5c-.03,.56-.23,.74-.66,1.26-.6,.73-1.71,2.08-1.71,2.08,0,0-.06-.4,0-.64,.04-.14,.43-.37,.66-.53,.17-.11,.36-.43,.51-.85,.46-1.24-.21-1.22,1.06-3.92-.88,1.05-2.65,2.86-2.79,4.29-.03,.27,.05,.44,.17,.76,.08,.2,.05,1.36-.04,1.5-.31,.48-1,1.02-1,1.02,0,0,.37-.99,.54-1.69,.44-1.76-.31-3.53-1.97-4.29,0,0,.4,.77,.58,1.24,.22,.56,.26,1.48,.17,2.01-.27,1.59-1.07,1.76-.27,3.3,.03,.06,.07,.13,.11,.18,.06,.07,.06,.1-.07,.29l-1.03,1.5s.32-1,.35-1.73c0-.29-.35-1.36-.49-1.89-.17-.65,.05-1.53,.16-2.2-1.11,1.19-1.69,3.2-.95,4.72,.36,.75,.76,1,.8,1.81,.03,.47-.17,.9-.28,1.74-.16,1.18-.16,3.18-.16,3.18,0,0-.67-1.03-.73-1.44-.04-.24,.15-.28,.29-.59,.51-1.07-.52-1.64-.62-5.12,0,0-.41,1.82-.7,2.84-.17,.64-.13,1.84,.28,2.49,.11,.17,.25,.29,.39,.45,.18,.22,.77,1.62,.84,1.97,.05,.29-.02,.84-.17,1.45-.08,.29-.17,.65-.17,.65,0,0-.17-.45-.35-.75-.28-.46-.59-.58-.8-.87-.24-.33-.39-.96-.38-1.35,.02-.7,.23-1.56,.23-1.56,0,0-.26,.26-.51,.8-.51,1.11-.81,2.21-.17,3.08,.09,.13,.19,.23,.31,.31,.52,.37,1.51,.7,1.64,.93,.18,.35,.24,1.87,.24,1.87-.92-1.82-2.19-3.34-4.22-3.64-.11-.02-.1,.02-.09,.04,2.64,1.02,1.71,4.64,3.96,5.95,.62,.36,1.72,.63,1.98,.9,.38,.4,1.05,1.89,1.05,1.89,0,0-.39-.08-.6-.19-.5-1.35-1.94-1.15-2.5-1.8-.29-.23-.82-1.08-1.07-1.68-.01-.04-.03-.07-.03-.1,0-.05-.01-.06-.08-.06h-.14s-.01,.37,0,.67c.05,1.04,.75,2.56,1.39,3.11,.49,.42,1.06,.68,1.72,.45,.61-.22,.88-.37,1.48-.03,.21,.12,.43,.4,.73,.86,.33,.5,.83,1.24,.83,1.24-1.52-1.62-3.61-.94-4.83-1.94,.19,1.01,2.74,2.87,3.1,3.05,.66,.32,1.13,.49,1.82,.51,.56,.03,1.24-.02,1.55,.08,.5,.16,.9,.6,1.46,.89,.37,.19,.81,.31,1.25,.48,.21,.09,.42,.18,.62,.3,.19,.12,.22,.14,.22,.2,0,.05,.02,.11,0,.15-.05,.09-.6,.12-.8,.05-.3-.11-.46-.33-.73-.43-.67-.24-1.58,0-2.34-.18-1.5-.22-2.94-2-3.99-2,0,0,.41,.63,.73,1.04,.53,.69,2.25,2.13,2.77,2.41,.61,.33,1.55,.51,2.27,.18,.29-.13,.52-.35,.83-.49,.36-.16,1.65-.4,1.98-.38,.71,.04,1.99,.39,1.99,.39-2.57,.02-3.47,1.58-6.5,1.06,1.11,.54,2.28,1.67,3.63,1.46,1.1-.17,2.03-.55,2.66-1.49,.38-.57,.32-1.01,.9-1,.77,0,3.46,.29,3.46,.29-2.32-.16-1.85,2.04-6.7,2.54,.38,.06,1.6,.23,2.41,.32,1.37,.14,3.23-.27,4-1.56,.51-.86,.55-1.49,1.34-1.38,.57,.07,.22,.67,.29,1.52,.09,1.07,.99,1.4,2.16,1.63,.41,.08,.83,.16,1.24,.17,.62,.02,1.07-.09,1.54,.17,.26,.14,.52,.39,.63,.38-.84-1.9-3.17-2.05-3.83-2.39-.43-.23-.81-.53-1.09-.93-.08-.13-.14-.23-.1-.28,.18-.22,1.65,.5,2.02,.73,1.15,.72,1.18,1.04,2.52,1.21,1.75,.23,2.38-.1,3.94-.83,.34-.16,.87-.58,.98-.76,.03-.07,.07-.14,.07-.14,0,0-.7,.24-1.16,.35-.38,.08-.69,.06-1,0-.92-.17-3.07-.67-3.69-.42-.95,.39-1.03,.75-1.98,.04,0,0,.29-.22,.5-.32,.19-.08,.41-.01,.58,0,.3,.03,1.77-.89,2.14-.89,.25,0,.44,.37,.82,.55,.21,.1,.51,.13,.85,.14,1.54,.04,2.51-.18,3.28,.38,.17,.13,.34,.29,.42,.29,.07,0,.07-.12,0-.27-.37-.83-1.9-1.82-2.76-1.92-.4-.05-1.19,.01-1.53,.21-.3,.17-.56,.49-.65,.48-.04,0-.04-.08,0-.17,.31-.59,2.56-1.27,3.29-1.29,.59-.01,.74,.19,1.69,.42,1.84,.44,4.38-1.24,4.92-3.25,.11-.38,.19-.85,.19-.85-1.12,1.65-2.14,1.53-3.91,2.27-.32,.14-1.2,.8-1.39,1.04-.12,.16-.39,.56-.56,.38-.04-.04-.05-.11-.06-.16,0-.08,0-.1,.19-.23,.64-.47,1.31-.9,1.88-1.44,.55-.51,1.01-1.13,1.49-1.71,.14-.17,.17-.19,.33-.17,.31,.04,.89-.16,1.07-.23,1.96-.76,1.75-1.66,2.92-3.81,.21-.39,.43-.9,1.56-1.59-.17-.2-1.49,.49-1.71,.62-.87,.52-2.68,2.21-2.92,3.39-.15,.72-.08,1.15-.88,1.26,0,0,.62-.99,.81-1.68,.1-.33,.05-.89,.04-1.33,0-.22,.02-.26,.2-.4,.47-.36,.94-.75,1.46-1.02,1.02-.54,1.17-.44,1.64-1.26,.14-.25,.24-.46,.31-.71,.32-1.12-.03-2.07-.14-3.14-.03-.37,0-.89,.17-1.2,.17-.3,.49-.71,.49-.71-1.04,.49-1.38,.87-1.87,1.95-.16,.33-.33,1.21-.38,1.87-.1,1.21-.2,2.5-.66,2.97-.32,.33-.91,.78-.91,.78l1.5-5.23c.06-.21,.07-.26,.05-.43,0-.13,.01-.27,.02-.39,.02-.31,.02-.47,.12-.54,.13-.09,.4-.2,.63-.28,.36-.19,.86-.52,1.27-1.06,.1-.15,.2-.3,.27-.43,.19-.35,.39-1.03,.42-1.49,.02-.41,0-1.03,0-1.03,0,0-.23,.49-.46,.83-.34,.51-1.17,.9-1.63,1.52-.36,.48-.72,1.28-.72,1.28,0,0,.07-.86,.2-1.28,.1-.32,.63-1.07,.87-1.21,.21-.12,.46-.12,.62-.21,.58-.28,.71-2.19,.38-2.94-.09-.21-.23-.46-.23-.46,0,0-.07,.42-.18,.74-.19,.52-.67,.94-.9,1.32-.12,.2-.18,.42-.17,.65,.01,.26,.13,.53,.07,.78-.04,.16-.15,.31-.24,.44-.13,.18-.16,.2-.23,.18l-.16-.05s.55-2.65,.55-3.55c0-.29-.29-1.27-.45-1.5-.8-1.17-1.44-2.52-1.05-3.94-.69,.26-.97,2.01-1,2.55-.07,.94-.04,1.9,.45,2.63,.51,.77,1.49,1.28,1.49,2.26-.02,.49-.33,1.1-.33,1.1,0,0-2.65-5.46-2.58-5.66,.06-.19,.24-.25,.38-.46,.43-.63,.33-2.16,.07-2.91-.22-.63-.61-1.39-1.08-1.69-.25-.16-.65-.36-.65-.36,0,0,.39,.78,.51,1.34,.11,.52-.22,1.47-.12,2.21,.07,.46,.25,1.06,.25,1.06,0,0-.75-1.09-1.11-1.68-.22-.37-.3-.58-.28-.76,.03-.24,.19-.54,.28-.91,.24-1.05-.12-2.59-.55-3.45,0-.02-.2-.59-.77-.86-.03,.08,.08,.28,.14,.55,.1,.48-.28,2.52-.28,3.19,0,.17,.03,.28,.17,.55,.21,.41,.69,1.21,.69,1.21,0,0-.28-.16-.45-.28-.31-.22-.5-.73-.69-1.21-.25-.61-.4-1.18-.59-1.59-.54-1.2-2.95-1.99-4.04-2.41,.62,1.34,2.03,3.07,3.31,3.73,.2,.11,.4,.15,.66,.35,.23,.17,.51,.45,.51,.45,0,0-1.91-.88-2.84-1.48-.41-.27-1.17-.88-1.38-1.27-.17-.31-.2-.68-.39-.95-.68-.97-3.84-1.4-4.72-1.32-.3,.03-.87,.16-.81,.22,2.48,.68,2.78,1.62,3.27,1.89,.27,.15,.85,.28,1.29,.31,.94,.07,1.08,.02,1.94,.97,.15,.16,.32,.34,.32,.34,0,0-.54-.27-1.05-.45-.33-.12-2.42-.25-3.23-.31-.34-.03-1.12-.72-1.15-.69-.02,.02-.01,.06,0,.11,.19,.71,1.78,1.76,2.16,1.93,.63,.29,1.69,.6,2.34,.45,.3-.07,.55-.23,.86-.31,.92-.23,2.21,.14,2.92,.69,.36,.29,.84,.73,.84,.73,0,0-.74-.29-1.5-.51-1.37-.44-1,.26-3.3-.25-.22,.36,2.15,1.26,2.71,1.42,.98,.27,1.12,.09,2.21-.19,.23-.06,.72,0,.87,.09,.02,.01,1.21,1.59,1.47,2.21,.04,.1,.07,.19,.04,.21-.04,.02-.12-.04-.21-.1-.13-.1-.26-.23-.42-.35-.47-.35-2.61-1.25-3.06-1.28-.36-.03-.81,0-.81,0,0,0,.7,.25,1.19,.55,.53,.33,.97,1.02,1.47,1.46,.33,.28,.71,.5,1.08,.52,.94,.05,1.12-.28,1.5,.38,.34,.59,.68,1.77,1.08,2.46,.14,.24,.28,.43,.49,.8,.21,.37,.47,.93,.47,.93,0,0-.59-.27-.84-.54-.19-.2-.12-.65-.22-1.02-.1-.37-.83-1.27-1.15-1.56-.62-.56-1.95-1.43-1.95-1.43,0,0,.85,2.22,1.36,2.99,.17,.25,.62,.77,.87,.93,.27,.18,.6,.23,.9,.35,.25,.1,1.19,.84,1.36,1.07,.17,.24,.34,.78,.31,.95-.03,.15-.1,.27-.14,.45-.12,.51,.13,1.79,.14,2.44,0,.26-.04,.44-.21,.83-.12,.27-.29,.63-.29,.63l.08-2.16c0-.22,0-.27-.02-.5-.14-1.28-1.27-1.76-1.36-3.21-.49,.53,0,1.49,0,1.59,.42,1.68-.63,2.61,.66,3.74,.27,.27,.34,.27,.45,.71,.06,.25,.07,.45,0,.79-.14,.72-.63,2.05-.63,2.05v-1.41c0-.6-.1-1.3-.56-1.71,.38,2.18-1.65,2.66-.2,4.56,.22,.29,.3,1.11,.14,1.64-.13,.39-.37,.85-.37,.85,0,0-.12-1.22-.36-1.8-.34-.8-.65-.76-.43-1.71-.81,1.04-1.08,2.59-.58,3.82,.29,.71,.5,.74,.3,1.29-.09,.26-.5,.79-.84,1.09-.57,.51-1.73,1.38-1.73,1.38,.9-1.16,.58-2.26,1.84-3.17,.21-.15,.37-.26,.37-.26,0,0-.66,.08-1.13,.22-.73,.22-1.72,1.3-1.95,2-.2,.62-.44,1.87-.44,1.87-.59,.12-1.18,.24-1.78,.37,1.09-.57,.84-1.89,2.35-2.75,0,0-.49,.13-.83,.23-.97,.3-2.65,1.52-2.88,2.39-.22,.81-.04,.89-.38,1.14-.49,.36-2.35,1.37-2.71,1.15-.07-.05-.08-.16,0-.23,.16-.15,.65-.22,1.02-.39,.73-.34,1.63-1.42,1.72-2.07,.04-.29,.05-.65,.05-.65,0,0-.5,.52-.92,.86-.48,.39-1.6,.83-1.84,1.25-.33,.57-.03,.79-.56,1.25-.27,.24-.71,.28-1.01,.1-.25-.16-.48-.5-.76-.76-1.17-1.09-3.51-1.21-4.95-.56,0,0,.82,.1,1.55,.35,.58,.19,1.62,.61,1.62,.61,0,0-2.84-.05-3.84-.18-.44-.05-.62-.15-1.18-.25-.54-.1-1.42-.21-1.42-.21,0,0,.77-.04,1.26-.17,.36-.1,.74-.38,1.05-.55,.07-.04,.24-.1,.45-.16,.47-.15,1.01-.17,1.43-.16-.08-.08-.17-.17-.28-.24-.52-.32-2.04-.52-2.61-.42-.33,.06-.84,.24-1.07,.46-.67,.63-.55,1.19-1.39,.59-.21-.15-.52-.57-.56-.83-.02-.18,.07-.32,.07-.5,.03-.84-1.41-2.29-2.02-2.78-.54-.44-1.17-.84-1.78-1.24,.06,.82,.32,1.48,.7,2.2,.4,.77,1.49,1.75,2.46,2.34,.19,.12,.22,.14,.22,.18,.02,.14-.02,.17-.17,.11-1.27-.44-3.22-2.59-3.6-3.33-.07-.14-.02-.98,.07-1.12,.02-.2,.04-.43,.05-.68,0-.04,0-.08,0-.14,.03-.87-.21-1.51-.49-2.21-.15-.36-.84-1.24-1.29-1.25,.55,1.24,.41,1.67,.49,2.91,.03,.52,.17,1.31,.17,1.31l-2.01-3.33s.34-.23,.55-.41c.41-.33,.49-.6,.59-.99,.08-.33,.08-1.61,0-1.99-.11-.5-.31-1.09-.31-1.09,0,0-.05,.83-.29,1.65-.29,1-.86,1.97-.86,1.97,0,0-.32-.61-.41-1.11-.03-.16,.54-1.55,.68-1.69,.63-.59,.96-.94,1.11-1.97,.12-.8-.04-1.57,.12-2.89,.08-.65,.23-1.43,.23-1.43-.84,.08-2.03,3.63-2.02,4.46,.01,.63,.3,1.41,.21,1.82-.05,.2-.18,.32-.31,.72-.08,.24-.16,.57-.16,.57,0,0-.11-.16-.19-.3-.19-.36-.19-1.22-.17-1.58,.05-1.02,.51-2.24,.62-3.41,.09-.96-.03-1.99,.14-2.51,.07-.2,.33-.51,.47-.53,.14-.02,.31,.03,.51,0,1.41-.18,1.76-2.36,3.15-3.38-1.5,.49-2.7,1.11-3.32,2.34-.2,.26-.46,.58-.46,.58,0,0,.03-.4,.06-.68,.05-.68,.05-.9,.28-1.21,.12-.16,2.52-1.52,2.87-1.62,.87-.26,1.08-.3,1.77-1.08,.88-.98,1.37-2.6,1.84-3.81-1.2,.71-2.88,1.97-3.44,3.25-.2,.47-.21,1.09-.45,1.33-.32,.34-1.88,1.04-1.88,1.04,0,0,2.22-2.88,3.41-4.31,.98-1.19,1.4-1.45,2.95-2.41,.19-.12,.23-.13,.46-.09,4.02,.7,4.31,.72,7.28-1.54-2.59,1.02-3.27,.5-4.01,.51-.32,0-1.03,.21-1.32,.38-.56,.33-.74,.58-1.12,.5-.26-.06-.79-.22-.79-.22,0,0,.46-.24,.86-.38,.74-.26,1.62-.25,2.19-.43,1.13-.36,2.64-1.74,3.17-2.86,0,0-.93,.48-1.67,.73-1.58,.52-2.24,.12-3.08,1.12-.01,.02-.51,.66-.58,.86-.06,.15-.08,.18-.27,.3l-2.81,1.74s0-.13,0-.22c.02-.18,.1-.26,.21-.33,1.02-.67,1.47-.78,1.91-2.01,.19-.54,.47-1.62,.38-2.18-.05-.34-.2-.88-.2-.88-.38,1.26-.65,1.95-1.68,2.74-.91,.72-.87,1.55-.9,2.51h0Zm-5.56,20.85s-.06,0-.11,0c-.08,0-.25-.09-.31-.17-.03-.04-.04-.06-.11-.28-.17-1.03-.53-1.89-.57-2.03,.03-.04,.26,.46,.34,.62,.06,.13,.11,.26,.17,.4,.13,.34,.3,.72,.48,1.07,.1,.2,.11,.23,.11,.28v.11h0Zm31.4-.42s-.08,.02-.11,0c-.13-.07,.25-.89,.35-1.04,.03-.04,.05-.07,.07-.07,.04,0,.05,.2,0,.39-.06,.27-.21,.55-.3,.71h0Z"/>
  </g>
  <g>
    <g>
      <g>
        <rect class="cls-1" x="2.8" y="69.61" width="19.36" height=".1"/>
        <rect class="cls-1" x="2.8" y="69.37" width="19.36" height=".1"/>
      </g>
      <g>
        <path class="cls-1" d="M.84,68.87s.04,0,.09,.03c.06,.03,.12,.1,.19,.19,.04,.04,.09,.09,.15,.11,.06,.02,.14,0,.19-.06,.05-.06,.08-.14,.06-.23-.02-.09-.06-.17-.12-.25-.06-.08-.13-.15-.22-.2-.09-.05-.2-.08-.31-.07-.05,0-.11,.02-.16,.05-.03,.01-.04,.03-.07,.05-.02,.02-.04,.04-.06,.06-.07,.09-.1,.21-.1,.33,0,.06,0,.12,.02,.18,0,.03,.02,.06,.02,.09l.03,.09c.05,.11,.12,.22,.2,.32,.17,.19,.4,.34,.65,.42,.25,.09,.52,.11,.77,.06,.26-.04,.49-.16,.66-.34,.16-.18,.27-.41,.29-.63,.03-.22-.04-.44-.17-.58-.13-.14-.31-.22-.47-.23-.08,0-.16,.01-.21,.05-.06,.04-.09,.1-.09,.15,0,.12,.06,.2,.1,.24,.04,.05,.06,.07,.06,.07,0,0-.02-.02-.07-.07-.04-.05-.11-.12-.11-.24,0-.06,.03-.13,.09-.17,.06-.04,.14-.06,.23-.06,.17,0,.36,.08,.5,.23,.14,.15,.22,.38,.2,.62-.02,.24-.12,.47-.3,.67-.04,.05-.09,.09-.14,.13-.05,.04-.11,.08-.17,.11-.12,.06-.25,.1-.38,.13-.27,.05-.55,.03-.81-.06-.26-.09-.5-.24-.68-.45-.18-.2-.3-.46-.29-.72,0-.13,.03-.26,.11-.37,.08-.11,.2-.16,.32-.17,.12-.01,.24,.02,.34,.08,.1,.06,.17,.14,.23,.22,.06,.08,.11,.17,.12,.27,.02,.09-.01,.19-.07,.25-.06,.06-.15,.09-.22,.06-.07-.02-.12-.08-.15-.12-.07-.09-.13-.16-.19-.19-.05-.03-.09-.03-.09-.03Z"/>
        <path class="cls-1" d="M.27,68.12s0,.01,.01,.03c0,.02,.02,.05,.04,.08,.02,.03,.05,.07,.08,.12,.04,.04,.08,.09,.13,.13,.05,.04,.11,.09,.18,.13,.07,.04,.14,.08,.22,.11,.16,.07,.33,.12,.5,.16,.18,.04,.35,.07,.52,.11,.17,.04,.32,.08,.45,.14,.06,.03,.12,.05,.17,.08,.05,.03,.09,.05,.13,.07,.03,.02,.06,.04,.08,.05,.02,.01,.03,.02,.03,.02l-.05,.06s0,0-.02-.02c-.02-.01-.04-.03-.07-.05-.03-.02-.07-.05-.12-.07-.05-.03-.1-.05-.16-.08-.12-.05-.27-.1-.44-.14-.16-.04-.34-.08-.52-.13-.18-.05-.35-.1-.51-.17-.08-.04-.15-.07-.22-.12-.07-.04-.12-.09-.18-.13-.05-.05-.09-.09-.13-.13-.03-.04-.06-.08-.08-.12-.02-.03-.03-.06-.04-.08,0-.02-.01-.03-.01-.03Z"/>
        <path class="cls-1" d="M3.38,68.61s0,0-.01,.02c0,.01-.01,.04,0,.06,0,.01,.01,.02,.02,.03,0,0,.02,.02,.04,.02,.01,0,.03,0,.04,0,.01,0,.03-.01,.03-.02,.01-.01,.02-.02,.02-.04,0-.01,0-.03,0-.04,0-.03-.03-.05-.05-.06-.03,0-.05,0-.06,0-.01,0-.02,.01-.02,.01Zm0,0s.03-.03,.09-.03c.03,0,.07,.02,.09,.06,0,.02,.01,.04,.01,.06,0,.02-.02,.05-.03,.06-.04,.04-.09,.04-.13,.02-.02-.01-.03-.02-.04-.04,0-.02-.01-.03-.02-.05,0-.06,.03-.09,.03-.09Z"/>
        <path class="cls-1" d="M3.52,68.61s0,.01-.01,.03c0,.02-.02,.04-.04,.05-.03,.03-.08,.05-.09,.05,0,0,.01-.05,.05-.08,.02-.02,.04-.03,.05-.04,.02,0,.03-.01,.03-.01Z"/>
      </g>
      <g>
        <rect class="cls-1" x="27.81" y="69.61" width="19.39" height=".1"/>
        <rect class="cls-1" x="27.81" y="69.37" width="19.39" height=".1"/>
      </g>
      <g>
        <path class="cls-1" d="M49.16,68.87s-.04,0-.09,.03c-.06,.03-.12,.1-.19,.19-.04,.04-.09,.09-.15,.11-.06,.02-.14,0-.19-.06-.05-.06-.08-.14-.06-.23,.02-.09,.06-.17,.12-.25,.06-.08,.13-.15,.22-.2,.09-.05,.2-.08,.31-.07,.05,0,.11,.02,.16,.05,.03,.01,.04,.03,.07,.05,.02,.02,.04,.04,.06,.06,.07,.09,.1,.21,.1,.33,0,.06,0,.12-.02,.18,0,.03-.02,.06-.02,.09l-.03,.09c-.05,.11-.12,.22-.2,.32-.17,.19-.4,.34-.65,.42-.25,.09-.52,.11-.77,.06-.26-.04-.49-.16-.66-.34-.16-.18-.27-.41-.29-.63-.03-.22,.04-.44,.17-.58,.13-.14,.31-.22,.47-.23,.08,0,.16,.01,.21,.05,.06,.04,.09,.1,.09,.15,0,.12-.06,.2-.1,.24-.04,.05-.06,.07-.06,.07,0,0,.02-.02,.07-.07,.04-.05,.11-.12,.11-.24,0-.06-.03-.13-.09-.17-.06-.04-.14-.06-.23-.06-.17,0-.36,.08-.5,.23-.14,.15-.22,.38-.2,.62,.02,.24,.12,.47,.3,.67,.04,.05,.09,.09,.14,.13,.05,.04,.11,.08,.17,.11,.12,.06,.25,.1,.38,.13,.27,.05,.55,.03,.81-.06,.26-.09,.5-.24,.68-.45,.18-.2,.3-.46,.29-.72,0-.13-.03-.26-.11-.37-.08-.11-.2-.16-.32-.17-.12-.01-.24,.02-.34,.08-.1,.06-.17,.14-.23,.22-.06,.08-.11,.17-.12,.27-.02,.09,.01,.19,.07,.25,.06,.06,.15,.09,.22,.06,.07-.02,.12-.08,.15-.12,.07-.09,.13-.16,.19-.19,.05-.03,.09-.03,.09-.03Z"/>
        <path class="cls-1" d="M49.73,68.12s0,.01-.01,.03c0,.02-.02,.05-.04,.08-.02,.03-.05,.07-.08,.12-.04,.04-.08,.09-.13,.13-.05,.04-.11,.09-.18,.13-.07,.04-.14,.08-.22,.11-.16,.07-.33,.12-.5,.16-.18,.04-.35,.07-.52,.11-.17,.04-.32,.08-.45,.14-.06,.03-.12,.05-.17,.08-.05,.03-.09,.05-.13,.07-.03,.02-.06,.04-.08,.05-.02,.01-.03,.02-.03,.02l.05,.06s0,0,.02-.02c.02-.01,.04-.03,.07-.05,.03-.02,.07-.05,.12-.07,.05-.03,.1-.05,.16-.08,.12-.05,.27-.1,.44-.14,.16-.04,.34-.08,.52-.13,.18-.05,.35-.1,.51-.17,.08-.04,.15-.07,.22-.12,.07-.04,.12-.09,.18-.13,.05-.05,.09-.09,.13-.13,.03-.04,.06-.08,.08-.12,.02-.03,.03-.06,.04-.08,0-.02,.01-.03,.01-.03Z"/>
        <path class="cls-1" d="M46.6,68.59s-.04-.01-.06,0c-.03,0-.05,.03-.05,.06,0,.01,0,.03,0,.04,0,.01,0,.02,.02,.04,0,0,.02,.02,.03,.02,.01,0,.03,0,.04,0,.01,0,.03-.01,.04-.02,.01,0,.02-.02,.02-.03,0-.03,0-.05,0-.06,0-.01-.01-.02-.01-.02,0,0,0,0-.02-.01Zm.05,.1s0,.03-.02,.05c-.01,.02-.02,.03-.04,.04-.04,.02-.09,.01-.13-.02-.01-.01-.03-.04-.03-.06,0-.02,0-.05,.01-.06,.02-.04,.06-.06,.09-.06,.06,0,.09,.03,.09,.03,0,0,.03,.03,.03,.09Z"/>
        <path class="cls-1" d="M46.48,68.61s0,.01,.01,.03c0,.02,.02,.04,.04,.05,.03,.03,.08,.05,.09,.05,0,0-.01-.05-.05-.08-.02-.02-.04-.03-.05-.04-.02,0-.03-.01-.03-.01Z"/>
      </g>
      <g>
        <path class="cls-1" d="M23.46,68.89s0,0,.01,0c0,0,.02,0,.04,0,.04,0,.09,.03,.14,.09,.02,.03,.04,.06,.06,.11,0,.02,.01,.05,.01,.07,0,.01,0,.03,0,.04,0,0,0,.01,0,.02h0s0,.02,0,.02c0,0,0,0,0,0h0s0,0,0,0c0,.01,0,.02,0,.04,0,.02-.01,.03-.02,.04-.01,.03-.03,.05-.05,.08-.04,.05-.09,.09-.15,.12-.03,.01-.06,.03-.1,.03-.02,0-.04,0-.05,0-.02,0-.03,0-.05,0h-.02s-.02,0-.03,0c-.02,0-.04,0-.06,0-.04,0-.07-.02-.11-.03-.07-.03-.13-.08-.18-.14-.05-.06-.08-.12-.1-.19-.02-.07-.03-.14-.04-.21,0-.02,0-.03,0-.05,0-.02,0-.03,0-.05v-.03s0,0,0,0h0s0,0,0,0h0s0-.01,0-.01c0-.02,0-.03,0-.05v-.02s0-.03,0-.03v-.05s.03-.03,.03-.05c0-.02,.01-.03,.02-.05,.03-.06,.07-.13,.12-.19,.1-.12,.23-.21,.38-.25,.15-.04,.3-.05,.45-.02,.02,0,.04,0,.06,.01,.02,0,.04,.01,.05,.02h.01s.02,.01,.02,.01h.02s.03,.02,.04,.03c.03,.02,.06,.03,.09,.05,.03,.02,.05,.04,.08,.06,.1,.08,.18,.16,.25,.25,.07,.08,.12,.17,.16,.24,.02,.04,.04,.07,.05,.11,.01,.03,.03,.07,.03,.1,.02,.06,.03,.11,.03,.14,0,.03,0,.05,0,.05h-.03s-.01,0-.03-.03c0-.01-.02-.03-.04-.04-.02-.02-.03-.04-.05-.06-.04-.04-.09-.09-.14-.15-.05-.05-.12-.11-.19-.17-.07-.06-.15-.12-.24-.17-.02-.01-.04-.03-.07-.04-.02-.01-.04-.02-.06-.04-.06-.03-.09-.05-.14-.06-.09-.03-.2-.04-.31-.03-.11,.01-.22,.04-.32,.1-.05,.03-.09,.07-.13,.12-.02,.02-.03,.05-.04,.08v.04s-.02,.01-.02,.02v.02c-.03,.12,.01,.24,.08,.33,.07,.08,.16,.13,.23,.15,0,0,.02,0,.03,0,0,0,.02,0,.03,0,0,0,.01,0,.02,0,0,0,0,0,.01,0h.02s.02,0,.02,0h0s0,0,0,0h0s0,0,0,0c0,0,0,0,0,0,0,0,.02,0,.02,0,.02,0,.03,0,.05-.01,.03,0,.06-.02,.08-.04,.01,0,.02-.02,.03-.03h.01s0-.03,.01-.03h0s0,0,0,0c0,0,0,0,0,0h0s0,0,0,0c0,0,0,0,0,0,0,0,0-.01,0-.02,0-.01,0-.02,0-.04,0-.02,0-.05,0-.07,0-.04-.03-.08-.05-.1,0,0-.02-.02-.02-.02,0,0-.01,0-.01,0v-.03Z"/>
        <path class="cls-1" d="M24.92,68.91s-.02-.02-.05-.07c-.03-.04-.07-.11-.11-.19-.04-.08-.08-.18-.12-.29-.04-.11-.08-.22-.11-.34-.03-.12-.05-.25-.04-.37,0-.02,0-.03,0-.05,0-.02,0-.03,0-.05v-.02s0,0,0-.01h0s0-.03,0-.03c0,0,0-.02,0-.02,.03-.06,.07-.11,.11-.14,.02-.02,.04-.03,.07-.05,.03-.02,.05-.02,.07-.03,.05-.01,.08-.02,.11-.02,.05,0,.08-.01,.08-.01v.22s-.01,0-.07,0c-.02,0-.05,0-.08,0-.01,0-.03,0-.04,0-.01,0-.03,.01-.04,.02-.03,.02-.06,.05-.08,.08,0,0,0,0,0,.01,0,0,0,0,0,.01h0s0,.01,0,.02v.02s-.01,.02-.02,.03c0,.01,0,.02,0,.04-.02,.1-.02,.21,0,.33,.02,.12,.04,.23,.07,.34,.03,.11,.06,.21,.09,.29,.03,.08,.06,.15,.08,.2,.02,.05,.04,.07,.04,.07Z"/>
        <path class="cls-1" d="M24.04,69.94s0,0-.01,0c0,0,0,0-.01,0,0,0,0,0,0,0,0,0,0,0-.01,0-.01,0-.02-.01-.03-.02,0,0-.02-.02-.03-.03-.02-.02-.03-.05-.05-.07-.01-.03-.02-.06-.03-.1,0-.04,0-.07,.01-.12,0-.01,0-.02,.01-.03,0-.01,.01-.02,.02-.03h.01s.02-.02,.02-.02c.01,0,.02-.01,.04-.01,.03,0,.05,0,.07,0,.02,0,.04,.01,.06,.02,.04,.02,.06,.05,.09,.07,.02,.02,.04,.04,.07,.05,.05,.03,.1,.04,.15,.03,.05,0,.09-.01,.11-.03,.01,0,.02-.01,.03-.02,0,0,0,0,0,0,0,0,0,0,0,0,0,0-.01,.01-.03,.02-.02,.02-.06,.04-.11,.05-.05,.01-.11,.01-.17-.01-.03-.01-.06-.03-.09-.05-.03-.02-.05-.04-.07-.04-.01,0-.03,0-.04,0,0,0-.01,0-.01,0,0,0,0,0-.01,0-.01,0-.01,.02-.02,.03,0,.02,0,.04,0,.06,0,.02,.01,.04,.03,.05,0,.01,.02,.02,.03,.03,0,0,0,0,.01,0,0,0,0,0,0,0h0s0,0,0,0c0,0,0,0,.01,0,0,0,.01,0,.01,0,.05,.01,.07,.06,.06,.11-.01,.05-.06,.07-.11,.06,0,0-.01,0-.01,0Z"/>
        <path class="cls-1" d="M25.86,69.77s0,0,.01,0c0,0,0,0,.01,0,0,0,0,0,0,0h0s0,0,0,0c0,0,0,0,.01,0,0,0,.02-.02,.03-.03,.01-.01,.02-.03,.03-.05,0-.02,0-.04,0-.06,0-.02,0-.03-.02-.03,0,0,0,0-.01,0,0,0,0,0-.01,0-.01,0-.02,0-.04,0-.02,0-.04,.02-.07,.04-.03,.02-.06,.04-.09,.05-.06,.02-.13,.02-.17,.01-.05-.01-.09-.03-.11-.05-.01,0-.02-.02-.03-.02,0,0,0,0,0,0,0,0,0,0,0,0,0,0,.02,0,.03,.02,.03,.01,.06,.02,.11,.03,.05,0,.1,0,.15-.03,.02-.01,.04-.03,.07-.05,.02-.02,.05-.05,.09-.07,.02,0,.04-.01,.06-.02,.02,0,.04,0,.07,0,.01,0,.02,0,.04,.01h.02s.01,.02,.01,.02c0,0,.02,.02,.02,.03,0,.01,.01,.02,.01,.03,.01,.04,.01,.08,.01,.12,0,.03-.01,.07-.03,.1-.01,.03-.03,.05-.05,.07,0,.01-.02,.02-.03,.03-.01,0-.02,.02-.03,.02,0,0-.01,0-.01,0,0,0,0,0,0,0,0,0,0,0-.01,0,0,0-.01,0-.01,0-.04,.02-.1,0-.12-.04-.02-.04,0-.1,.04-.12,0,0,0,0,.01,0Z"/>
        <path class="cls-1" d="M26.53,68.92s0,0-.01,0c0,0-.02,.01-.02,.02-.02,.02-.04,.05-.05,.1,0,.02,0,.05,0,.07,0,.01,0,.02,0,.04,0,0,0,.01,0,.02,0,0,0,0,0,0h0s0,0,0,0c0,0,0,0,0,0h0s0,0,0,0c0,0,.01,.02,.01,.02h.01s.02,.03,.03,.04c.02,.02,.05,.03,.08,.04,.02,0,.03,0,.05,.01,0,0,.02,0,.02,0,0,0-.02,0,0,0h0s0,0,0,0h0s0,0,0,0h.02s.02,0,.02,0c0,0,0,0,.01,0,0,0,.01,0,.02,0,0,0,.02,0,.03,0,0,0,.02,0,.03,0,.07-.02,.16-.06,.23-.15,.07-.08,.11-.21,.08-.33v-.02s0-.01-.01-.02v-.04s-.04-.05-.06-.08c-.04-.05-.08-.09-.13-.12-.1-.06-.21-.09-.32-.1-.11-.01-.22,0-.31,.03-.05,.02-.08,.03-.14,.06-.02,.01-.04,.02-.06,.04-.02,.01-.04,.03-.07,.04-.09,.05-.16,.11-.24,.17-.07,.06-.14,.12-.19,.17-.05,.05-.1,.1-.14,.15-.02,.02-.04,.04-.05,.06-.02,.02-.03,.03-.04,.04-.02,.02-.03,.04-.03,.04h-.03s0-.03,0-.06c0-.03,.01-.08,.03-.14,0-.03,.02-.06,.03-.1,.01-.03,.03-.07,.05-.11,.04-.08,.09-.16,.16-.24,.07-.08,.15-.17,.25-.25,.02-.02,.05-.04,.08-.06,.03-.02,.06-.04,.09-.05,.01,0,.03-.01,.04-.02h.02s.02-.02,.02-.02h.01s.04-.02,.05-.02c.02,0,.04-.01,.06-.01,.15-.03,.3-.03,.45,.02,.15,.04,.28,.13,.38,.25,.05,.06,.09,.12,.12,.19,0,.02,.01,.03,.02,.05,0,.02,.01,.03,.02,.05v.05s.02,.03,.02,.03v.02s0,.03,0,.05h0s0,.01,0,.01h0s0,0,0,0h0s0,.03,0,.03c0,.02,0,.03,0,.05,0,.02,0,.04,0,.05,0,.07-.02,.14-.04,.21-.02,.07-.06,.13-.1,.19-.05,.06-.11,.11-.18,.14-.03,.02-.07,.03-.11,.03-.02,0-.04,0-.06,0,0,0-.02,0-.03,0h-.02s-.03,0-.05,0c-.02,0-.04,0-.05,0-.03,0-.07-.02-.1-.03-.06-.03-.11-.07-.15-.12-.02-.02-.04-.05-.05-.08,0-.01-.01-.03-.02-.04,0-.02,0-.02,0-.04h0s0,0,0,0c0,0,0,0,0,0h0s0-.02,0-.02c0,0,0-.01,0-.02,0-.01,0-.03,0-.04,0-.03,0-.05,.01-.07,.01-.04,.03-.08,.06-.11,.05-.06,.1-.08,.14-.09,.02,0,.03,0,.04,0,0,0,.01,0,.01,0v.03Z"/>
        <path class="cls-1" d="M25.04,68.91s.01-.03,.04-.07c.02-.05,.05-.11,.09-.2,.06-.17,.12-.4,.15-.63,.01-.12,.02-.23,0-.33,0-.05-.02-.09-.04-.12,0,0,0-.01,0-.01h0s-.01-.02-.02-.03c-.01-.01-.03-.02-.04-.03-.05-.04-.11-.05-.16-.05-.02,0-.04,0-.05,0-.01,0-.02,0-.02,0v-.22s0,0,.03,0c.02,0,.04,0,.07,.01,.03,0,.07,.02,.11,.03,.04,.02,.09,.04,.13,.08,.02,.02,.04,.04,.06,.06,0,.01,.02,.02,.03,.04v.02s.02,.01,.02,.02c.03,.06,.04,.12,.04,.18,0,.13-.02,.25-.05,.37-.05,.24-.14,.46-.23,.62-.04,.08-.08,.14-.11,.19-.03,.04-.05,.07-.05,.07Z"/>
        <g>
          <path class="cls-1" d="M24.81,69.88c-.01,.21-.17,.41-.38,.48-.21,.07-.45,0-.59-.17-.05,.09,0,.2,.07,.28,.1,.13,.22,.24,.35,.32,.63,.41,.61-.54,.61-.92-.02,0-.05-.02-.07-.03,0,.01,0,.02,0,.03Z"/>
          <path class="cls-1" d="M25.17,69.88c.01,.21,.17,.41,.38,.48,.21,.07,.45,0,.59-.17,.05,.09,0,.2-.07,.28-.1,.13-.22,.24-.35,.32-.63,.41-.61-.54-.61-.92,.02,0,.05-.02,.07-.03,0,.01,0,.02,0,.03Z"/>
        </g>
        <path class="cls-1" d="M25.43,69.46s0,.01,0,.03c0,.01,0,.02,0,.04,0,.01,0,.03,0,.05,0,.04-.02,.08-.05,.13-.03,.05-.06,.1-.12,.14-.06,.04-.13,.07-.21,.08-.02,0-.04,0-.06,0-.02,0-.04,0-.06,0-.04,0-.08-.02-.12-.04-.08-.04-.14-.1-.19-.17-.05-.07-.08-.16-.09-.25,0-.04,0-.09,.01-.14,.01-.04,.03-.09,.05-.13,.05-.08,.12-.14,.2-.18,.04-.02,.08-.03,.13-.04,.02,0,.04,0,.06,0,.03,0,.04,0,.06,0,.09,.01,.16,.04,.21,.09,.06,.04,.09,.1,.12,.14,.03,.05,.04,.09,.05,.13,0,.02,0,.04,0,.05,0,.01,0,.03,0,.04,0,.02,0,.03,0,.03h0Zm0,0s0-.01,0-.03c0-.01,0-.02,0-.04,0-.01,0-.03-.01-.05-.01-.03-.03-.08-.06-.11-.03-.04-.08-.08-.13-.1-.05-.03-.11-.05-.18-.06-.07,0-.14,0-.21,.03-.03,.01-.07,.03-.1,.06-.03,.02-.06,.05-.08,.08-.02,.03-.04,.07-.06,.1-.01,.04-.02,.07-.03,.12,0,.04,0,.08,.01,.12,.01,.04,.03,.08,.05,.11,.02,.03,.05,.06,.08,.09,.03,.02,.07,.04,.1,.06,.04,.01,.07,.02,.11,.02,.02,0,.04,0,.06,0,.01,0,.03,0,.05,0,.07,0,.13-.03,.18-.06,.05-.03,.09-.07,.13-.11,.03-.04,.05-.08,.06-.12,0-.02,.01-.03,.01-.05,0-.01,0-.03,0-.04,0-.02,0-.03,0-.03h0Z"/>
        <path class="cls-1" d="M24.63,69.13s0-.01,.02-.03c.01-.02,.03-.05,.06-.08,.01-.02,.03-.03,.05-.05,.02-.02,.04-.03,.06-.05,.02-.01,.05-.03,.08-.03,.03,0,.06-.01,.09-.01,.03,0,.06,0,.09,.02,.03,0,.05,.02,.08,.04,.02,.01,.04,.03,.06,.05,.02,.02,.03,.03,.05,.05,.01,.02,.03,.03,.04,.04,.01,.01,.02,.03,.03,.04,.01,.02,.02,.03,.02,.03,0,0-.01,0-.03-.03-.02-.02-.04-.04-.07-.07-.02-.01-.03-.03-.05-.04-.02-.01-.04-.03-.06-.04-.02-.01-.05-.02-.07-.03-.02,0-.05-.01-.07-.01-.05,0-.1,.01-.14,.03-.04,.02-.08,.05-.11,.08-.03,.03-.05,.05-.07,.07-.02,.02-.02,.03-.02,.03Z"/>
        <path class="cls-1" d="M25.26,69.47c0,.15-.12,.27-.27,.27s-.27-.12-.27-.27,.12-.27,.27-.27,.27,.12,.27,.27Z"/>
      </g>
    </g>
    <path class="cls-1" d="M20.94,68.72s-.05-.02-.05-.05,.02-.05,.05-.05h0s.05,.02,.05,.05-.02,.05-.05,.05Zm-.29,0s-.05-.02-.05-.05,.02-.05,.05-.05h0s.05,.02,.05,.05-.02,.05-.05,.05Zm-.29,0s-.05-.02-.05-.05,.02-.05,.05-.05h0s.05,.02,.05,.05-.02,.05-.05,.05Zm1.44,0s-.05-.02-.05-.05,.02-.05,.05-.05h0s.05,.02,.05,.05-.02,.05-.05,.05Zm.27,0s-.05-.02-.05-.05,.02-.05,.05-.05h0s.05,.02,.05,.05-.02,.05-.05,.05Zm-.56,0s-.05-.02-.05-.05,.02-.05,.05-.05h0s.05,.02,.05,.05-.02,.05-.05,.05Zm-.29,0s-.05-.02-.05-.05,.02-.05,.05-.05h0s.05,.02,.05,.05-.02,.05-.05,.05Zm-1.15,0s-.05-.02-.05-.05,.02-.05,.05-.05h0s.05,.02,.05,.05-.02,.05-.05,.05Zm-.29,0s-.05-.02-.05-.05,.02-.05,.05-.05h0s.05,.02,.05,.05-.02,.05-.05,.05Zm-.29,0s-.05-.02-.05-.05,.02-.05,.05-.05h0s.05,.02,.05,.05-.02,.05-.05,.05Zm-.29,0s-.05-.02-.05-.05,.02-.05,.05-.05h0s.05,.02,.05,.05-.02,.05-.05,.05Zm-.29,0s-.05-.02-.05-.05,.02-.05,.05-.05h0s.05,.02,.05,.05-.02,.05-.05,.05Zm-.29,0s-.05-.02-.05-.05,.02-.05,.05-.05h0s.05,.02,.05,.05-.02,.05-.05,.05Zm-.29,0s-.05-.02-.05-.05,.02-.05,.05-.05h0s.05,.02,.05,.05-.02,.05-.05,.05Zm-.29,0s-.05-.02-.05-.05,.02-.05,.05-.05h0s.05,.02,.05,.05-.02,.05-.05,.05Zm-.29,0s-.05-.02-.05-.05,.02-.05,.05-.05h0s.05,.02,.05,.05-.02,.05-.05,.05Zm-.29,0s-.05-.02-.05-.05,.02-.05,.05-.05h0s.05,.02,.05,.05-.02,.05-.05,.05Zm-.29,0s-.05-.02-.05-.05,.02-.05,.05-.05h0s.05,.02,.05,.05-.02,.05-.05,.05Zm-.29,0s-.05-.02-.05-.05,.02-.05,.05-.05h0s.05,.02,.05,.05-.02,.05-.05,.05Zm-.29,0s-.05-.02-.05-.05,.02-.05,.05-.05h0s.05,.02,.05,.05-.02,.05-.05,.05Zm-.29,0s-.05-.02-.05-.05,.02-.05,.05-.05h0s.05,.02,.05,.05-.02,.05-.05,.05Zm-.29,0s-.05-.02-.05-.05,.02-.05,.05-.05h0s.05,.02,.05,.05-.02,.05-.05,.05Zm-.29,0s-.05-.02-.05-.05,.02-.05,.05-.05h0s.05,.02,.05,.05-.02,.05-.05,.05Zm-.29,0s-.05-.02-.05-.05,.02-.05,.05-.05h0s.05,.02,.05,.05-.02,.05-.05,.05Zm-.29,0s-.05-.02-.05-.05,.02-.05,.05-.05h0s.05,.02,.05,.05-.02,.05-.05,.05Zm-.29,0s-.05-.02-.05-.05,.02-.05,.05-.05h0s.05,.02,.05,.05-.02,.05-.05,.05Zm-.29,0s-.05-.02-.05-.05,.02-.05,.05-.05h0s.05,.02,.05,.05-.02,.05-.05,.05Zm-.29,0s-.05-.02-.05-.05,.02-.05,.05-.05h0s.05,.02,.05,.05-.02,.05-.05,.05Zm-.29,0s-.05-.02-.05-.05,.02-.05,.05-.05h0s.05,.02,.05,.05-.02,.05-.05,.05Zm-.29,0s-.05-.02-.05-.05,.02-.05,.05-.05h0s.05,.02,.05,.05-.02,.05-.05,.05Zm-.29,0s-.05-.02-.05-.05,.02-.05,.05-.05h0s.05,.02,.05,.05-.02,.05-.05,.05Zm-.29,0s-.05-.02-.05-.05,.02-.05,.05-.05h0s.05,.02,.05,.05-.02,.05-.05,.05Zm-.29,0s-.05-.02-.05-.05,.02-.05,.05-.05h0s.05,.02,.05,.05-.02,.05-.05,.05Zm-.29,0s-.05-.02-.05-.05,.02-.05,.05-.05h0s.05,.02,.05,.05-.02,.05-.05,.05Zm-.29,0s-.05-.02-.05-.05,.02-.05,.05-.05h0s.05,.02,.05,.05-.02,.05-.05,.05Zm-.29,0s-.05-.02-.05-.05,.02-.05,.05-.05h0s.05,.02,.05,.05-.02,.05-.05,.05Zm-.29,0s-.05-.02-.05-.05,.02-.05,.05-.05h0s.05,.02,.05,.05-.02,.05-.05,.05Zm-.29,0s-.05-.02-.05-.05,.02-.05,.05-.05h0s.05,.02,.05,.05-.02,.05-.05,.05Zm-.29,0s-.05-.02-.05-.05,.02-.05,.05-.05h0s.05,.02,.05,.05-.02,.05-.05,.05Zm-.29,0s-.05-.02-.05-.05,.02-.05,.05-.05h0s.05,.02,.05,.05-.02,.05-.05,.05Zm-.29,0s-.05-.02-.05-.05,.02-.05,.05-.05h0s.05,.02,.05,.05-.02,.05-.05,.05Zm-.29,0s-.05-.02-.05-.05,.02-.05,.05-.05h0s.05,.02,.05,.05-.02,.05-.05,.05Zm-.29,0s-.05-.02-.05-.05,.02-.05,.05-.05h0s.05,.02,.05,.05-.02,.05-.05,.05Zm-.29,0s-.05-.02-.05-.05,.02-.05,.05-.05h0s.05,.02,.05,.05-.02,.05-.05,.05Zm-.29,0s-.05-.02-.05-.05,.02-.05,.05-.05h0s.05,.02,.05,.05-.02,.05-.05,.05Zm-.29,0s-.05-.02-.05-.05,.02-.05,.05-.05h0s.05,.02,.05,.05-.02,.05-.05,.05Zm-.29,0s-.05-.02-.05-.05,.02-.05,.05-.05h0s.05,.02,.05,.05-.02,.05-.05,.05Zm-.29,0s-.05-.02-.05-.05,.02-.05,.05-.05h0s.05,.02,.05,.05-.02,.05-.05,.05Zm-.29,0s-.05-.02-.05-.05,.02-.05,.05-.05h0s.05,.02,.05,.05-.02,.05-.05,.05Zm-.29,0s-.05-.02-.05-.05,.02-.05,.05-.05h0s.05,.02,.05,.05-.02,.05-.05,.05Zm-.29,0s-.05-.02-.05-.05,.02-.05,.05-.05h0s.05,.02,.05,.05-.02,.05-.05,.05Zm-.29,0s-.05-.02-.05-.05,.02-.05,.05-.05h0s.05,.02,.05,.05-.02,.05-.05,.05Zm-.29,0s-.05-.02-.05-.05,.02-.05,.05-.05h0s.05,.02,.05,.05-.02,.05-.05,.05Zm-.29,0s-.05-.02-.05-.05,.02-.05,.05-.05h0s.05,.02,.05,.05-.02,.05-.05,.05Zm-.29,0s-.05-.02-.05-.05,.02-.05,.05-.05h0s.05,.02,.05,.05-.02,.05-.05,.05Zm-.29,0s-.05-.02-.05-.05,.02-.05,.05-.05h0s.05,.02,.05,.05-.02,.05-.05,.05Zm-.29,0s-.05-.02-.05-.05,.02-.05,.05-.05h0s.05,.02,.05,.05-.02,.05-.05,.05Zm-.29,0s-.05-.02-.05-.05,.02-.05,.05-.05h0s.05,.02,.05,.05-.02,.05-.05,.05Zm-.29,0s-.05-.02-.05-.05,.02-.05,.05-.05h0s.05,.02,.05,.05-.02,.05-.05,.05Zm-.29,0s-.05-.02-.05-.05,.02-.05,.05-.05h0s.05,.02,.05,.05-.02,.05-.05,.05Zm-.29,0s-.05-.02-.05-.05,.02-.05,.05-.05h0s.05,.02,.05,.05-.02,.05-.05,.05Zm-.29,0s-.05-.02-.05-.05,.02-.05,.05-.05h0s.05,.02,.05,.05-.02,.05-.05,.05Zm-.29,0s-.05-.02-.05-.05,.02-.05,.05-.05h0s.05,.02,.05,.05-.02,.05-.05,.05Zm-.29,0s-.05-.02-.05-.05,.02-.05,.05-.05h0s.05,.02,.05,.05-.02,.05-.05,.05Z"/>
    <path class="cls-1" d="M46.13,68.72s-.05-.02-.05-.05,.02-.05,.05-.05h0s.05,.02,.05,.05-.02,.05-.05,.05Zm-.29,0s-.05-.02-.05-.05,.02-.05,.05-.05h0s.05,.02,.05,.05-.02,.05-.05,.05Zm-.29,0s-.05-.02-.05-.05,.02-.05,.05-.05h0s.05,.02,.05,.05-.02,.05-.05,.05Zm-.29,0s-.05-.02-.05-.05,.02-.05,.05-.05h0s.05,.02,.05,.05-.02,.05-.05,.05Zm-.29,0s-.05-.02-.05-.05,.02-.05,.05-.05h0s.05,.02,.05,.05-.02,.05-.05,.05Zm-.29,0s-.05-.02-.05-.05,.02-.05,.05-.05h0s.05,.02,.05,.05-.02,.05-.05,.05Zm-.29,0s-.05-.02-.05-.05,.02-.05,.05-.05h0s.05,.02,.05,.05-.02,.05-.05,.05Zm-.29,0s-.05-.02-.05-.05,.02-.05,.05-.05h0s.05,.02,.05,.05-.02,.05-.05,.05Zm-.29,0s-.05-.02-.05-.05,.02-.05,.05-.05h0s.05,.02,.05,.05-.02,.05-.05,.05Zm-.29,0s-.05-.02-.05-.05,.02-.05,.05-.05h0s.05,.02,.05,.05-.02,.05-.05,.05Zm-.29,0s-.05-.02-.05-.05,.02-.05,.05-.05h0s.05,.02,.05,.05-.02,.05-.05,.05Zm-.29,0s-.05-.02-.05-.05,.02-.05,.05-.05h0s.05,.02,.05,.05-.02,.05-.05,.05Zm-.29,0s-.05-.02-.05-.05,.02-.05,.05-.05h0s.05,.02,.05,.05-.02,.05-.05,.05Zm-.29,0s-.05-.02-.05-.05,.02-.05,.05-.05h0s.05,.02,.05,.05-.02,.05-.05,.05Zm-.29,0s-.05-.02-.05-.05,.02-.05,.05-.05h0s.05,.02,.05,.05-.02,.05-.05,.05Zm-.29,0s-.05-.02-.05-.05,.02-.05,.05-.05h0s.05,.02,.05,.05-.02,.05-.05,.05Zm-.29,0s-.05-.02-.05-.05,.02-.05,.05-.05h0s.05,.02,.05,.05-.02,.05-.05,.05Zm-.29,0s-.05-.02-.05-.05,.02-.05,.05-.05h0s.05,.02,.05,.05-.02,.05-.05,.05Zm-.29,0s-.05-.02-.05-.05,.02-.05,.05-.05h0s.05,.02,.05,.05-.02,.05-.05,.05Zm-.29,0s-.05-.02-.05-.05,.02-.05,.05-.05h0s.05,.02,.05,.05-.02,.05-.05,.05Zm-.29,0s-.05-.02-.05-.05,.02-.05,.05-.05h0s.05,.02,.05,.05-.02,.05-.05,.05Zm-.29,0s-.05-.02-.05-.05,.02-.05,.05-.05h0s.05,.02,.05,.05-.02,.05-.05,.05Zm-.29,0s-.05-.02-.05-.05,.02-.05,.05-.05h0s.05,.02,.05,.05-.02,.05-.05,.05Zm-.29,0s-.05-.02-.05-.05,.02-.05,.05-.05h0s.05,.02,.05,.05-.02,.05-.05,.05Zm-.29,0s-.05-.02-.05-.05,.02-.05,.05-.05h0s.05,.02,.05,.05-.02,.05-.05,.05Zm-.29,0s-.05-.02-.05-.05,.02-.05,.05-.05h0s.05,.02,.05,.05-.02,.05-.05,.05Zm-.29,0s-.05-.02-.05-.05,.02-.05,.05-.05h0s.05,.02,.05,.05-.02,.05-.05,.05Zm-.29,0s-.05-.02-.05-.05,.02-.05,.05-.05h0s.05,.02,.05,.05-.02,.05-.05,.05Zm-.29,0s-.05-.02-.05-.05,.02-.05,.05-.05h0s.05,.02,.05,.05-.02,.05-.05,.05Zm-.29,0s-.05-.02-.05-.05,.02-.05,.05-.05h0s.05,.02,.05,.05-.02,.05-.05,.05Zm-.29,0s-.05-.02-.05-.05,.02-.05,.05-.05h0s.05,.02,.05,.05-.02,.05-.05,.05Zm-.29,0s-.05-.02-.05-.05,.02-.05,.05-.05h0s.05,.02,.05,.05-.02,.05-.05,.05Zm-.29,0s-.05-.02-.05-.05,.02-.05,.05-.05h0s.05,.02,.05,.05-.02,.05-.05,.05Zm-.29,0s-.05-.02-.05-.05,.02-.05,.05-.05h0s.05,.02,.05,.05-.02,.05-.05,.05Zm-.29,0s-.05-.02-.05-.05,.02-.05,.05-.05h0s.05,.02,.05,.05-.02,.05-.05,.05Zm-.29,0s-.05-.02-.05-.05,.02-.05,.05-.05h0s.05,.02,.05,.05-.02,.05-.05,.05Zm-.29,0s-.05-.02-.05-.05,.02-.05,.05-.05h0s.05,.02,.05,.05-.02,.05-.05,.05Zm-.29,0s-.05-.02-.05-.05,.02-.05,.05-.05h0s.05,.02,.05,.05-.02,.05-.05,.05Zm-.29,0s-.05-.02-.05-.05,.02-.05,.05-.05h0s.05,.02,.05,.05-.02,.05-.05,.05Zm-.29,0s-.05-.02-.05-.05,.02-.05,.05-.05h0s.05,.02,.05,.05-.02,.05-.05,.05Zm-.29,0s-.05-.02-.05-.05,.02-.05,.05-.05h0s.05,.02,.05,.05-.02,.05-.05,.05Zm-.29,0s-.05-.02-.05-.05,.02-.05,.05-.05h0s.05,.02,.05,.05-.02,.05-.05,.05Zm-.29,0s-.05-.02-.05-.05,.02-.05,.05-.05h0s.05,.02,.05,.05-.02,.05-.05,.05Zm-.29,0s-.05-.02-.05-.05,.02-.05,.05-.05h0s.05,.02,.05,.05-.02,.05-.05,.05Zm-.29,0s-.05-.02-.05-.05,.02-.05,.05-.05h0s.05,.02,.05,.05-.02,.05-.05,.05Zm-.29,0s-.05-.02-.05-.05,.02-.05,.05-.05h0s.05,.02,.05,.05-.02,.05-.05,.05Zm-.29,0s-.05-.02-.05-.05,.02-.05,.05-.05h0s.05,.02,.05,.05-.02,.05-.05,.05Zm-.29,0s-.05-.02-.05-.05,.02-.05,.05-.05h0s.05,.02,.05,.05-.02,.05-.05,.05Zm-.29,0s-.05-.02-.05-.05,.02-.05,.05-.05h0s.05,.02,.05,.05-.02,.05-.05,.05Zm-.29,0s-.05-.02-.05-.05,.02-.05,.05-.05h0s.05,.02,.05,.05-.02,.05-.05,.05Zm-.29,0s-.05-.02-.05-.05,.02-.05,.05-.05h0s.05,.02,.05,.05-.02,.05-.05,.05Zm-.29,0s-.05-.02-.05-.05,.02-.05,.05-.05h0s.05,.02,.05,.05-.02,.05-.05,.05Zm-.29,0s-.05-.02-.05-.05,.02-.05,.05-.05h0s.05,.02,.05,.05-.02,.05-.05,.05Zm-.29,0s-.05-.02-.05-.05,.02-.05,.05-.05h0s.05,.02,.05,.05-.02,.05-.05,.05Zm-.29,0s-.05-.02-.05-.05,.02-.05,.05-.05h0s.05,.02,.05,.05-.02,.05-.05,.05Zm-.29,0s-.05-.02-.05-.05,.02-.05,.05-.05h0s.05,.02,.05,.05-.02,.05-.05,.05Zm-.29,0s-.05-.02-.05-.05,.02-.05,.05-.05h0s.05,.02,.05,.05-.02,.05-.05,.05Zm-.29,0s-.05-.02-.05-.05,.02-.05,.05-.05h0s.05,.02,.05,.05-.02,.05-.05,.05Zm-.29,0s-.05-.02-.05-.05,.02-.05,.05-.05h0s.05,.02,.05,.05-.02,.05-.05,.05Zm-.29,0s-.05-.02-.05-.05,.02-.05,.05-.05h0s.05,.02,.05,.05-.02,.05-.05,.05Zm-.31,0s-.05-.02-.05-.05,.02-.05,.05-.05h0s.05,.02,.05,.05-.02,.05-.05,.05Zm-.29,0s-.05-.02-.05-.05,.02-.05,.05-.05h0s.05,.02,.05,.05-.02,.05-.05,.05Zm-.29,0s-.05-.02-.05-.05,.02-.05,.05-.05h0s.05,.02,.05,.05-.02,.05-.05,.05Zm-.29,0s-.05-.02-.05-.05,.02-.05,.05-.05h0s.05,.02,.05,.05-.02,.05-.05,.05Z"/>
  </g>
  <g>
    <g>
      <rect class="cls-1" x="27.84" y="77.26" width="19.36" height=".1"/>
      <rect class="cls-1" x="27.84" y="77.5" width="19.36" height=".1"/>
    </g>
    <g>
      <path class="cls-1" d="M49.16,78.09s-.04,0-.09-.03c-.06-.03-.12-.1-.19-.19-.04-.04-.09-.09-.15-.11-.06-.02-.14,0-.19,.06-.05,.06-.08,.14-.06,.23,.02,.09,.06,.17,.12,.25,.06,.08,.13,.15,.22,.2,.09,.05,.2,.08,.31,.07,.05,0,.11-.02,.16-.05,.03-.01,.04-.03,.07-.05,.02-.02,.04-.04,.06-.06,.07-.09,.1-.21,.1-.33,0-.06,0-.12-.02-.18,0-.03-.02-.06-.02-.09l-.03-.09c-.05-.11-.12-.22-.2-.32-.17-.19-.4-.34-.65-.42-.25-.09-.52-.11-.77-.06-.26,.04-.49,.16-.66,.34-.16,.18-.27,.41-.29,.63-.03,.22,.04,.44,.17,.58,.13,.14,.31,.22,.47,.23,.08,0,.16-.01,.21-.05,.06-.04,.09-.1,.09-.15,0-.12-.06-.2-.1-.24-.04-.05-.06-.07-.06-.07,0,0,.02,.02,.07,.07,.04,.05,.11,.12,.11,.24,0,.06-.03,.13-.09,.17-.06,.04-.14,.06-.23,.06-.17,0-.36-.08-.5-.23-.14-.15-.22-.38-.2-.62,.02-.24,.12-.47,.3-.67,.04-.05,.09-.09,.14-.13,.05-.04,.11-.08,.17-.11,.12-.06,.25-.1,.38-.13,.27-.05,.55-.03,.81,.06,.26,.09,.5,.24,.68,.45,.18,.2,.3,.46,.29,.72,0,.13-.03,.26-.11,.37-.08,.11-.2,.16-.32,.17-.12,.01-.24-.02-.34-.08-.1-.06-.17-.14-.23-.22-.06-.08-.11-.17-.12-.27-.02-.09,.01-.19,.07-.25,.06-.06,.15-.09,.22-.06,.07,.02,.12,.08,.15,.12,.07,.09,.13,.16,.19,.19,.05,.03,.09,.03,.09,.03Z"/>
      <path class="cls-1" d="M49.73,78.85s0-.01-.01-.03c0-.02-.02-.05-.04-.08-.02-.03-.05-.07-.08-.12-.04-.04-.08-.09-.13-.13-.05-.04-.11-.09-.18-.13-.07-.04-.14-.08-.22-.11-.16-.07-.33-.12-.5-.16-.18-.04-.35-.07-.52-.11-.17-.04-.32-.08-.45-.14-.06-.03-.12-.05-.17-.08-.05-.03-.09-.05-.13-.07-.03-.02-.06-.04-.08-.05-.02-.01-.03-.02-.03-.02l.05-.06s0,0,.02,.02c.02,.01,.04,.03,.07,.05,.03,.02,.07,.05,.12,.07,.05,.03,.1,.05,.16,.08,.12,.05,.27,.1,.44,.14,.16,.04,.34,.08,.52,.13,.18,.05,.35,.1,.51,.17,.08,.04,.15,.07,.22,.12,.07,.04,.12,.09,.18,.13,.05,.05,.09,.09,.13,.13,.03,.04,.06,.08,.08,.12,.02,.03,.03,.06,.04,.08,0,.02,.01,.03,.01,.03Z"/>
      <path class="cls-1" d="M46.62,78.36s0,0,.01-.02c0-.01,.01-.04,0-.06,0-.01-.01-.02-.02-.03,0,0-.02-.02-.04-.02-.01,0-.03,0-.04,0-.01,0-.03,.01-.03,.02-.01,.01-.02,.02-.02,.04,0,.01,0,.03,0,.04,0,.03,.03,.05,.05,.06,.03,0,.05,0,.06,0,.01,0,.02-.01,.02-.01Zm0,0s-.03,.03-.09,.03c-.03,0-.07-.02-.09-.06,0-.02-.01-.04-.01-.06,0-.02,.02-.05,.03-.06,.04-.04,.09-.04,.13-.02,.02,.01,.03,.02,.04,.04,0,.02,.01,.03,.02,.05,0,.06-.03,.09-.03,.09Z"/>
      <path class="cls-1" d="M46.48,78.36s0-.01,.01-.03c0-.02,.02-.04,.04-.05,.03-.03,.08-.05,.09-.05,0,0-.01,.05-.05,.08-.02,.02-.04,.03-.05,.04-.02,0-.03,.01-.03,.01Z"/>
    </g>
    <g>
      <rect class="cls-1" x="2.8" y="77.26" width="19.39" height=".1"/>
      <rect class="cls-1" x="2.8" y="77.5" width="19.39" height=".1"/>
    </g>
    <g>
      <path class="cls-1" d="M.84,78.09s.04,0,.09-.03c.06-.03,.12-.1,.19-.19,.04-.04,.09-.09,.15-.11,.06-.02,.14,0,.19,.06,.05,.06,.08,.14,.06,.23-.02,.09-.06,.17-.12,.25-.06,.08-.13,.15-.22,.2-.09,.05-.2,.08-.31,.07-.05,0-.11-.02-.16-.05-.03-.01-.04-.03-.07-.05-.02-.02-.04-.04-.06-.06-.07-.09-.1-.21-.1-.33,0-.06,0-.12,.02-.18,0-.03,.02-.06,.02-.09l.03-.09c.05-.11,.12-.22,.2-.32,.17-.19,.4-.34,.65-.42,.25-.09,.52-.11,.77-.06,.26,.04,.49,.16,.66,.34,.16,.18,.27,.41,.29,.63,.03,.22-.04,.44-.17,.58-.13,.14-.31,.22-.47,.23-.08,0-.16-.01-.21-.05-.06-.04-.09-.1-.09-.15,0-.12,.06-.2,.1-.24,.04-.05,.06-.07,.06-.07,0,0-.02,.02-.07,.07-.04,.05-.11,.12-.11,.24,0,.06,.03,.13,.09,.17,.06,.04,.14,.06,.23,.06,.17,0,.36-.08,.5-.23,.14-.15,.22-.38,.2-.62-.02-.24-.12-.47-.3-.67-.04-.05-.09-.09-.14-.13-.05-.04-.11-.08-.17-.11-.12-.06-.25-.1-.38-.13-.27-.05-.55-.03-.81,.06-.26,.09-.5,.24-.68,.45-.18,.2-.3,.46-.29,.72,0,.13,.03,.26,.11,.37,.08,.11,.2,.16,.32,.17,.12,.01,.24-.02,.34-.08,.1-.06,.17-.14,.23-.22,.06-.08,.11-.17,.12-.27,.02-.09-.01-.19-.07-.25-.06-.06-.15-.09-.22-.06-.07,.02-.12,.08-.15,.12-.07,.09-.13,.16-.19,.19-.05,.03-.09,.03-.09,.03Z"/>
      <path class="cls-1" d="M.27,78.85s0-.01,.01-.03c0-.02,.02-.05,.04-.08,.02-.03,.05-.07,.08-.12,.04-.04,.08-.09,.13-.13,.05-.04,.11-.09,.18-.13,.07-.04,.14-.08,.22-.11,.16-.07,.33-.12,.5-.16,.18-.04,.35-.07,.52-.11,.17-.04,.32-.08,.45-.14,.06-.03,.12-.05,.17-.08,.05-.03,.09-.05,.13-.07,.03-.02,.06-.04,.08-.05,.02-.01,.03-.02,.03-.02l-.05-.06s0,0-.02,.02c-.02,.01-.04,.03-.07,.05-.03,.02-.07,.05-.12,.07-.05,.03-.1,.05-.16,.08-.12,.05-.27,.1-.44,.14-.16,.04-.34,.08-.52,.13-.18,.05-.35,.1-.51,.17-.08,.04-.15,.07-.22,.12-.07,.04-.12,.09-.18,.13-.05,.05-.09,.09-.13,.13-.03,.04-.06,.08-.08,.12-.02,.03-.03,.06-.04,.08,0,.02-.01,.03-.01,.03Z"/>
      <path class="cls-1" d="M3.4,78.37s.04,.01,.06,0c.03,0,.05-.03,.05-.06,0-.01,0-.03,0-.04,0-.01,0-.02-.02-.04,0,0-.02-.02-.03-.02-.01,0-.03,0-.04,0-.01,0-.03,.01-.04,.02-.01,0-.02,.02-.02,.03,0,.03,0,.05,0,.06,0,.01,.01,.02,.01,.02,0,0,0,0,.02,.01Zm-.05-.1s0-.03,.02-.05c.01-.02,.02-.03,.04-.04,.04-.02,.09-.01,.13,.02,.01,.01,.03,.04,.03,.06,0,.02,0,.05-.01,.06-.02,.04-.06,.06-.09,.06-.06,0-.09-.03-.09-.03,0,0-.03-.03-.03-.09Z"/>
      <path class="cls-1" d="M3.52,78.36s0-.01-.01-.03c0-.02-.02-.04-.04-.05-.03-.03-.08-.05-.09-.05,0,0,.01,.05,.05,.08,.02,.02,.04,.03,.05,.04,.02,0,.03,.01,.03,.01Z"/>
    </g>
    <g>
      <path class="cls-1" d="M26.54,78.07s0,0-.01,0c0,0-.02,0-.04,0-.04,0-.09-.03-.14-.09-.02-.03-.04-.06-.06-.11,0-.02-.01-.05-.01-.07,0-.01,0-.03,0-.04,0,0,0-.01,0-.02h0s0-.02,0-.02c0,0,0,0,0,0h0s0,0,0,0c0-.01,0-.02,0-.04,0-.02,.01-.03,.02-.04,.01-.03,.03-.05,.05-.08,.04-.05,.09-.09,.15-.12,.03-.01,.06-.03,.1-.03,.02,0,.04,0,.05,0,.02,0,.03,0,.05,0h.02s.02,0,.03,0c.02,0,.04,0,.06,0,.04,0,.07,.02,.11,.03,.07,.03,.13,.08,.18,.14,.05,.06,.08,.12,.1,.19,.02,.07,.03,.14,.04,.21,0,.02,0,.03,0,.05,0,.02,0,.03,0,.05v.03s0,0,0,0h0s0,0,0,0h0s0,.01,0,.01c0,.02,0,.03,0,.05v.02s0,.03,0,.03v.05s-.03,.03-.03,.05c0,.02-.01,.03-.02,.05-.03,.06-.07,.13-.12,.19-.1,.12-.23,.21-.38,.25-.15,.04-.3,.05-.45,.02-.02,0-.04,0-.06-.01-.02,0-.04-.01-.05-.02h-.01s-.02-.01-.02-.01h-.02s-.03-.02-.04-.03c-.03-.02-.06-.03-.09-.05-.03-.02-.05-.04-.08-.06-.1-.08-.18-.16-.25-.25-.07-.08-.12-.17-.16-.24-.02-.04-.04-.07-.05-.11-.01-.03-.03-.07-.03-.1-.02-.06-.03-.11-.03-.14,0-.03,0-.05,0-.05h.03s.01,0,.03,.03c0,.01,.02,.03,.04,.04,.02,.02,.03,.04,.05,.06,.04,.04,.09,.09,.14,.15,.05,.05,.12,.11,.19,.17,.07,.06,.15,.12,.24,.17,.02,.01,.04,.03,.07,.04,.02,.01,.04,.02,.06,.04,.06,.03,.09,.05,.14,.06,.09,.03,.2,.04,.31,.03,.11-.01,.22-.04,.32-.1,.05-.03,.09-.07,.13-.12,.02-.02,.03-.05,.04-.08v-.04s.02-.01,.02-.02v-.02c.03-.12-.01-.24-.08-.33-.07-.08-.16-.13-.23-.15,0,0-.02,0-.03,0,0,0-.02,0-.03,0,0,0-.01,0-.02,0,0,0,0,0-.01,0h-.02s-.02,0-.02,0h0s0,0,0,0h0s0,0,0,0c0,0,0,0,0,0,0,0-.02,0-.02,0-.02,0-.03,0-.05,.01-.03,0-.06,.02-.08,.04-.01,0-.02,.02-.03,.03h-.01s0,.03-.01,.03h0s0,0,0,0c0,0,0,0,0,0h0s0,0,0,0c0,0,0,0,0,0,0,0,0,.01,0,.02,0,.01,0,.02,0,.04,0,.02,0,.05,0,.07,0,.04,.03,.08,.05,.1,0,0,.02,.02,.02,.02,0,0,.01,0,.01,0v.03Z"/>
      <path class="cls-1" d="M25.08,78.05s.02,.02,.05,.07c.03,.04,.07,.11,.11,.19,.04,.08,.08,.18,.12,.29,.04,.11,.08,.22,.11,.34,.03,.12,.05,.25,.04,.37,0,.02,0,.03,0,.05,0,.02,0,.03,0,.05v.02s0,0,0,.01h0s0,.03,0,.03c0,0,0,.02,0,.02-.03,.06-.07,.11-.11,.14-.02,.02-.04,.03-.07,.05-.03,.02-.05,.02-.07,.03-.05,.01-.08,.02-.11,.02-.05,0-.08,.01-.08,.01v-.22s.01,0,.07,0c.02,0,.05,0,.08,0,.01,0,.03,0,.04,0,.01,0,.03-.01,.04-.02,.03-.02,.06-.05,.08-.08,0,0,0,0,0-.01,0,0,0,0,0-.01h0s0-.01,0-.02v-.02s.01-.02,.02-.03c0-.01,0-.02,0-.04,.02-.1,.02-.21,0-.33-.02-.12-.04-.23-.07-.34-.03-.11-.06-.21-.09-.29-.03-.08-.06-.15-.08-.2-.02-.05-.04-.07-.04-.07Z"/>
      <path class="cls-1" d="M25.96,77.03s0,0,.01,0c0,0,0,0,.01,0,0,0,0,0,0,0,0,0,0,0,.01,0,.01,0,.02,.01,.03,.02,0,0,.02,.02,.03,.03,.02,.02,.03,.05,.05,.07,.01,.03,.02,.06,.03,.1,0,.04,0,.07-.01,.12,0,.01,0,.02-.01,.03,0,.01-.01,.02-.02,.03h-.01s-.02,.02-.02,.02c-.01,0-.02,.01-.04,.01-.03,0-.05,0-.07,0-.02,0-.04-.01-.06-.02-.04-.02-.06-.05-.09-.07-.02-.02-.04-.04-.07-.05-.05-.03-.1-.04-.15-.03-.05,0-.09,.01-.11,.03-.01,0-.02,.01-.03,.02,0,0,0,0,0,0,0,0,0,0,0,0,0,0,.01-.01,.03-.02,.02-.02,.06-.04,.11-.05,.05-.01,.11-.01,.17,.01,.03,.01,.06,.03,.09,.05,.03,.02,.05,.04,.07,.04,.01,0,.03,0,.04,0,0,0,.01,0,.01,0,0,0,0,0,.01,0,.01,0,.01-.02,.02-.03,0-.02,0-.04,0-.06,0-.02-.01-.04-.03-.05,0-.01-.02-.02-.03-.03,0,0,0,0-.01,0,0,0,0,0,0,0h0s0,0,0,0c0,0,0,0-.01,0,0,0-.01,0-.01,0-.05-.01-.07-.06-.06-.11,.01-.05,.06-.07,.11-.06,0,0,.01,0,.01,0Z"/>
      <path class="cls-1" d="M24.14,77.19s0,0-.01,0c0,0,0,0-.01,0,0,0,0,0,0,0h0s0,0,0,0c0,0,0,0-.01,0,0,0-.02,.02-.03,.03-.01,.01-.02,.03-.03,.05,0,.02,0,.04,0,.06,0,.02,0,.03,.02,.03,0,0,0,0,.01,0,0,0,0,0,.01,0,.01,0,.02,0,.04,0,.02,0,.04-.02,.07-.04,.03-.02,.06-.04,.09-.05,.06-.02,.13-.02,.17-.01,.05,.01,.09,.03,.11,.05,.01,0,.02,.02,.03,.02,0,0,0,0,0,0,0,0,0,0,0,0,0,0-.02,0-.03-.02-.03-.01-.06-.02-.11-.03-.05,0-.1,0-.15,.03-.02,.01-.04,.03-.07,.05-.02,.02-.05,.05-.09,.07-.02,0-.04,.01-.06,.02-.02,0-.04,0-.07,0-.01,0-.02,0-.04-.01h-.02s-.01-.02-.01-.02c0,0-.02-.02-.02-.03,0-.01-.01-.02-.01-.03-.01-.04-.01-.08-.01-.12,0-.03,.01-.07,.03-.1,.01-.03,.03-.05,.05-.07,0-.01,.02-.02,.03-.03,.01,0,.02-.02,.03-.02,0,0,.01,0,.01,0,0,0,0,0,0,0,0,0,0,0,.01,0,0,0,.01,0,.01,0,.04-.02,.1,0,.12,.04,.02,.04,0,.1-.04,.12,0,0,0,0-.01,0Z"/>
      <path class="cls-1" d="M23.47,78.04s0,0,.01,0c0,0,.02-.01,.02-.02,.02-.02,.04-.05,.05-.1,0-.02,0-.05,0-.07,0-.01,0-.02,0-.04,0,0,0-.01,0-.02,0,0,0,0,0,0h0s0,0,0,0c0,0,0,0,0,0h0s0,0,0,0c0,0-.01-.02-.01-.02h-.01s-.02-.03-.03-.04c-.02-.02-.05-.03-.08-.04-.02,0-.03,0-.05-.01,0,0-.02,0-.02,0,0,0,.02,0,0,0h0s0,0,0,0h0s0,0,0,0h-.02s-.02,0-.02,0c0,0,0,0-.01,0,0,0-.01,0-.02,0,0,0-.02,0-.03,0,0,0-.02,0-.03,0-.07,.02-.16,.06-.23,.15-.07,.08-.11,.21-.08,.33v.02s0,.01,.01,.02v.04s.04,.05,.06,.08c.04,.05,.08,.09,.13,.12,.1,.06,.21,.09,.32,.1,.11,.01,.22,0,.31-.03,.05-.02,.08-.03,.14-.06,.02-.01,.04-.02,.06-.04,.02-.01,.04-.03,.07-.04,.09-.05,.16-.11,.24-.17,.07-.06,.14-.12,.19-.17,.05-.05,.1-.1,.14-.15,.02-.02,.04-.04,.05-.06,.02-.02,.03-.03,.04-.04,.02-.02,.03-.04,.03-.04h.03s0,.03,0,.06c0,.03-.01,.08-.03,.14,0,.03-.02,.06-.03,.1-.01,.03-.03,.07-.05,.11-.04,.08-.09,.16-.16,.24-.07,.08-.15,.17-.25,.25-.02,.02-.05,.04-.08,.06-.03,.02-.06,.04-.09,.05-.01,0-.03,.01-.04,.02h-.02s-.02,.02-.02,.02h-.01s-.04,.02-.05,.02c-.02,0-.04,.01-.06,.01-.15,.03-.3,.03-.45-.02-.15-.04-.28-.13-.38-.25-.05-.06-.09-.12-.12-.19,0-.02-.01-.03-.02-.05,0-.02-.01-.03-.02-.05v-.05s-.02-.03-.02-.03v-.02s0-.03,0-.05h0s0-.01,0-.01h0s0,0,0,0h0s0-.03,0-.03c0-.02,0-.03,0-.05,0-.02,0-.04,0-.05,0-.07,.02-.14,.04-.21,.02-.07,.06-.13,.1-.19,.05-.06,.11-.11,.18-.14,.03-.02,.07-.03,.11-.03,.02,0,.04,0,.06,0,0,0,.02,0,.03,0h.02s.03,0,.05,0c.02,0,.04,0,.05,0,.03,0,.07,.02,.1,.03,.06,.03,.11,.07,.15,.12,.02,.02,.04,.05,.05,.08,0,.01,.01,.03,.02,.04,0,.02,0,.02,0,.04h0s0,0,0,0c0,0,0,0,0,0h0s0,.02,0,.02c0,0,0,.01,0,.02,0,.01,0,.03,0,.04,0,.03,0,.05-.01,.07-.01,.04-.03,.08-.06,.11-.05,.06-.1,.08-.14,.09-.02,0-.03,0-.04,0,0,0-.01,0-.01,0v-.03Z"/>
      <path class="cls-1" d="M24.96,78.05s-.01,.03-.04,.07c-.02,.05-.05,.11-.09,.2-.06,.17-.12,.4-.15,.63-.01,.12-.02,.23,0,.33,0,.05,.02,.09,.04,.12,0,0,0,.01,0,.01h0s.01,.02,.02,.03c.01,.01,.03,.02,.04,.03,.05,.04,.11,.05,.16,.05,.02,0,.04,0,.05,0,.01,0,.02,0,.02,0v.22s0,0-.03,0c-.02,0-.04,0-.07-.01-.03,0-.07-.02-.11-.03-.04-.02-.09-.04-.13-.08-.02-.02-.04-.04-.06-.06,0-.01-.02-.02-.03-.04v-.02s-.02-.01-.02-.02c-.03-.06-.04-.12-.04-.18,0-.13,.02-.25,.05-.37,.05-.24,.14-.46,.23-.62,.04-.08,.08-.14,.11-.19,.03-.04,.05-.07,.05-.07Z"/>
      <g>
        <path class="cls-1" d="M25.19,77.09c.01-.21,.17-.41,.38-.48,.21-.07,.45,0,.59,.17,.05-.09,0-.2-.07-.28-.1-.13-.22-.24-.35-.32-.63-.41-.61,.54-.61,.92,.02,0,.05,.02,.07,.03,0-.01,0-.02,0-.03Z"/>
        <path class="cls-1" d="M24.83,77.09c-.01-.21-.17-.41-.38-.48-.21-.07-.45,0-.59,.17-.05-.09,0-.2,.07-.28,.1-.13,.22-.24,.35-.32,.63-.41,.61,.54,.61,.92-.02,0-.05,.02-.07,.03,0-.01,0-.02,0-.03Z"/>
      </g>
      <path class="cls-1" d="M24.57,77.5s0-.01,0-.03c0-.01,0-.02,0-.04,0-.01,0-.03,0-.05,0-.04,.02-.08,.05-.13,.03-.05,.06-.1,.12-.14,.06-.04,.13-.07,.21-.08,.02,0,.04,0,.06,0,.02,0,.04,0,.06,0,.04,0,.08,.02,.12,.04,.08,.04,.14,.1,.19,.17,.05,.07,.08,.16,.09,.25,0,.04,0,.09-.01,.14-.01,.04-.03,.09-.05,.13-.05,.08-.12,.14-.2,.18-.04,.02-.08,.03-.13,.04-.02,0-.04,0-.06,0-.03,0-.04,0-.06,0-.09-.01-.16-.04-.21-.09-.06-.04-.09-.1-.12-.14-.03-.05-.04-.09-.05-.13,0-.02,0-.04,0-.05,0-.01,0-.03,0-.04,0-.02,0-.03,0-.03h0Zm0,0s0,.01,0,.03c0,.01,0,.02,0,.04,0,.01,0,.03,.01,.05,.01,.03,.03,.08,.06,.11,.03,.04,.08,.08,.13,.1,.05,.03,.11,.05,.18,.06,.07,0,.14,0,.21-.03,.03-.01,.07-.03,.1-.06,.03-.02,.06-.05,.08-.08,.02-.03,.04-.07,.06-.1,.01-.04,.02-.07,.03-.12,0-.04,0-.08-.01-.12-.01-.04-.03-.08-.05-.11-.02-.03-.05-.06-.08-.09-.03-.02-.07-.04-.1-.06-.04-.01-.07-.02-.11-.02-.02,0-.04,0-.06,0-.01,0-.03,0-.05,0-.07,0-.13,.03-.18,.06-.05,.03-.09,.07-.13,.11-.03,.04-.05,.08-.06,.12,0,.02-.01,.03-.01,.05,0,.01,0,.03,0,.04,0,.02,0,.03,0,.03h0Z"/>
      <path class="cls-1" d="M25.37,77.83s0,.01-.02,.03c-.01,.02-.03,.05-.06,.08-.01,.02-.03,.03-.05,.05-.02,.02-.04,.03-.06,.05-.02,.01-.05,.03-.08,.03-.03,0-.06,.01-.09,.01-.03,0-.06,0-.09-.02-.03,0-.05-.02-.08-.04-.02-.01-.04-.03-.06-.05-.02-.02-.03-.03-.05-.05-.01-.02-.03-.03-.04-.04-.01-.01-.02-.03-.03-.04-.01-.02-.02-.03-.02-.03,0,0,.01,0,.03,.03,.02,.02,.04,.04,.07,.07,.02,.01,.03,.03,.05,.04,.02,.01,.04,.03,.06,.04,.02,.01,.05,.02,.07,.03,.02,0,.05,.01,.07,.01,.05,0,.1-.01,.14-.03,.04-.02,.08-.05,.11-.08,.03-.03,.05-.05,.07-.07,.02-.02,.02-.03,.02-.03Z"/>
      <path class="cls-1" d="M24.74,77.5c0-.15,.12-.27,.27-.27s.27,.12,.27,.27-.12,.27-.27,.27-.27-.12-.27-.27Z"/>
    </g>
  </g>
</svg>