<?xml version="1.0" encoding="UTF-8"?>
<svg id="_图层_1" data-name="图层 1" xmlns="http://www.w3.org/2000/svg" viewBox="0 0 60 24">
  <defs>
    <style>
      .cls-1 {
        fill: #5e60a5;
      }
    </style>
  </defs>
  <path class="cls-1" d="M10.5,19.6c-3.06,0-5.5-2.08-5.5-5.25V4.53h2.92V14.25c0,1.72,1.01,2.75,2.58,2.75s2.6-1.03,2.6-2.75V4.53h2.9V14.35c0,3.17-2.44,5.25-5.5,5.25Z"/>
  <path class="cls-1" d="M19.25,19.47V4.53h9.85v2.6h-6.93v3.51h5.9v2.6h-5.9v3.63h6.93v2.6h-9.85Z"/>
  <path class="cls-1" d="M36.07,19.6c-2.27,0-3.99-.48-5.46-1.97l1.89-1.89c.94,.94,2.23,1.26,3.61,1.26,1.72,0,2.65-.65,2.65-1.85,0-.52-.15-.97-.46-1.26-.29-.27-.63-.42-1.32-.52l-1.81-.25c-1.28-.19-2.23-.59-2.9-1.24-.71-.71-1.07-1.68-1.07-2.94,0-2.67,1.97-4.53,5.21-4.53,2.06,0,3.55,.5,4.83,1.74l-1.85,1.83c-.94-.9-2.08-1.03-3.06-1.03-1.55,0-2.31,.86-2.31,1.89,0,.38,.13,.78,.44,1.07,.29,.27,.78,.5,1.39,.59l1.76,.25c1.36,.19,2.23,.57,2.85,1.15,.8,.76,1.15,1.85,1.15,3.17,0,2.9-2.41,4.53-5.54,4.53Z"/>
  <path class="cls-1" d="M53.57,17.9c-1.2,1.24-2.62,1.7-4.22,1.7s-2.98-.59-4.03-1.64c-1.51-1.51-1.47-3.38-1.47-5.96s-.04-4.45,1.47-5.96c1.05-1.05,2.35-1.64,4.03-1.64,3.46,0,5.23,2.27,5.63,4.79h-2.94c-.34-1.41-1.2-2.18-2.69-2.18-.8,0-1.45,.31-1.87,.8-.57,.63-.71,1.32-.71,4.2s.15,3.59,.71,4.22c.42,.48,1.07,.78,1.87,.78,.88,0,1.6-.31,2.08-.84,.48-.55,.67-1.22,.67-1.99v-.57h-2.75v-2.44h5.65v2.18c0,2.16-.38,3.46-1.43,4.56Z"/>
</svg>